<svg width="417" height="58" viewBox="0 0 417 58" fill="none" xmlns="http://www.w3.org/2000/svg">
<path d="M28.419 28.6521V33.5492H27.8739V31.2648H25.6526V33.5492H25.1074V28.6521H25.6526V30.7221H27.8739V28.6521H28.419ZM33.3832 31.094C33.3832 31.8778 33.208 32.4941 32.8576 32.9429C32.5069 33.3916 32.0167 33.616 31.3868 33.616C30.7491 33.616 30.2559 33.3955 29.9074 32.9545C29.5588 32.5135 29.3845 31.891 29.3845 31.0872C29.3845 30.29 29.5578 29.6721 29.9044 29.2334C30.2509 28.7945 30.747 28.5751 31.3928 28.5751C32.0207 28.5751 32.5095 28.7978 32.8591 29.2434C33.2085 29.6888 33.3832 30.3057 33.3832 31.094ZM29.9592 31.094C29.9592 31.7415 30.0807 32.235 30.3235 32.5744C30.5665 32.9138 30.9209 33.0834 31.3868 33.0834C31.8509 33.0834 32.2035 32.916 32.4444 32.581C32.6852 32.2461 32.8056 31.7504 32.8056 31.094C32.8056 30.4398 32.6861 29.9468 32.4472 29.6151C32.2083 29.2836 31.8568 29.1178 31.3928 29.1178C30.9229 29.1178 30.5665 29.2858 30.3235 29.6218C30.0807 29.9578 29.9592 30.4486 29.9592 31.094ZM36.6977 33.5492H36.2505L34.8228 29.2551H34.7991C34.8287 29.6124 34.8436 30.0534 34.8436 30.5781V33.5492H34.34V28.6521H35.1457L36.4815 32.6649H36.5052L37.8648 28.6521H38.6644V33.5492H38.1253V30.538C38.1253 30.203 38.1392 29.7776 38.1669 29.2618H38.1431L36.6977 33.5492ZM42.2632 33.0066V33.5492H39.8433V28.6521H42.2632V29.1948H40.3882V30.7221H42.1537V31.258H40.3882V33.0066H42.2632Z" fill="#003865"/>
<path d="M27.3752 35.2008H27.7972V37.8561C27.7972 38.324 27.6723 38.6917 27.4224 38.9594C27.1725 39.227 26.8291 39.3607 26.3921 39.3607C25.9553 39.3607 25.6173 39.226 25.3783 38.9566C25.1391 38.6871 25.0195 38.3165 25.0195 37.8449V35.2008H25.4416V37.8786C25.4416 38.221 25.5243 38.4839 25.6897 38.6674C25.8552 38.8508 26.0985 38.9426 26.4196 38.9426C26.7257 38.9426 26.9616 38.8504 27.127 38.6661C27.2925 38.4818 27.3752 38.2174 27.3752 37.873V35.2008ZM31.5927 35.2008V39.3047H31.111L29.1278 35.8604H29.1078C29.1343 36.2646 29.1476 36.6351 29.1476 36.9719V39.3047H28.7578V35.2008H29.2345L31.2128 38.6308H31.2328C31.2294 38.5804 31.2219 38.4181 31.2103 38.144C31.1988 37.8697 31.1947 37.6736 31.1979 37.5557V35.2008H31.5927ZM33.0125 39.3047H32.5905V35.2008H33.0125V39.3047ZM35.2516 37.8394L36.0805 35.2008H36.5349L35.2268 39.3047H34.8098L33.509 35.2008H33.9559L34.7899 37.8561C34.8859 38.1611 34.962 38.4578 35.0183 38.746C35.0778 38.4429 35.1556 38.1407 35.2516 37.8394ZM39.0568 38.878V39.3047H37.0338V35.2008H39.0568V35.6246H37.4559V36.9467H38.9601V37.3677H37.4559V38.878H39.0568ZM41.0402 37.598H40.2831V39.3047H39.8612V35.2008H40.8565C41.3018 35.2008 41.6307 35.2971 41.8432 35.4898C42.056 35.6826 42.1623 35.9727 42.1623 36.36C42.1623 36.9028 41.919 37.2696 41.4324 37.4605L42.418 39.3047H41.9189L41.0402 37.598ZM40.2831 35.6189V37.1882H40.8616C41.1594 37.1882 41.3779 37.1213 41.5169 36.9874C41.6559 36.8536 41.7254 36.6529 41.7254 36.3854C41.7254 36.1139 41.6546 35.9184 41.5132 35.7987C41.3717 35.6788 41.1446 35.6189 40.8317 35.6189H40.2831Z" fill="#003865"/>
<path d="M20.8606 41.1502C19.2628 40.1719 12.7074 36.4835 4.70579 36.4835C3.33805 36.4835 1.92576 36.5915 0.491192 36.8392V8.82691C10.7363 7.02364 19.7282 12.4875 20.8606 13.2105V39.4087V41.1502ZM42.007 8.31598C31.5187 6.37369 22.2835 11.9778 21.1061 12.7295C19.9288 11.9776 10.6926 6.37313 0.205824 8.31598L0 8.35408V37.4912L0.285205 37.4382C11.2781 35.4033 20.8841 41.7975 20.9802 41.8623L21.3518 42.114V39.4087V13.2105C22.4846 12.4875 31.4765 7.02324 41.7216 8.82691V26.6113H42.2128V8.35408L42.007 8.31598Z" fill="#003865"/>
<path d="M0.962402 38.6598L0.999241 38.9342C10.83 37.2428 20.5258 43.3392 20.6226 43.4008L20.7433 43.1589C20.6458 43.0966 10.8799 36.9535 0.962402 38.6598Z" fill="#003865"/>
<path d="M1.98633 40.0827L2.03422 40.3548C2.10054 40.3398 8.7413 38.9165 17.2011 43.4059L17.3057 43.1543C8.77393 38.6269 2.05315 40.0674 1.98633 40.0827Z" fill="#003865"/>
<path d="M70.056 19.0819V23.743H68.6151V20.4317H55.8558L55.8349 23.743H54.394L54.4149 19.0819H55.1458C56.1064 19.0257 56.7747 18.2594 57.1505 16.783C57.5264 15.2926 57.7562 13.1835 57.8397 10.4557L58.0067 5.66809H67.8633V19.0819H70.056ZM59.2179 10.6034C59.1483 12.853 58.9743 14.709 58.6959 16.1714C58.4314 17.6196 57.9789 18.5898 57.3385 19.0819H66.3389V7.01791H59.3432L59.2179 10.6034ZM81.7359 15.3488H72.5476C72.6311 16.5018 73.0696 17.4368 73.8632 18.1539C74.6567 18.857 75.6591 19.2085 76.8703 19.2085C77.5522 19.2085 78.1787 19.089 78.7497 18.8499C79.3201 18.5968 79.8147 18.2312 80.2324 17.7532L81.0677 18.7234C80.5802 19.3139 79.9674 19.7639 79.23 20.0732C78.5057 20.3825 77.7056 20.5372 76.8285 20.5372C75.7009 20.5372 74.6985 20.2981 73.8214 19.8201C72.958 19.3279 72.2826 18.653 71.7958 17.7954C71.3083 16.9377 71.0649 15.9675 71.0649 14.8848C71.0649 13.8021 71.2946 12.8319 71.754 11.9743C72.2272 11.1166 72.8673 10.4487 73.6752 9.97064C74.4962 9.4926 75.415 9.25354 76.4317 9.25354C77.4478 9.25354 78.3595 9.4926 79.1674 9.97064C79.9746 10.4487 80.6083 11.1166 81.0677 11.9743C81.5271 12.8179 81.7568 13.7881 81.7568 14.8848L81.7359 15.3488ZM76.4317 10.5401C75.3733 10.5401 74.4825 10.8846 73.7588 11.5735C73.0488 12.2485 72.6448 13.1343 72.5476 14.231H80.3368C80.2389 13.1343 79.8284 12.2485 79.1047 11.5735C78.3947 10.8846 77.5033 10.5401 76.4317 10.5401ZM94.4776 9.33791V20.4317H92.9949V10.6666H86.1037V20.4317H84.621V9.33791H94.4776ZM102.054 9.25354C103.488 9.25354 104.588 9.61914 105.354 10.3503C106.12 11.0674 106.502 12.1359 106.502 13.5561V20.4317H105.082V18.7023C104.748 19.2788 104.254 19.7287 103.599 20.0521C102.959 20.3755 102.194 20.5372 101.302 20.5372C100.077 20.5372 99.1031 20.2419 98.3787 19.6514C97.655 19.0608 97.2928 18.2805 97.2928 17.3103C97.2928 16.3682 97.627 15.609 98.2952 15.0325C98.9778 14.4559 100.057 14.1677 101.532 14.1677H105.019V13.4928C105.019 12.5367 104.755 11.8126 104.226 11.3205C103.697 10.8143 102.925 10.5612 101.908 10.5612C101.212 10.5612 100.544 10.6807 99.9032 10.9197C99.263 11.1447 98.7129 11.461 98.2534 11.8688L97.5852 10.751C98.1425 10.273 98.8107 9.90736 99.5899 9.65427C100.37 9.38714 101.191 9.25354 102.054 9.25354ZM101.532 19.3561C102.367 19.3561 103.084 19.1663 103.683 18.7866C104.282 18.393 104.727 17.8305 105.019 17.0994V15.2855H101.574C99.6943 15.2855 98.7546 15.9464 98.7546 17.2681C98.7546 17.9149 98.9987 18.4281 99.4855 18.8077C99.973 19.1733 100.655 19.3561 101.532 19.3561ZM115.691 9.25354C116.721 9.25354 117.654 9.4926 118.489 9.97064C119.325 10.4346 119.979 11.0955 120.452 11.9532C120.925 12.8109 121.162 13.7881 121.162 14.8848C121.162 15.9956 120.925 16.9799 120.452 17.8375C119.979 18.6952 119.325 19.3631 118.489 19.8412C117.668 20.3052 116.735 20.5372 115.691 20.5372C114.8 20.5372 113.992 20.3544 113.269 19.9888C112.559 19.6092 111.974 19.0608 111.515 18.3437V24.5234H110.032V9.33791H111.452V11.5314C111.897 10.8002 112.482 10.2378 113.206 9.84409C113.943 9.45041 114.772 9.25354 115.691 9.25354ZM115.587 19.2085C116.352 19.2085 117.048 19.0327 117.675 18.6812C118.301 18.3156 118.788 17.8024 119.137 17.1415C119.498 16.4807 119.68 15.7285 119.68 14.8848C119.68 14.0412 119.498 13.2959 119.137 12.6492C118.788 11.9883 118.301 11.4751 117.675 11.1095C117.048 10.7439 116.352 10.5612 115.587 10.5612C114.807 10.5612 114.104 10.7439 113.478 11.1095C112.865 11.4751 112.377 11.9883 112.016 12.6492C111.667 13.2959 111.494 14.0412 111.494 14.8848C111.494 15.7285 111.667 16.4807 112.016 17.1415C112.377 17.8024 112.865 18.3156 113.478 18.6812C114.104 19.0327 114.807 19.2085 115.587 19.2085ZM131.249 10.6666H127.093V20.4317H125.61V10.6666H121.455V9.33791H131.249V10.6666ZM136.754 9.25354C138.188 9.25354 139.288 9.61914 140.054 10.3503C140.819 11.0674 141.202 12.1359 141.202 13.5561V20.4317H139.782V18.7023C139.448 19.2788 138.954 19.7287 138.3 20.0521C137.66 20.3755 136.893 20.5372 136.003 20.5372C134.778 20.5372 133.803 20.2419 133.079 19.6514C132.355 19.0608 131.993 18.2805 131.993 17.3103C131.993 16.3682 132.327 15.609 132.996 15.0325C133.678 14.4559 134.757 14.1677 136.232 14.1677H139.72V13.4928C139.72 12.5367 139.456 11.8126 138.926 11.3205C138.397 10.8143 137.624 10.5612 136.608 10.5612C135.912 10.5612 135.244 10.6807 134.604 10.9197C133.963 11.1447 133.413 11.461 132.954 11.8688L132.286 10.751C132.842 10.273 133.51 9.90736 134.29 9.65427C135.07 9.38714 135.891 9.25354 136.754 9.25354ZM136.232 19.3561C137.068 19.3561 137.785 19.1663 138.383 18.7866C138.982 18.393 139.427 17.8305 139.72 17.0994V15.2855H136.274C134.395 15.2855 133.455 15.9464 133.455 17.2681C133.455 17.9149 133.698 18.4281 134.186 18.8077C134.673 19.1733 135.355 19.3561 136.232 19.3561ZM157.011 9.33791V20.4317H155.653V11.6579L151.205 19.0819H150.537L146.089 11.6368V20.4317H144.732V9.33791H146.235L150.892 17.3314L155.632 9.33791H157.011ZM170.419 15.3488H161.23C161.314 16.5018 161.752 17.4368 162.546 18.1539C163.339 18.857 164.342 19.2085 165.553 19.2085C166.235 19.2085 166.861 19.089 167.432 18.8499C168.003 18.5968 168.497 18.2312 168.915 17.7532L169.75 18.7234C169.263 19.3139 168.65 19.7639 167.913 20.0732C167.188 20.3825 166.388 20.5372 165.511 20.5372C164.383 20.5372 163.381 20.2981 162.504 19.8201C161.641 19.3279 160.965 18.653 160.478 17.7954C159.991 16.9377 159.748 15.9675 159.748 14.8848C159.748 13.8021 159.977 12.8319 160.437 11.9743C160.91 11.1166 161.55 10.4487 162.358 9.97064C163.179 9.4926 164.098 9.25354 165.114 9.25354C166.13 9.25354 167.042 9.4926 167.85 9.97064C168.657 10.4487 169.291 11.1166 169.75 11.9743C170.21 12.8179 170.439 13.7881 170.439 14.8848L170.419 15.3488ZM165.114 10.5401C164.056 10.5401 163.165 10.8846 162.441 11.5735C161.731 12.2485 161.327 13.1343 161.23 14.231H169.019C168.922 13.1343 168.511 12.2485 167.787 11.5735C167.077 10.8846 166.186 10.5401 165.114 10.5401ZM173.304 9.33791H174.786V14.2521H181.698V9.33791H183.181V20.4317H181.698V15.5386H174.786V20.4317H173.304V9.33791ZM194.704 10.6666H190.549V20.4317H189.066V10.6666H184.91V9.33791H194.704V10.6666ZM207.137 9.25354C208.167 9.25354 209.1 9.4926 209.936 9.97064C210.771 10.4346 211.425 11.0955 211.899 11.9532C212.372 12.8109 212.609 13.7881 212.609 14.8848C212.609 15.9956 212.372 16.9799 211.899 17.8375C211.425 18.6952 210.771 19.3631 209.936 19.8412C209.114 20.3052 208.182 20.5372 207.137 20.5372C206.246 20.5372 205.439 20.3544 204.715 19.9888C204.005 19.6092 203.42 19.0608 202.961 18.3437V24.5234H201.478V9.33791H202.898V11.5314C203.343 10.8002 203.928 10.2378 204.652 9.84409C205.39 9.45041 206.219 9.25354 207.137 9.25354ZM207.033 19.2085C207.798 19.2085 208.495 19.0327 209.121 18.6812C209.748 18.3156 210.235 17.8024 210.583 17.1415C210.945 16.4807 211.126 15.7285 211.126 14.8848C211.126 14.0412 210.945 13.2959 210.583 12.6492C210.235 11.9883 209.748 11.4751 209.121 11.1095C208.495 10.7439 207.798 10.5612 207.033 10.5612C206.253 10.5612 205.55 10.7439 204.924 11.1095C204.311 11.4751 203.824 11.9883 203.462 12.6492C203.114 13.2959 202.94 14.0412 202.94 14.8848C202.94 15.7285 203.114 16.4807 203.462 17.1415C203.824 17.8024 204.311 18.3156 204.924 18.6812C205.55 19.0327 206.253 19.2085 207.033 19.2085ZM219.095 9.25354C220.529 9.25354 221.629 9.61914 222.394 10.3503C223.16 11.0674 223.543 12.1359 223.543 13.5561V20.4317H222.123V18.7023C221.789 19.2788 221.295 19.7287 220.64 20.0521C220 20.3755 219.234 20.5372 218.343 20.5372C217.118 20.5372 216.144 20.2419 215.419 19.6514C214.696 19.0608 214.333 18.2805 214.333 17.3103C214.333 16.3682 214.668 15.609 215.336 15.0325C216.018 14.4559 217.097 14.1677 218.573 14.1677H222.06V13.4928C222.06 12.5367 221.796 11.8126 221.266 11.3205C220.738 10.8143 219.965 10.5612 218.948 10.5612C218.253 10.5612 217.585 10.6807 216.944 10.9197C216.304 11.1447 215.753 11.461 215.294 11.8688L214.626 10.751C215.183 10.273 215.851 9.90736 216.631 9.65427C217.41 9.38714 218.232 9.25354 219.095 9.25354ZM218.573 19.3561C219.408 19.3561 220.125 19.1663 220.724 18.7866C221.323 18.393 221.768 17.8305 222.06 17.0994V15.2855H218.614C216.735 15.2855 215.795 15.9464 215.795 17.2681C215.795 17.9149 216.039 18.4281 216.526 18.8077C217.014 19.1733 217.696 19.3561 218.573 19.3561ZM232.194 14.6528C232.973 14.8356 233.572 15.1519 233.99 15.6019C234.421 16.0519 234.637 16.6002 234.637 17.247C234.637 17.8938 234.414 18.4703 233.969 18.9765C233.537 19.4826 232.946 19.8763 232.194 20.1575C231.442 20.4247 230.613 20.5583 229.709 20.5583C228.915 20.5583 228.136 20.4458 227.37 20.2208C226.604 19.9818 225.936 19.6373 225.365 19.1874L225.867 18.0695C226.368 18.4492 226.952 18.7445 227.621 18.9554C228.289 19.1663 228.964 19.2717 229.646 19.2717C230.662 19.2717 231.49 19.0819 232.131 18.7023C232.785 18.3086 233.113 17.7813 233.113 17.1205C233.113 16.5299 232.848 16.073 232.319 15.7495C231.79 15.4121 231.066 15.2434 230.147 15.2434H228.268V14.1466H230.064C230.885 14.1466 231.547 13.9919 232.048 13.6826C232.549 13.3592 232.8 12.9304 232.8 12.3961C232.8 11.8055 232.514 11.3415 231.943 11.0041C231.386 10.6666 230.655 10.4979 229.751 10.4979C228.567 10.4979 227.397 10.8002 226.242 11.4048L225.825 10.2448C227.133 9.55587 228.491 9.21136 229.897 9.21136C230.732 9.21136 231.484 9.33791 232.152 9.591C232.834 9.83005 233.363 10.1745 233.739 10.6245C234.129 11.0744 234.324 11.5946 234.324 12.1852C234.324 12.7476 234.129 13.2468 233.739 13.6826C233.363 14.1185 232.848 14.4419 232.194 14.6528ZM244.581 14.695C246.07 15.0465 246.815 15.9534 246.815 17.4157C246.815 18.3859 246.46 19.1311 245.75 19.6514C245.04 20.1716 243.982 20.4317 242.576 20.4317H237.585V9.33791H242.43C243.683 9.33791 244.664 9.58395 245.374 10.0761C246.084 10.5682 246.439 11.2712 246.439 12.1852C246.439 12.7898 246.272 13.3101 245.938 13.7459C245.618 14.1677 245.165 14.4841 244.581 14.695ZM239.026 14.2732H242.325C243.175 14.2732 243.822 14.1115 244.267 13.7881C244.727 13.4647 244.956 12.9937 244.956 12.375C244.956 11.7563 244.727 11.2923 244.267 10.983C243.822 10.6737 243.175 10.519 242.325 10.519H239.026V14.2732ZM242.513 19.2506C243.46 19.2506 244.17 19.0959 244.643 18.7866C245.117 18.4773 245.353 17.9922 245.353 17.3314C245.353 16.6705 245.138 16.1854 244.706 15.8761C244.275 15.5527 243.593 15.391 242.659 15.391H239.026V19.2506H242.513ZM249.872 9.33791H251.355V18.1539L258.685 9.33791H260V20.4317H258.518V11.6157L251.209 20.4317H249.872V9.33791ZM271.558 10.6666H267.403V20.4317H265.92V10.6666H261.764V9.33791H271.558V10.6666ZM273.285 9.33791H274.768V18.1539L282.098 9.33791H283.413V20.4317H281.931V11.6157L274.622 20.4317H273.285V9.33791ZM295.681 9.33791V20.4317H294.324V16.7619H290.878H290.46L287.913 20.4317H286.305L289.04 16.551C288.191 16.3119 287.537 15.9042 287.077 15.3277C286.618 14.7512 286.388 14.0201 286.388 13.1343C286.388 11.897 286.806 10.9549 287.641 10.3081C288.477 9.66132 289.618 9.33791 291.066 9.33791H295.681ZM287.892 13.1765C287.892 14.8215 288.929 15.6441 291.003 15.6441H294.324V10.6666H291.108C288.963 10.6666 287.892 11.5032 287.892 13.1765ZM314.395 9.33791V20.4317H312.912V10.6666H306.021V20.4317H304.539V9.33791H314.395ZM327.799 15.3488H318.61C318.694 16.5018 319.132 17.4368 319.926 18.1539C320.719 18.857 321.722 19.2085 322.933 19.2085C323.615 19.2085 324.241 19.089 324.812 18.8499C325.383 18.5968 325.877 18.2312 326.295 17.7532L327.13 18.7234C326.643 19.3139 326.03 19.7639 325.293 20.0732C324.568 20.3825 323.768 20.5372 322.891 20.5372C321.763 20.5372 320.761 20.2981 319.884 19.8201C319.021 19.3279 318.345 18.653 317.858 17.7954C317.371 16.9377 317.128 15.9675 317.128 14.8848C317.128 13.8021 317.357 12.8319 317.817 11.9743C318.29 11.1166 318.93 10.4487 319.738 9.97064C320.559 9.4926 321.478 9.25354 322.494 9.25354C323.51 9.25354 324.422 9.4926 325.23 9.97064C326.037 10.4487 326.671 11.1166 327.13 11.9743C327.59 12.8179 327.819 13.7881 327.819 14.8848L327.799 15.3488ZM322.494 10.5401C321.436 10.5401 320.545 10.8846 319.821 11.5735C319.111 12.2485 318.707 13.1343 318.61 14.231H326.399C326.302 13.1343 325.891 12.2485 325.167 11.5735C324.457 10.8846 323.566 10.5401 322.494 10.5401ZM336.343 9.25354C337.373 9.25354 338.306 9.4926 339.141 9.97064C339.976 10.4346 340.63 11.0955 341.104 11.9532C341.577 12.8109 341.814 13.7881 341.814 14.8848C341.814 15.9956 341.577 16.9799 341.104 17.8375C340.63 18.6952 339.976 19.3631 339.141 19.8412C338.319 20.3052 337.387 20.5372 336.343 20.5372C335.451 20.5372 334.644 20.3544 333.92 19.9888C333.21 19.6092 332.626 19.0608 332.166 18.3437V24.5234H330.684V9.33791H332.104V11.5314C332.549 10.8002 333.133 10.2378 333.858 9.84409C334.595 9.45041 335.424 9.25354 336.343 9.25354ZM336.238 19.2085C337.004 19.2085 337.7 19.0327 338.327 18.6812C338.953 18.3156 339.44 17.8024 339.788 17.1415C340.15 16.4807 340.331 15.7285 340.331 14.8848C340.331 14.0412 340.15 13.2959 339.788 12.6492C339.44 11.9883 338.953 11.4751 338.327 11.1095C337.7 10.7439 337.004 10.5612 336.238 10.5612C335.459 10.5612 334.756 10.7439 334.129 11.1095C333.516 11.4751 333.029 11.9883 332.667 12.6492C332.319 13.2959 332.145 14.0412 332.145 14.8848C332.145 15.7285 332.319 16.4807 332.667 17.1415C333.029 17.8024 333.516 18.3156 334.129 18.6812C334.756 19.0327 335.459 19.2085 336.238 19.2085ZM349.176 20.5372C348.09 20.5372 347.116 20.2981 346.252 19.8201C345.403 19.342 344.735 18.6741 344.248 17.8165C343.761 16.9447 343.517 15.9675 343.517 14.8848C343.517 13.8021 343.761 12.8319 344.248 11.9743C344.735 11.1166 345.403 10.4487 346.252 9.97064C347.116 9.4926 348.09 9.25354 349.176 9.25354C350.123 9.25354 350.965 9.44336 351.703 9.823C352.454 10.1886 353.046 10.7299 353.478 11.447L352.371 12.2063C352.009 11.6579 351.55 11.2501 350.993 10.983C350.436 10.7018 349.83 10.5612 349.176 10.5612C348.382 10.5612 347.666 10.7439 347.025 11.1095C346.398 11.461 345.904 11.9672 345.542 12.6281C345.194 13.289 345.02 14.0412 345.02 14.8848C345.02 15.7425 345.194 16.5018 345.542 17.1626C345.904 17.8094 346.398 18.3156 347.025 18.6812C347.666 19.0327 348.382 19.2085 349.176 19.2085C349.83 19.2085 350.436 19.0749 350.993 18.8077C351.55 18.5406 352.009 18.1328 352.371 17.5845L353.478 18.3437C353.046 19.0608 352.454 19.6092 351.703 19.9888C350.951 20.3544 350.109 20.5372 349.176 20.5372ZM360.279 20.5372C359.221 20.5372 358.268 20.2981 357.418 19.8201C356.569 19.3279 355.901 18.653 355.413 17.7954C354.926 16.9377 354.682 15.9675 354.682 14.8848C354.682 13.8021 354.926 12.8319 355.413 11.9743C355.901 11.1166 356.569 10.4487 357.418 9.97064C358.268 9.4926 359.221 9.25354 360.279 9.25354C361.337 9.25354 362.291 9.4926 363.14 9.97064C363.989 10.4487 364.65 11.1166 365.124 11.9743C365.611 12.8319 365.855 13.8021 365.855 14.8848C365.855 15.9675 365.611 16.9377 365.124 17.7954C364.65 18.653 363.989 19.3279 363.14 19.8201C362.291 20.2981 361.337 20.5372 360.279 20.5372ZM360.279 19.2085C361.059 19.2085 361.755 19.0327 362.367 18.6812C362.994 18.3156 363.481 17.8024 363.829 17.1415C364.177 16.4807 364.351 15.7285 364.351 14.8848C364.351 14.0412 364.177 13.289 363.829 12.6281C363.481 11.9672 362.994 11.461 362.367 11.1095C361.755 10.7439 361.059 10.5612 360.279 10.5612C359.5 10.5612 358.796 10.7439 358.17 11.1095C357.558 11.461 357.07 11.9672 356.708 12.6281C356.36 13.289 356.186 14.0412 356.186 14.8848C356.186 15.7285 356.36 16.4807 356.708 17.1415C357.07 17.8024 357.558 18.3156 358.17 18.6812C358.796 19.0327 359.5 19.2085 360.279 19.2085ZM368.606 9.33791H370.088V14.2521H377.001V9.33791H378.483V20.4317H377.001V15.5386H370.088V20.4317H368.606V9.33791ZM386.06 9.25354C387.493 9.25354 388.593 9.61914 389.359 10.3503C390.125 11.0674 390.508 12.1359 390.508 13.5561V20.4317H389.088V18.7023C388.754 19.2788 388.259 19.7287 387.605 20.0521C386.964 20.3755 386.199 20.5372 385.308 20.5372C384.082 20.5372 383.108 20.2419 382.384 19.6514C381.66 19.0608 381.299 18.2805 381.299 17.3103C381.299 16.3682 381.633 15.609 382.301 15.0325C382.983 14.4559 384.062 14.1677 385.538 14.1677H389.025V13.4928C389.025 12.5367 388.76 11.8126 388.232 11.3205C387.702 10.8143 386.93 10.5612 385.914 10.5612C385.217 10.5612 384.549 10.6807 383.909 10.9197C383.268 11.1447 382.719 11.461 382.259 11.8688L381.591 10.751C382.148 10.273 382.816 9.90736 383.596 9.65427C384.375 9.38714 385.196 9.25354 386.06 9.25354ZM385.538 19.3561C386.373 19.3561 387.09 19.1663 387.689 18.7866C388.287 18.393 388.733 17.8305 389.025 17.0994V15.2855H385.579C383.7 15.2855 382.76 15.9464 382.76 17.2681C382.76 17.9149 383.004 18.4281 383.491 18.8077C383.978 19.1733 384.661 19.3561 385.538 19.3561ZM403.016 9.33791V20.4317H401.534V10.6666H396.271L396.125 13.4085C396.014 15.7144 395.749 17.486 395.332 18.7234C394.914 19.9607 394.169 20.5794 393.097 20.5794C392.805 20.5794 392.45 20.5231 392.032 20.4106L392.137 19.1241C392.387 19.1803 392.561 19.2085 392.659 19.2085C393.23 19.2085 393.661 18.9413 393.953 18.407C394.246 17.8727 394.441 17.2119 394.538 16.4245C394.635 15.637 394.719 14.5966 394.789 13.303L394.977 9.33791H403.016ZM410.594 9.25354C412.027 9.25354 413.127 9.61914 413.893 10.3503C414.659 11.0674 415.042 12.1359 415.042 13.5561V20.4317H413.622V18.7023C413.287 19.2788 412.793 19.7287 412.139 20.0521C411.498 20.3755 410.733 20.5372 409.842 20.5372C408.616 20.5372 407.642 20.2419 406.918 19.6514C406.194 19.0608 405.832 18.2805 405.832 17.3103C405.832 16.3682 406.166 15.609 406.835 15.0325C407.517 14.4559 408.595 14.1677 410.072 14.1677H413.559V13.4928C413.559 12.5367 413.294 11.8126 412.765 11.3205C412.236 10.8143 411.463 10.5612 410.447 10.5612C409.751 10.5612 409.083 10.6807 408.443 10.9197C407.802 11.1447 407.252 11.461 406.793 11.8688L406.125 10.751C406.681 10.273 407.35 9.90736 408.129 9.65427C408.909 9.38714 409.73 9.25354 410.594 9.25354ZM410.072 19.3561C410.907 19.3561 411.623 19.1663 412.222 18.7866C412.821 18.393 413.267 17.8305 413.559 17.0994V15.2855H410.113C408.234 15.2855 407.294 15.9464 407.294 17.2681C407.294 17.9149 407.538 18.4281 408.025 18.8077C408.512 19.1733 409.194 19.3561 410.072 19.3561ZM56.2735 35.0424H57.7561V43.8584L65.0859 35.0424H66.4016V46.1363H64.9189V37.3203L57.61 46.1363H56.2735V35.0424ZM83.0072 36.3712H78.8515V46.1363H77.3688V36.3712H73.2132V35.0424H83.0072V36.3712ZM90.3924 34.9581C91.4229 34.9581 92.3554 35.1971 93.1907 35.6752C94.026 36.1392 94.6806 36.8 95.1537 37.6577C95.6274 38.5154 95.8637 39.4926 95.8637 40.5894C95.8637 41.7001 95.6274 42.6844 95.1537 43.5421C94.6806 44.3998 94.026 45.0677 93.1907 45.5457C92.3698 46.0097 91.4366 46.2417 90.3924 46.2417C89.5017 46.2417 88.6944 46.059 87.97 45.6934C87.26 45.3137 86.6753 44.7654 86.2159 44.0483V50.2279H84.7332V35.0424H86.1533V37.2359C86.599 36.5048 87.1837 35.9423 87.9074 35.5486C88.6455 35.155 89.4736 34.9581 90.3924 34.9581ZM90.288 44.913C91.0541 44.913 91.7498 44.7372 92.3763 44.3857C93.0028 44.0201 93.4902 43.507 93.8381 42.8461C94.2002 42.1852 94.381 41.433 94.381 40.5894C94.381 39.7457 94.2002 39.0005 93.8381 38.3537C93.4902 37.6929 93.0028 37.1797 92.3763 36.8141C91.7498 36.4485 91.0541 36.2657 90.288 36.2657C89.5088 36.2657 88.8054 36.4485 88.1789 36.8141C87.5668 37.1797 87.0793 37.6929 86.7171 38.3537C86.3693 39.0005 86.195 39.7457 86.195 40.5894C86.195 41.433 86.3693 42.1852 86.7171 42.8461C87.0793 43.507 87.5668 44.0201 88.1789 44.3857C88.8054 44.7372 89.5088 44.913 90.288 44.913ZM102.35 34.9581C103.784 34.9581 104.884 35.3237 105.65 36.0548C106.415 36.7719 106.798 37.8405 106.798 39.2606V46.1363H105.378V44.4068C105.044 44.9833 104.55 45.4332 103.896 45.7566C103.255 46.08 102.489 46.2417 101.599 46.2417C100.374 46.2417 99.3987 45.9464 98.675 45.3559C97.9513 44.7654 97.5891 43.985 97.5891 43.0148C97.5891 42.0728 97.9232 41.3135 98.5915 40.737C99.2734 40.1605 100.353 39.8723 101.828 39.8723H105.316V39.1974C105.316 38.2412 105.051 37.5171 104.522 37.025C103.993 36.5188 103.22 36.2657 102.204 36.2657C101.508 36.2657 100.84 36.3852 100.199 36.6243C99.5593 36.8492 99.0091 37.1656 98.5497 37.5734L97.8815 36.4555C98.4381 35.9775 99.1064 35.6119 99.8862 35.3588C100.666 35.0917 101.487 34.9581 102.35 34.9581ZM101.828 45.0606C102.664 45.0606 103.381 44.8708 103.979 44.4912C104.578 44.0975 105.023 43.535 105.316 42.8039V40.9901H101.87C99.9906 40.9901 99.0509 41.651 99.0509 42.9726C99.0509 43.6194 99.2943 44.1326 99.7818 44.5123C100.269 44.8779 100.951 45.0606 101.828 45.0606ZM110.328 35.0424H111.81V39.9566H118.722V35.0424H120.205V46.1363H118.722V41.2432H111.81V46.1363H110.328V35.0424ZM128.596 46.2417C127.51 46.2417 126.536 46.0027 125.672 45.5246C124.823 45.0466 124.155 44.3787 123.668 43.521C123.18 42.6492 122.937 41.672 122.937 40.5894C122.937 39.5067 123.18 38.5365 123.668 37.6788C124.155 36.8211 124.823 36.1532 125.672 35.6752C126.536 35.1971 127.51 34.9581 128.596 34.9581C129.543 34.9581 130.385 35.1479 131.123 35.5275C131.874 35.8931 132.466 36.4344 132.898 37.1515L131.791 37.9108C131.429 37.3624 130.969 36.9547 130.413 36.6875C129.856 36.4063 129.25 36.2657 128.596 36.2657C127.802 36.2657 127.085 36.4485 126.445 36.8141C125.819 37.1656 125.325 37.6718 124.962 38.3326C124.614 38.9935 124.44 39.7457 124.44 40.5894C124.44 41.447 124.614 42.2063 124.962 42.8672C125.325 43.5139 125.819 44.0201 126.445 44.3857C127.085 44.7372 127.802 44.913 128.596 44.913C129.25 44.913 129.856 44.7794 130.413 44.5123C130.969 44.2451 131.429 43.8374 131.791 43.289L132.898 44.0483C132.466 44.7654 131.874 45.3137 131.123 45.6934C130.371 46.059 129.528 46.2417 128.596 46.2417ZM148.428 40.5683C148.428 42.2977 147.864 43.6546 146.736 44.6388C145.609 45.623 144.014 46.1574 141.954 46.2417V50.2279H140.513V46.2628C138.467 46.1784 136.88 45.6441 135.752 44.6599C134.638 43.6616 134.081 42.2977 134.081 40.5683C134.081 38.8528 134.638 37.5101 135.752 36.5399C136.88 35.5697 138.467 35.0424 140.513 34.9581V30.4868H141.954V34.9581C144.014 35.0565 145.609 35.5908 146.736 36.561C147.864 37.5312 148.428 38.867 148.428 40.5683ZM135.543 40.5683C135.543 41.8899 135.961 42.9234 136.796 43.6686C137.645 44.4139 138.885 44.8357 140.513 44.9341V36.2868C138.898 36.3712 137.666 36.7859 136.817 37.5312C135.968 38.2623 135.543 39.2747 135.543 40.5683ZM141.954 44.9341C143.583 44.8497 144.822 44.435 145.671 43.6897C146.535 42.9445 146.966 41.904 146.966 40.5683C146.966 39.2606 146.535 38.2412 145.671 37.5101C144.822 36.779 143.583 36.3712 141.954 36.2868V44.9341ZM155.677 46.2417C154.62 46.2417 153.665 46.0027 152.816 45.5246C151.967 45.0325 151.299 44.3576 150.812 43.4999C150.324 42.6422 150.081 41.672 150.081 40.5894C150.081 39.5067 150.324 38.5365 150.812 37.6788C151.299 36.8211 151.967 36.1532 152.816 35.6752C153.665 35.1971 154.62 34.9581 155.677 34.9581C156.735 34.9581 157.689 35.1971 158.538 35.6752C159.387 36.1532 160.049 36.8211 160.522 37.6788C161.01 38.5365 161.253 39.5067 161.253 40.5894C161.253 41.672 161.01 42.6422 160.522 43.4999C160.049 44.3576 159.387 45.0325 158.538 45.5246C157.689 46.0027 156.735 46.2417 155.677 46.2417ZM155.677 44.913C156.457 44.913 157.153 44.7372 157.766 44.3857C158.392 44.0201 158.88 43.507 159.227 42.8461C159.575 42.1852 159.75 41.433 159.75 40.5894C159.75 39.7457 159.575 38.9935 159.227 38.3326C158.88 37.6718 158.392 37.1656 157.766 36.8141C157.153 36.4485 156.457 36.2657 155.677 36.2657C154.898 36.2657 154.195 36.4485 153.568 36.8141C152.955 37.1656 152.469 37.6718 152.106 38.3326C151.759 38.9935 151.584 39.7457 151.584 40.5894C151.584 41.433 151.759 42.1852 152.106 42.8461C152.469 43.507 152.955 44.0201 153.568 44.3857C154.195 44.7372 154.898 44.913 155.677 44.913ZM169.664 34.9581C170.693 34.9581 171.627 35.1971 172.462 35.6752C173.297 36.1392 173.951 36.8 174.425 37.6577C174.898 38.5154 175.135 39.4926 175.135 40.5894C175.135 41.7001 174.898 42.6844 174.425 43.5421C173.951 44.3998 173.297 45.0677 172.462 45.5457C171.64 46.0097 170.708 46.2417 169.664 46.2417C168.772 46.2417 167.965 46.059 167.241 45.6934C166.531 45.3137 165.946 44.7654 165.487 44.0483V50.2279H164.004V35.0424H165.424V37.2359C165.869 36.5048 166.454 35.9423 167.179 35.5486C167.916 35.155 168.745 34.9581 169.664 34.9581ZM169.559 44.913C170.325 44.913 171.021 44.7372 171.647 44.3857C172.274 44.0201 172.761 43.507 173.109 42.8461C173.471 42.1852 173.652 41.433 173.652 40.5894C173.652 39.7457 173.471 39.0005 173.109 38.3537C172.761 37.6929 172.274 37.1797 171.647 36.8141C171.021 36.4485 170.325 36.2657 169.559 36.2657C168.779 36.2657 168.076 36.4485 167.45 36.8141C166.837 37.1797 166.35 37.6929 165.988 38.3537C165.64 39.0005 165.466 39.7457 165.466 40.5894C165.466 41.433 165.64 42.1852 165.988 42.8461C166.35 43.507 166.837 44.0201 167.45 44.3857C168.076 44.7372 168.779 44.913 169.559 44.913ZM190.181 35.0424V46.1363H188.824V37.3624L184.376 44.7864H183.708L179.26 37.3414V46.1363H177.902V35.0424H179.406L184.063 43.0359L188.803 35.0424H190.181ZM197.763 34.9581C199.197 34.9581 200.296 35.3237 201.063 36.0548C201.828 36.7719 202.211 37.8405 202.211 39.2606V46.1363H200.791V44.4068C200.457 44.9833 199.962 45.4332 199.308 45.7566C198.668 46.08 197.902 46.2417 197.011 46.2417C195.786 46.2417 194.811 45.9464 194.088 45.3559C193.363 44.7654 193.002 43.985 193.002 43.0148C193.002 42.0728 193.336 41.3135 194.004 40.737C194.686 40.1605 195.765 39.8723 197.241 39.8723H200.728V39.1974C200.728 38.2412 200.463 37.5171 199.935 37.025C199.406 36.5188 198.633 36.2657 197.617 36.2657C196.921 36.2657 196.252 36.3852 195.612 36.6243C194.971 36.8492 194.422 37.1656 193.962 37.5734L193.294 36.4555C193.851 35.9775 194.519 35.6119 195.299 35.3588C196.078 35.0917 196.9 34.9581 197.763 34.9581ZM197.241 45.0606C198.076 45.0606 198.793 44.8708 199.392 44.4912C199.99 44.0975 200.436 43.535 200.728 42.8039V40.9901H197.283C195.403 40.9901 194.464 41.651 194.464 42.9726C194.464 43.6194 194.707 44.1326 195.195 44.5123C195.681 44.8779 196.364 45.0606 197.241 45.0606ZM217.184 44.8286V48.9203H215.785V46.1363H205.74V35.0424H207.223V44.8286H213.926V35.0424H215.409V44.8286H217.184ZM219.598 35.0424H221.08V43.8584L228.41 35.0424H229.726V46.1363H228.243V37.3203L220.934 46.1363H219.598V35.0424ZM233.557 35.0424H235.04V43.8584L242.37 35.0424H243.685V46.1363H242.203V37.3203L234.894 46.1363H233.557V35.0424Z" fill="#003865"/>
</svg>
