<svg width="290" height="36" viewBox="0 0 290 36" fill="none" xmlns="http://www.w3.org/2000/svg">
<path d="M13.4584 16.3289V9.85742H17.3426V26.2146H13.4584V20.2003V19.7003H12.9584H4.91474H4.41474V20.2003V26.2146H0.5V9.85742H4.41474V16.3289V16.8289H4.91474H12.9584H13.4584V16.3289Z" fill="#003865" stroke="#003865"/>
<path d="M66.7651 17.7261L62.697 23.486H60.6457L56.547 17.6694L55.6328 16.372L55.6383 17.9592L55.6671 26.2146H51.9678V9.85742H54.7075L61.2583 18.9217L61.6636 19.4825L62.0688 18.9217L68.6196 9.85742H71.3593V26.2146H67.6735V18.0146V16.4399L66.7651 17.7261Z" fill="#003865" stroke="#003865"/>
<path d="M80.0079 12.6146H79.5079V13.1146V16.286V16.786H80.0079H87.75V19.4574H80.0079H79.5079V19.9574V22.9717V23.4717H80.0079H88.9253V26.2288H75.8984V9.85742H88.91V12.6146H80.0079Z" fill="#003865" stroke="#003865"/>
<path d="M48.0513 20.4132V20.4143C48.0513 22.6311 47.3783 24.7116 46.1951 26.5H41.1861C42.7034 24.9961 43.6482 22.9547 43.6482 20.7C43.6482 16.0269 39.6586 12.2857 34.784 12.2857C29.9093 12.2857 25.9198 16.0269 25.9198 20.7C25.9198 22.9547 26.8645 24.9961 28.3818 26.5H23.3728C22.1896 24.7116 21.5166 22.6311 21.5166 20.4143C21.5166 13.8814 27.4236 8.5 34.7992 8.5C42.1745 8.5 48.0659 13.8808 48.0513 20.4132ZM39.8208 27H40.6369L40.4525 26.5C40.2508 26.6762 40.0399 26.8431 39.8208 27Z" fill="#003865" stroke="#003865"/>
<path d="M34.492 25.0563C32.9035 25.0563 31.4897 24.0682 30.7713 22.5848H38.2127C37.4943 24.0682 36.0805 25.0563 34.492 25.0563Z" fill="#003865" stroke="#003865"/>
<path d="M124.493 17.7003V18.2003H124.993H128.519C129.511 18.2003 130.436 17.9535 131.128 17.4811C131.829 17.0027 132.3 16.2812 132.3 15.386C132.3 14.4965 131.832 13.7847 131.13 13.3151C130.439 12.8525 129.515 12.6146 128.519 12.6146H124.993H124.493V13.1146V17.7003ZM124.478 21.5288V26.0003H120.7V9.85742H128.58C130.894 9.85742 132.771 10.4187 134.055 11.3793C135.326 12.3294 136.047 13.6892 136.047 15.386C136.047 17.423 134.963 19.0758 133.066 20.0561L132.54 20.328L132.897 20.801L136.812 26.0003H132.527L129.029 21.2331L128.879 21.0288H128.625H128.595H124.978H124.478V21.5288Z" fill="#003865" stroke="#003865"/>
<path d="M144.393 16.185V16.685H144.893H152.528V19.3135H144.893H144.393V19.8135V22.785V23.285H144.893H153.688V25.985H140.845V9.8421H153.688V12.5421H144.893H144.393V13.0421V13.0564V16.185Z" fill="#003865" stroke="#003865"/>
<path d="M161.349 12.685H160.849V13.185V22.6564V23.1564H161.349H164.217C167.491 23.1711 170.106 20.9282 170.106 17.8707C170.106 14.8892 167.48 12.685 164.218 12.685H161.349ZM173.823 17.8707C173.823 20.2652 172.835 22.2798 171.156 23.7036C169.472 25.1324 167.067 25.985 164.218 25.985H157.209V9.8421H164.218C169.92 9.85616 173.823 13.2112 173.823 17.8707Z" fill="#003865" stroke="#003865"/>
<path d="M181.665 9.85742V26.0003H177.628V9.85742H181.665Z" fill="#003865" stroke="#003865"/>
<path d="M194.495 12.6574H193.995V13.1574V25.986H190.447V13.1574V12.6574H189.947H185.166V9.85742H199.261V12.6574H194.495Z" fill="#003865" stroke="#003865"/>
<path d="M108.568 23.1574C110.671 23.1574 112.287 22.2989 113.134 20.7431H117.023C115.921 23.9062 112.815 26.0003 108.598 26.0003C103.235 26.0003 99.3145 22.5608 99.3145 17.9288C99.3145 13.2969 103.235 9.85742 108.598 9.85742C112.815 9.85742 115.921 11.9515 117.023 15.1146H113.131C112.272 13.5749 110.662 12.7003 108.568 12.7003C106.946 12.7003 105.541 13.2343 104.537 14.1702C103.531 15.1081 102.954 16.4247 102.954 17.9288C102.954 19.433 103.531 20.7496 104.537 21.6875C105.541 22.6234 106.946 23.1574 108.568 23.1574Z" fill="#003865" stroke="#003865"/>
<path d="M215.255 19.0431H214.755V19.5431V23.0003V23.5003H215.255H219.483C220.517 23.5003 221.337 23.2937 221.913 22.8928C222.509 22.4781 222.807 21.8786 222.807 21.2146C222.807 20.5016 222.463 19.9273 221.858 19.5563C221.282 19.2026 220.49 19.0431 219.559 19.0431H215.255ZM215.24 12.3431H214.74V12.8431V16.4288V16.9288H215.24H218.796C219.758 16.9288 220.563 16.7103 221.142 16.2881C221.734 15.8561 222.059 15.2295 222.059 14.5146C222.059 13.796 221.73 13.2168 221.118 12.8446C220.541 12.4934 219.744 12.3431 218.796 12.3431H215.24ZM220.093 26.0431H211.023V9.85742H219.529C221.534 9.85742 223.058 10.2881 224.065 11.0012C225.053 11.701 225.577 12.6923 225.577 13.9289C225.577 15.3319 224.708 16.7599 223.295 17.2254L221.483 17.8221L223.355 18.1908C225.424 18.5987 226.416 20.1369 226.416 21.7717C226.416 23.0323 225.862 24.0761 224.817 24.8218C223.756 25.5786 222.163 26.0431 220.093 26.0431Z" fill="#003865" stroke="#003865"/>
<path d="M240.701 20.5146H241.453L241.162 19.8212L238.736 14.0354L238.275 12.9362L237.813 14.0354L235.387 19.8212L235.096 20.5146H235.848H240.701ZM242.658 23.3911L242.528 23.086H242.197H234.337H234.004L233.875 23.3931L232.767 26.0431H228.965L236.397 9.85742H240.182L247.585 26.0431H243.78L242.658 23.3911Z" fill="#003865" stroke="#003865"/>
<path d="M263.025 19.0288V9.85742H266.787V26.0431H263.819L254.747 16.765L253.89 15.888V17.1146V26.0431H250.112V9.85742H253.047L262.164 19.3747L263.025 20.2736V19.0288Z" fill="#003865" stroke="#003865"/>
<path d="M279.154 19.8138L278.8 19.3774L278.408 19.7799L275.554 22.7084L275.412 22.8541V23.0574V26.0431H271.573V9.85742H275.412V17.2431V18.4665L276.269 17.5933L283.86 9.85742H288.181L281.615 16.5354L281.298 16.8579L281.587 17.2056L288.934 26.0431H284.209L279.154 19.8138Z" fill="#003865" stroke="#003865"/>
</svg>
