<svg width="168" height="24" viewBox="0 0 168 24" fill="none" xmlns="http://www.w3.org/2000/svg">
<path d="M15.2504 11.8C15.74 11.5018 16.1532 11.0934 16.4571 10.6073C16.7609 10.1212 16.9469 9.57077 17.0004 9C17.0097 8.48388 16.9172 7.971 16.7282 7.49063C16.5392 7.01027 16.2575 6.57184 15.899 6.20039C15.5406 5.82894 15.1124 5.53174 14.6391 5.32578C14.1658 5.11981 13.6565 5.00911 13.1404 5H6.65039V19H13.6504C14.1415 18.9948 14.6269 18.8929 15.0786 18.7001C15.5304 18.5073 15.9397 18.2274 16.2833 17.8764C16.6269 17.5253 16.898 17.1101 17.0811 16.6543C17.2642 16.1985 17.3557 15.7112 17.3504 15.22V15.1C17.3507 14.4071 17.1533 13.7285 16.7813 13.144C16.4093 12.5594 15.8782 12.0931 15.2504 11.8ZM8.65039 7H12.8504C13.2766 6.98681 13.6966 7.10428 14.0541 7.33665C14.4116 7.56902 14.6894 7.90517 14.8504 8.3C15.0133 8.82779 14.9606 9.39859 14.7039 9.88765C14.4472 10.3767 14.0073 10.7443 13.4804 10.91C13.2758 10.97 13.0636 11.0003 12.8504 11H8.65039V7ZM13.2504 17H8.65039V13H13.2504C13.6766 12.9868 14.0966 13.1043 14.4541 13.3367C14.8116 13.569 15.0894 13.9052 15.2504 14.3C15.4133 14.8278 15.3606 15.3986 15.1039 15.8877C14.8472 16.3767 14.4073 16.7443 13.8804 16.91C13.6758 16.97 13.4636 17.0003 13.2504 17Z" fill="black"/>
<path d="M59.7596 9H61.7596L59.5596 19H57.5596L59.7596 9ZM61.4396 5C61.2418 5 61.0484 5.05865 60.884 5.16853C60.7196 5.27841 60.5914 5.43459 60.5157 5.61732C60.44 5.80004 60.4202 6.00111 60.4588 6.19509C60.4974 6.38907 60.5926 6.56725 60.7325 6.70711C60.8723 6.84696 61.0505 6.9422 61.2445 6.98079C61.4385 7.01937 61.6395 6.99957 61.8223 6.92388C62.005 6.84819 62.1612 6.72002 62.271 6.55557C62.3809 6.39112 62.4396 6.19778 62.4396 6C62.4396 5.73478 62.3342 5.48043 62.1467 5.29289C61.9591 5.10536 61.7048 5 61.4396 5Z" fill="black"/>
<path d="M115 20V22H101V20H115ZM112 13.215C111.967 13.875 111.771 14.5165 111.43 15.0823C111.088 15.6481 110.612 16.1205 110.044 16.4572C109.475 16.794 108.832 16.9847 108.172 17.0122C107.511 17.0397 106.855 16.9033 106.26 16.615C105.575 16.3185 104.993 15.8241 104.591 15.1952C104.188 14.5663 103.982 13.8315 104 13.085V5.005H102V13.215C102.034 14.1564 102.289 15.0766 102.744 15.9012C103.2 16.7257 103.843 17.4314 104.622 17.9611C105.401 18.4908 106.294 18.8296 107.228 18.9502C108.163 19.0707 109.112 18.9696 110 18.655C111.181 18.2613 112.206 17.5012 112.925 16.485C113.645 15.4689 114.021 14.2498 114 13.005V5.005H112V13.215ZM112 5H114H112ZM104 5H102H104Z" fill="black"/>
<path d="M157.55 19H159.55L154.55 5H152.55L147.55 19H149.55L150.95 15H156.05L157.55 19ZM151.65 13L153.55 7.8L155.45 13H151.65ZM164.45 17.5C164.45 17.7967 164.362 18.0867 164.197 18.3334C164.032 18.58 163.798 18.7723 163.524 18.8858C163.25 18.9993 162.948 19.0291 162.657 18.9712C162.366 18.9133 162.099 18.7704 161.889 18.5607C161.679 18.3509 161.537 18.0836 161.479 17.7926C161.421 17.5017 161.45 17.2001 161.564 16.926C161.678 16.6519 161.87 16.4176 162.116 16.2528C162.363 16.088 162.653 16 162.95 16C163.348 16 163.729 16.158 164.01 16.4393C164.292 16.7206 164.45 17.1022 164.45 17.5ZM164.45 13.5C164.45 13.7967 164.362 14.0867 164.197 14.3334C164.032 14.58 163.798 14.7723 163.524 14.8858C163.25 14.9994 162.948 15.0291 162.657 14.9712C162.366 14.9133 162.099 14.7704 161.889 14.5607C161.679 14.3509 161.537 14.0836 161.479 13.7926C161.421 13.5017 161.45 13.2001 161.564 12.926C161.678 12.6519 161.87 12.4176 162.116 12.2528C162.363 12.088 162.653 12 162.95 12C163.348 12 163.729 12.158 164.01 12.4393C164.292 12.7206 164.45 13.1022 164.45 13.5ZM164.45 9.5C164.45 9.79667 164.362 10.0867 164.197 10.3334C164.032 10.58 163.798 10.7723 163.524 10.8858C163.25 10.9994 162.948 11.0291 162.657 10.9712C162.366 10.9133 162.099 10.7704 161.889 10.5607C161.679 10.3509 161.537 10.0836 161.479 9.79264C161.421 9.50166 161.45 9.20006 161.564 8.92597C161.678 8.65189 161.87 8.41762 162.116 8.2528C162.363 8.08797 162.653 8 162.95 8C163.348 8 163.729 8.15804 164.01 8.43934C164.292 8.72064 164.45 9.10218 164.45 9.5Z" fill="black"/>
</svg>
