<svg width="120" height="24" viewBox="0 0 120 24" fill="none" xmlns="http://www.w3.org/2000/svg">
<path d="M3 18H9V16H3V18ZM3 11V13H15V11H3ZM3 6V8H21V6H3Z" fill="black"/>
<path d="M57 18H63V16H57V18ZM54 11V13H66V11H54ZM51 6V8H69V6H51Z" fill="black"/>
<path d="M98.5 16H100.5V16.5H99.5V17.5H100.5V18H98.5V19H101.5V15H98.5V16ZM99.5 9H100.5V5H98.5V6H99.5V9ZM98.5 11H100.3L98.5 13.1V14H101.5V13H99.7L101.5 10.9V10H98.5V11ZM103.5 6V8H117.5V6H103.5ZM103.5 18H117.5V16H103.5V18ZM103.5 13H117.5V11H103.5V13Z" fill="black"/>
</svg>
