<svg width="25" height="25" viewBox="0 0 25 25" fill="none" xmlns="http://www.w3.org/2000/svg">
<path d="M16.6621 18.7939C16.6621 19.1399 16.9229 19.4198 17.2441 19.4198H19.5713C19.8926 19.4198 20.1533 19.1399 20.1533 18.7939C20.1533 18.7939 20.1493 14.8113 20.1415 14.7705C20.0873 14.4855 19.8525 14.2708 19.5714 14.2708H17.244C16.9629 14.2708 16.7282 14.4855 16.6739 14.7705C16.6662 14.8113 16.6621 18.7939 16.6621 18.7939Z" fill="#FF5561"/>
<path d="M4.8457 18.7939C4.8457 19.1399 5.10645 19.4198 5.42773 19.4198H7.75488C8.07617 19.4198 8.33691 19.1399 8.33691 18.7939C8.33691 18.7939 8.34175 14.8582 8.3251 14.7705C8.27085 14.4855 8.03613 14.2708 7.75503 14.2708H5.42759C5.1064 14.2708 4.8457 14.5511 4.8457 14.8967V18.7939Z" fill="#FF5561"/>
<path d="M21.6186 17.634V18.794C21.6186 20.0074 20.7007 20.9951 19.5718 20.9951H17.2446C16.1294 20.9951 15.2202 20.0316 15.1982 18.8386C14.3003 18.9473 13.3979 19.0019 12.5 19.0019C11.602 19.0019 10.6997 18.9473 9.80176 18.8386C9.77978 20.0316 8.8706 20.9951 7.75537 20.9951H5.42822C4.29932 20.9951 3.38135 20.0074 3.38135 18.794V17.634C1.80396 17.3218 1.76372 17.3228 1.46484 17.2239V22.5163C1.46484 23.8858 2.50098 25 3.7749 25H21.2251C22.499 25 23.5352 23.8858 23.5352 22.5163V17.2239C23.2373 17.3225 23.1984 17.3212 21.6186 17.634Z" fill="#FF5561"/>
<path d="M24.2676 3.67563H18.4524L17.3403 1.81366C16.6621 0.677891 15.5073 0 14.252 0H10.748C9.49268 0 8.33789 0.677891 7.65967 1.81366L6.54761 3.67563H0.732422C0.328125 3.67563 0 4.02797 0 4.46327V12.9592C0 14.3518 0.924805 15.5458 2.19824 15.7979L3.38135 16.0321V14.8963C3.38135 13.6823 4.29932 12.6951 5.42822 12.6951H7.75537C8.88428 12.6951 9.80225 13.6823 9.80225 14.8963V17.2524C10.6997 17.3684 11.5996 17.4262 12.5 17.4262C13.3999 17.4262 14.3003 17.3684 15.1978 17.2524V14.8963C15.1978 13.6823 16.1157 12.6951 17.2446 12.6951H19.5718C20.7007 12.6951 21.6187 13.6823 21.6187 14.8963V16.0321L22.8013 15.7979C24.0752 15.5458 25 14.3518 25 12.9592V4.46327C25 4.02797 24.6719 3.67563 24.2676 3.67563ZM8.28857 3.67563L8.89209 2.66536C9.2998 1.98274 9.99365 1.57527 10.748 1.57527H14.252C15.0063 1.57527 15.7002 1.98274 16.1079 2.66536L16.7114 3.67563H8.28857Z" fill="#FF5561"/>
</svg>
