<svg width="25" height="25" viewBox="0 0 25 25" fill="none" xmlns="http://www.w3.org/2000/svg">
<path d="M25 12.5C25 19.4036 19.4036 25 12.5 25C5.59644 25 0 19.4036 0 12.5C0 5.59644 5.59644 0 12.5 0C19.4036 0 25 5.59644 25 12.5Z" fill="#FF5561"/>
<path fill-rule="evenodd" clip-rule="evenodd" d="M13.0635 19.8259C16.1818 19.5509 18.624 17.03 18.624 13.9608C18.624 13.4272 18.5322 12.8848 18.3711 12.3438L13.0635 17.7912V19.8259ZM11.838 19.8171C8.7636 19.5013 6.36914 16.9998 6.36914 13.9608C6.36914 13.4819 6.44729 12.9924 6.58593 12.501L11.838 17.6183V19.8171ZM13.0635 16.0351L17.8808 11.0908C17.4713 10.2359 16.9282 9.40476 16.3443 8.63924L13.0635 12.0065V16.0351ZM11.838 11.9919V15.9072L7.05876 11.2507C7.45459 10.4043 7.98691 9.57337 8.56406 8.80199L11.838 11.9919ZM13.0635 10.2504L15.567 7.681C14.6081 6.56476 13.6484 5.66159 13.0635 5.14123V10.2504ZM12.4979 4.65573C12.497 4.65502 12.4966 4.65466 12.4966 4.65466C12.4966 4.65466 12.4962 4.65502 12.4953 4.65573H12.4979ZM11.838 5.23491V10.2809L9.33075 7.83799C10.2724 6.71889 11.2269 5.79411 11.838 5.23491Z" fill="white"/>
</svg>
