<svg width="25" height="25" viewBox="0 0 25 25" fill="none" xmlns="http://www.w3.org/2000/svg">
<path d="M15.4811 0H2.19764C0.981562 0 0 1.11673 0 2.50026V12.5013C0 13.8847 0.981562 15.0015 2.19764 15.0015H2.93018V17.5018C2.93018 18.1039 3.47817 18.54 4.01435 18.2352C4.029 18.2185 4.05835 18.2185 4.073 18.2018C8.10278 15.1273 7.19965 15.8128 8.102 15.1348C8.21916 15.0515 8.35101 15.0015 8.49752 15.0015H15.4811C16.6972 15.0015 17.6788 13.8847 17.6788 12.5013V2.50026C17.6788 1.11673 16.6972 0 15.4811 0ZM9.62076 10.001H3.66273C2.69708 10.001 2.69313 8.33419 3.66273 8.33419H9.62076C10.5864 8.33419 10.5904 10.001 9.62076 10.001ZM14.016 6.66735H3.66273C2.69708 6.66735 2.69313 5.00051 3.66273 5.00051H14.016C14.9817 5.00051 14.9856 6.66735 14.016 6.66735Z" fill="#FF5561"/>
<path d="M22.8024 6.66724H19.1397V12.5012C19.1397 14.8014 17.4988 16.6683 15.477 16.6683H8.71312L7.32129 17.7184V19.1685C7.32129 20.5519 8.30285 21.6688 9.51892 21.6688H16.7222L20.927 24.8691C21.501 25.2316 22.0699 24.7907 22.0699 24.169V21.6688H22.8024C24.0185 21.6688 25 20.5519 25 19.1685V9.16749C25 7.78402 24.0185 6.66724 22.8024 6.66724Z" fill="#FF5561"/>
</svg>
