<svg width="26" height="25" viewBox="0 0 26 25" fill="none" xmlns="http://www.w3.org/2000/svg">
<path d="M12.9 19.8837C12.2399 19.8837 11.5998 19.7955 10.99 19.632C10.3706 19.466 9.78328 19.2203 9.23832 18.9081C8.11639 18.2645 7.1787 17.3356 6.52475 16.2206C6.19517 15.6593 5.93826 15.0512 5.76612 14.4077C5.60263 13.7979 5.5144 13.1587 5.5144 12.4978C5.5144 11.837 5.60263 11.1978 5.76612 10.588C5.93826 9.94533 6.19604 9.3364 6.52475 8.77504C7.1787 7.6601 8.11639 6.73113 9.23832 6.0876C9.78242 5.77535 10.3698 5.5297 10.99 5.36363C11.5998 5.20015 12.2391 5.11193 12.9 5.11193C13.56 5.11193 14.2001 5.20015 14.8099 5.36363C15.4526 5.53576 16.0616 5.79352 16.623 6.1222C17.738 6.77611 18.6671 7.71373 19.3106 8.83559C19.6229 9.37965 19.8677 9.96696 20.0338 10.5871C20.1973 11.1969 20.2855 11.8361 20.2855 12.497C20.2855 13.0168 20.2302 13.5237 20.1272 14.0133L21.9533 15.8392C22.1246 15.3773 22.263 14.899 22.3624 14.4068H24.7335C25.102 14.4068 25.4004 14.1084 25.4004 13.7399V11.0655C25.4004 10.8016 25.1867 10.5871 24.922 10.5871H22.3624C22.1142 9.3537 21.628 8.20503 20.9568 7.18957L22.6661 5.4804C22.9264 5.22005 22.9264 4.79794 22.6661 4.53759L20.7751 2.64678C20.5883 2.45995 20.2855 2.45995 20.0995 2.64678L18.2666 4.4805C17.2363 3.7894 16.0668 3.29032 14.8091 3.03688V0.666886C14.8091 0.298412 14.5106 0 14.1421 0H11.4675C11.2036 0 10.9891 0.213646 10.9891 0.478324V3.03775C9.7556 3.28599 8.60685 3.7721 7.59132 4.44331L5.93048 2.78258C5.6701 2.52223 5.24797 2.52223 4.9876 2.78258L3.09753 4.67339C2.91068 4.86022 2.91068 5.16296 3.09753 5.34979L4.8812 7.13248C4.19005 8.16265 3.69093 9.33208 3.43748 10.5897H1.06732C0.698823 10.5897 0.400391 10.8881 0.400391 11.2566V13.7425C0.400391 14.111 0.698823 14.4094 1.06732 14.4094H3.43835C3.6918 15.6671 4.19005 16.8365 4.88207 17.8667L3.23161 19.517C2.97124 19.7774 2.97124 20.1995 3.23161 20.4598L4.98933 22.2174C5.2497 22.4778 5.67183 22.4778 5.93221 22.2174L7.59305 20.5567C8.60858 21.2279 9.75733 21.7131 10.9909 21.9623V24.3331C10.9909 24.7016 11.2893 25 11.6578 25H14.1439C14.5124 25 14.8108 24.7016 14.8108 24.3331V21.9623C15.303 21.8628 15.7813 21.7253 16.2441 21.554L14.4172 19.7272C13.9267 19.8284 13.4198 19.8837 12.9 19.8837Z" fill="#FF5561"/>
<path d="M16.1608 9.5849C14.8079 8.2321 12.8062 7.92504 11.1575 8.66198L14.4178 11.922C14.692 12.1962 14.692 12.6399 14.4178 12.9141L13.1479 14.1839C12.8737 14.4581 12.43 14.4581 12.1557 14.1839L8.89547 10.9239C8.15847 12.5725 8.46555 14.574 9.81845 15.9268C11.1013 17.2095 12.968 17.5521 14.5631 16.9552L18.2775 20.6694C19.0024 21.3942 20.1788 21.3942 20.9037 20.6694C21.6286 19.9445 21.6286 18.7682 20.9037 18.0434L17.1893 14.3292C17.7853 12.7342 17.4436 10.8676 16.1608 9.5849Z" fill="#FF5561"/>
</svg>
