<svg width="25" height="25" viewBox="0 0 25 25" fill="none" xmlns="http://www.w3.org/2000/svg">
<path d="M6.2947 10.3298C6.20886 10.5989 6.27966 10.8943 6.4778 11.0927L8.94045 13.5652L8.37395 17.0413C8.32814 17.3206 8.44118 17.6015 8.66579 17.7678C8.88894 17.9348 9.18649 17.9559 9.43396 17.8269L12.5009 16.2033L15.568 17.8269C15.82 17.9597 16.1171 17.931 16.3362 17.7678C16.5608 17.6015 16.6738 17.3207 16.628 17.0413L16.0615 13.5652L18.5241 11.0927C18.7223 10.8943 18.7931 10.5989 18.7072 10.3298C18.6214 10.0606 18.394 9.86372 18.12 9.8214L14.7018 9.297L13.1562 6.14398C12.9072 5.6378 12.0947 5.6378 11.8458 6.14398L10.3002 9.297L6.88195 9.8214C6.60798 9.86367 6.38049 10.0606 6.2947 10.3298Z" fill="#FF5561"/>
<path d="M20.0153 21.2142C21.0211 22.3611 21.2555 23.9248 21.2662 24.0038C21.3199 24.3802 21.0874 24.7383 20.7262 24.8339C20.3022 24.9469 19.8135 25.0063 19.3117 24.9995C18.4564 24.9878 17.5628 24.7837 16.886 24.3255C15.8776 23.6428 15.3721 22.5076 15.1318 21.7349C14.284 21.9838 13.4019 22.1265 12.5 22.1265C11.5851 22.1265 10.6904 21.9805 9.83198 21.7248C9.59517 22.499 9.10376 23.609 8.12271 24.2898C7.44243 24.7628 6.5499 24.9726 5.71069 24.9956C5.19638 25.0097 4.7021 24.9536 4.28896 24.8449C3.92632 24.753 3.6896 24.3985 3.73891 24.0215C3.74907 23.9422 3.96699 22.3641 4.96889 21.2043C5.1646 20.9778 5.39023 20.7672 5.65005 20.5869C5.97944 20.3574 6.33393 20.2111 6.68867 20.1031C6.30117 19.798 5.9416 19.4537 5.60049 19.0867C4.45859 19.32 3.17182 19.2592 2.17461 18.6461C0.526657 17.6337 0.0310022 15.3564 0.0131311 15.2631C-0.0569861 14.8889 0.160494 14.5213 0.517379 14.409C0.584811 14.3865 1.87265 14.0766 3.17612 14.3285C3.06518 13.7624 3.00561 13.1863 2.99487 12.6026C2.28711 12.3006 0.978952 11.6309 0.383151 10.3911C-0.463725 8.63048 0.352389 6.53064 0.387448 6.44236C0.528366 6.09009 0.903171 5.90118 1.26508 6.0033C1.34526 6.02665 3.12241 6.53198 4.09057 7.88307C4.37246 7.34049 4.70854 6.83013 5.08559 6.35084C4.78061 5.65118 4.31894 4.25966 4.74521 2.90644C5.33389 1.03853 7.35019 0.104244 7.4353 0.0655561C7.77861 -0.0897922 8.17773 0.0422041 8.36587 0.370427C8.41309 0.452832 9.51743 2.40972 8.92944 4.27689C8.43755 5.83774 6.96235 6.73757 6.43642 7.01675C4.99258 8.70188 4.33794 10.9777 4.4456 12.2768C4.46084 12.4605 4.32055 14.1716 5.40947 16.3151C6.86142 19.0171 9.57881 20.6329 12.5 20.6329C15.4456 20.6329 18.1871 18.9852 19.6292 16.2412C20.6745 14.1298 20.5392 12.4662 20.5542 12.2837C20.6515 11.0991 20.0945 8.83806 18.6045 7.06803C18.1515 6.83247 16.5547 5.90297 16.0505 4.26967C15.4733 2.39887 16.5906 0.44855 16.6385 0.366145C16.828 0.039366 17.2272 -0.0911864 17.5705 0.0670997C17.6556 0.106484 19.6662 1.05466 20.2427 2.92546C20.6542 4.25927 20.2071 5.62066 19.8981 6.32928C20.2817 6.8147 20.6233 7.33223 20.9092 7.88237C21.8784 6.53124 23.6569 6.02605 23.7371 6.00335C24.0983 5.90198 24.4746 6.09088 24.614 6.44241C24.6491 6.53138 25.4637 8.63197 24.6154 10.3919C24.0196 11.629 22.714 12.298 22.0055 12.6001C21.9948 13.18 21.9357 13.7522 21.8262 14.3147C23.1318 14.0701 24.4183 14.3876 24.4868 14.409C24.843 14.5235 25.0583 14.8926 24.9861 15.266C24.9675 15.3594 24.4598 17.6352 22.8068 18.6366C21.8174 19.2361 20.5536 19.2954 19.42 19.0658C19.0649 19.4499 18.6895 19.8093 18.2838 20.126C18.6355 20.2293 18.9873 20.3697 19.3157 20.592C19.5826 20.7726 19.8144 20.9851 20.0153 21.2142Z" fill="#FF5561"/>
</svg>
