<svg width="75" height="88" viewBox="0 0 75 88" fill="none" xmlns="http://www.w3.org/2000/svg">
<path fill-rule="evenodd" clip-rule="evenodd" d="M37.8905 32.8299L21.7818 79.4584L32.1088 25.5075C33.2005 26.5144 34.5509 27.2072 36.0134 27.5108H36.2516V27.5902H36.7173V27.6662H37.8204V27.7422H37.9745V27.6662H38.9901L39.0671 27.5902H39.5364V27.5108H39.6939C41.1865 27.2248 42.5675 26.5306 43.6791 25.5075L53.9852 79.4411L37.8905 32.8299ZM36.2516 0H39.4523C39.4932 0.00334586 39.5315 0.0213543 39.5599 0.0506257C39.5883 0.079897 39.6048 0.118406 39.6064 0.158882V10.9421C39.0385 10.8539 38.4652 10.8031 37.8905 10.7902C37.3143 10.7995 36.7397 10.8503 36.171 10.9421V0.158882C36.171 0.0794411 36.171 0 36.2516 0ZM37.8905 10.7902C39.5901 10.7902 41.2516 11.2873 42.6648 12.2186C44.0781 13.15 45.1795 14.4738 45.83 16.0226C46.4804 17.5714 46.6506 19.2756 46.319 20.9198C45.9874 22.564 45.1689 24.0742 43.9671 25.2596C42.7652 26.445 41.234 27.2523 39.567 27.5793C37.9 27.9064 36.1721 27.7385 34.6018 27.097C33.0315 26.4555 31.6894 25.3691 30.7451 23.9752C29.8008 22.5813 29.2968 20.9426 29.2968 19.2662C29.2941 18.1523 29.5144 17.0489 29.9453 16.0193C30.3762 14.9897 31.0091 14.0543 31.8077 13.2666C32.6062 12.479 33.5547 11.8548 34.5985 11.4298C35.6424 11.0048 36.7612 10.7874 37.8905 10.7902ZM37.8905 16.6619C38.2401 16.6591 38.5868 16.7251 38.9104 16.8559C39.2339 16.9867 39.5278 17.1798 39.7749 17.4238C40.022 17.6678 40.2174 17.9579 40.3496 18.2772C40.4818 18.5965 40.5482 18.9386 40.5449 19.2835C40.5579 19.6355 40.4987 19.9865 40.3711 20.3155C40.2435 20.6445 40.0499 20.9448 39.802 21.1984C39.554 21.452 39.2568 21.6536 38.9281 21.7914C38.5994 21.9292 38.2459 22.0002 37.8887 22.0002C37.5315 22.0002 37.178 21.9292 36.8493 21.7914C36.5206 21.6536 36.2234 21.452 35.9755 21.1984C35.7275 20.9448 35.534 20.6445 35.4063 20.3155C35.2787 19.9865 35.2196 19.6355 35.2325 19.2835C35.2297 18.9384 35.2966 18.5963 35.4291 18.277C35.5617 17.9577 35.7574 17.6676 36.0048 17.4236C36.2522 17.1796 36.5463 16.9866 36.87 16.8558C37.1938 16.7251 37.5406 16.6591 37.8905 16.6619ZM75.0105 70.5437C70.457 76.0119 64.7307 80.4159 58.2438 83.4386C51.757 86.4613 44.6713 88.0274 37.497 88.0241C30.3227 88.0208 23.2384 86.4482 16.7544 83.4195C10.2705 80.3908 4.54829 75.9815 0 70.5091C2.10113 70.5091 1.79647 70.1223 3.20423 71.6628C7.62278 76.31 12.9655 80.0087 18.8985 82.5277C24.8316 85.0467 31.2276 86.3319 37.687 86.3031C44.1463 86.2742 50.5303 84.9319 56.44 82.36C62.3497 79.7881 67.6582 76.0419 72.0339 71.3554C73.2035 70.1223 73.2806 70.5091 75 70.5091L75.0105 70.5437Z" fill="#FF5561"/>
</svg>
