<svg width="75" height="75" viewBox="0 0 75 75" fill="none" xmlns="http://www.w3.org/2000/svg">
<path fill-rule="evenodd" clip-rule="evenodd" d="M57.457 31.7455L30.7993 58.2178L29.6959 45.6272L29.6273 35.6784L29.4927 27.1398L29.4187 27.0751L30.1103 1.96129L38.676 9.95136L36.6012 10.4921L38.8792 12.9942C44.7524 19.6284 50.9661 25.5848 57.3883 31.6756L57.457 31.7455ZM19.4752 70.0605L13.9505 63.0201L16.2971 60.4482L19.4752 70.0605ZM67.6777 7.04047L75 14.0783L64.9192 16.6477L67.6777 7.04047ZM27.3493 25.1785L16.1572 14.8908L2.48654 16.3786L0 13.7394L14.5734 14.1456L0.411783 0H28.1069L27.3493 25.1785ZM27.4153 28.0247L27.4865 35.6733L27.5552 43.1769L4.28149 18.2752L15.3996 17.0565L27.4153 28.0247ZM58.8401 30.2551C52.0035 23.6882 46.9618 18.9505 40.4023 11.6254L65.954 5.33534L58.8401 30.2551ZM28.8671 60.1791L25.3405 63.1572L27.7584 72.4953L23.1338 65.931L23.3449 75L17.8862 58.699L26.3119 49.4204L5.66202 27.7531L12.0869 29.6471L27.6264 46.2999L28.8671 60.1791Z" fill="#FF5561"/>
</svg>
