<svg width="75" height="75" viewBox="0 0 75 75" fill="none" xmlns="http://www.w3.org/2000/svg">
<path fill-rule="evenodd" clip-rule="evenodd" d="M8.2876 45.6824C8.97031 47.9762 9.89642 50.1903 11.0501 52.2871L7.75121 56.4631C7.20851 57.1147 6.92829 57.9452 6.96532 58.7924C7.00236 59.6396 7.35399 60.4425 7.9515 61.0443L13.6791 66.7719C14.2811 67.3688 15.0837 67.7202 15.9306 67.7576C16.7775 67.7951 17.608 67.5159 18.2603 66.9745L22.4386 63.6733C24.5709 64.9265 26.8557 65.8998 29.2367 66.5693L29.8444 71.9608C29.9421 72.8015 30.3471 73.5764 30.9816 74.1365C31.616 74.6966 32.4352 75.0023 33.2815 74.995H41.3641C42.2107 75.0024 43.0301 74.6967 43.6649 74.1367C44.2998 73.5766 44.7053 72.8017 44.8035 71.9608L45.4089 66.7719C47.9512 66.0962 50.3973 65.0998 52.6881 63.8068L56.7283 67.0412C57.3833 67.5578 58.2052 67.8158 59.0379 67.7661C59.8706 67.7165 60.6561 67.3626 61.245 66.7719L66.9703 61.0443C67.5764 60.4506 67.9398 59.6526 67.9895 58.8057C68.0393 57.9588 67.772 57.1237 67.2397 56.4631L64.1503 52.4874C65.439 50.2453 66.434 47.8468 67.1108 45.3509L71.9613 44.7431C72.7963 44.6611 73.5706 44.2704 74.1327 43.6474C74.6948 43.0245 75.0041 42.2142 75.0001 41.3752V33.2165C74.9938 32.3804 74.681 31.5757 74.1209 30.9549C73.5608 30.3341 72.7923 29.9404 71.9613 29.8486L67.1798 29.3099C66.5484 26.8187 65.5966 24.4198 64.3483 22.1734L67.2466 18.4693C67.7645 17.8153 68.0233 16.9934 67.9736 16.1607C67.9239 15.3279 67.5692 14.5427 66.9772 13.9549L61.2519 8.22037C60.6713 7.61506 59.8836 7.25109 59.0463 7.20116C58.209 7.15122 57.3837 7.41901 56.7352 7.95102L53.0979 10.7803C50.7835 9.40695 48.2884 8.36398 45.6852 7.68168L45.1442 3.03144C45.0465 2.19139 44.6417 1.41708 44.0077 0.857414C43.3737 0.297745 42.5551 -0.00778083 41.7094 -0.000419321H33.6222C32.7768 -0.00676018 31.9588 0.299122 31.3249 0.8586C30.6911 1.41808 30.2861 2.19179 30.1874 3.03144L29.6488 7.68168C26.976 8.40608 24.4142 9.49031 22.0334 10.9046L18.2603 7.95102C17.5925 7.43598 16.7612 7.1796 15.9193 7.22909C15.0775 7.27859 14.2819 7.63063 13.6791 8.22037L7.9515 13.9457C7.35256 14.5466 6.99995 15.3498 6.96289 16.1974C6.92583 17.0451 7.20701 17.8759 7.75121 18.5269L10.8498 22.4404C9.58374 24.6784 8.63098 27.0797 8.01826 29.5769L3.03192 30.1824C2.20132 30.2759 1.4339 30.6709 0.875101 31.2925C0.3163 31.9141 0.00494937 32.7191 5.54895e-05 33.5549V41.7044C-0.00475411 42.5429 0.303248 43.3532 0.863892 43.9769C1.42454 44.6005 2.19755 44.9927 3.03192 45.0769L8.2876 45.6824ZM30.6617 37.7309C30.4875 37.7594 30.3297 37.8504 30.2179 37.9868C30.106 38.1233 30.0477 38.2959 30.0539 38.4722C30.0642 38.5661 30.0935 38.6569 30.1403 38.739C30.187 38.8211 30.2501 38.8928 30.3256 38.9495C30.4011 39.0063 30.4875 39.0469 30.5793 39.069C30.6712 39.091 30.7666 39.094 30.8597 39.0777C31.4007 39.0109 33.5577 38.8774 33.8271 39.8212C33.848 39.9133 33.8884 39.9997 33.9455 40.0749C34.0026 40.15 34.0752 40.212 34.1583 40.2567C34.2414 40.3014 34.3331 40.3278 34.4273 40.3341C34.5214 40.3404 34.6158 40.3264 34.7042 40.2932C34.8682 40.24 35.0065 40.1273 35.0917 39.9774C35.1769 39.8274 35.2029 39.651 35.1646 39.4828C34.7042 37.9335 32.9384 37.6642 31.7299 37.6642C31.1889 37.6642 30.786 37.7309 30.6525 37.7309H30.6617ZM19.4735 38.4055C19.3598 38.5328 19.2991 38.6988 19.304 38.8694C19.3089 39.04 19.379 39.2023 19.4999 39.3229C19.6207 39.4434 19.7832 39.5131 19.9538 39.5176C20.1244 39.5221 20.2903 39.461 20.4173 39.347C20.5509 39.2803 22.1669 37.5307 21.8976 32.8137C22.0334 31.8007 22.777 29.105 24.2572 28.9001C24.3493 28.9018 24.4405 28.8827 24.5241 28.8442C24.6077 28.8057 24.6815 28.7487 24.7399 28.6777C24.7984 28.6066 24.84 28.5232 24.8617 28.4337C24.8833 28.3443 24.8845 28.2511 24.865 28.1611C24.8384 27.9978 24.7568 27.8485 24.6337 27.7379C24.5106 27.6274 24.3534 27.5623 24.1882 27.5534H24.1214C21.2921 27.9631 20.5509 32.4753 20.5509 32.6894V32.8252C20.8202 36.9344 19.5402 38.3502 19.4735 38.417V38.4055ZM24.5957 24.3212C24.7589 24.3981 24.9446 24.4132 25.1181 24.3637C25.2917 24.3142 25.4414 24.2034 25.5395 24.0519C26.8172 21.9639 29.5129 18.6627 31.1981 19.0655C31.2863 19.0866 31.378 19.0892 31.4672 19.0731C31.5565 19.057 31.6415 19.0225 31.7168 18.9719C31.7921 18.9213 31.856 18.8556 31.9046 18.779C31.9533 18.7024 31.9854 18.6165 31.9992 18.5269C32.1327 18.1907 31.8634 17.8546 31.525 17.7188H30.9218C27.8877 17.7188 24.7223 22.7834 24.3816 23.3797C24.294 23.5343 24.2664 23.7159 24.3042 23.8896C24.342 24.0633 24.4425 24.2169 24.5864 24.3212H24.5957ZM29.8513 23.6467C29.6724 23.6828 29.515 23.7884 29.4136 23.9402C29.3122 24.0921 29.2751 24.2779 29.3103 24.4571C29.3429 24.6246 29.4377 24.7735 29.5757 24.8739C29.7136 24.9743 29.8845 25.0186 30.0539 24.998C30.1874 24.998 33.4887 24.4571 34.3657 21.0845C34.4034 20.9145 34.3754 20.7366 34.2875 20.5863C34.1996 20.4361 34.0581 20.3246 33.8915 20.2741L33.6935 20.2074C33.5454 20.2133 33.4039 20.2702 33.2927 20.3683C33.1816 20.4664 33.1077 20.5998 33.0835 20.7461C32.4113 23.2392 29.9872 23.6421 29.8605 23.6421L29.8513 23.6467ZM31.4006 41.7734L31.129 41.8402C30.9625 41.9072 30.8279 42.0354 30.753 42.1985C30.678 42.3617 30.6684 42.5473 30.7261 42.7173C32.5448 46.9623 30.8597 53.3645 30.8597 53.3645C30.8232 53.5428 30.8507 53.7282 30.9374 53.8883C31.0242 54.0483 31.1646 54.1726 31.3339 54.2393C31.5214 54.2771 31.7163 54.2426 31.8794 54.1427C32.0426 54.0428 32.1618 53.8848 32.2133 53.7006C32.2754 53.4312 33.9606 46.8933 32.0084 42.2453C31.9598 42.1197 31.8773 42.0101 31.7699 41.9288C31.6626 41.8475 31.5347 41.7977 31.4006 41.7849V41.7734ZM28.5714 36.0458C28.9052 35.979 29.1745 36.0458 29.5843 36.3175C29.6595 36.3668 29.7437 36.4006 29.8321 36.4171C29.9205 36.4335 30.0113 36.4321 30.0992 36.413C30.1871 36.3939 30.2703 36.3575 30.3439 36.306C30.4176 36.2544 30.4802 36.1886 30.5282 36.1126C30.6234 35.9599 30.6553 35.776 30.617 35.6002C30.5788 35.4243 30.4734 35.2703 30.3233 35.171C29.8949 34.8552 29.3726 34.693 28.8407 34.7106C28.6139 34.6967 28.3863 34.7184 28.1662 34.775C26.8862 35.1135 26.2785 36.5937 26.2094 36.7295C25.2679 38.951 24.4598 38.8866 24.3908 38.8866C24.307 38.8544 24.2176 38.8393 24.1279 38.8422C24.0381 38.8451 23.9499 38.8659 23.8684 38.9035C23.7868 38.941 23.7136 38.9945 23.6531 39.0608C23.5926 39.1271 23.546 39.2048 23.516 39.2895C23.4861 39.4659 23.515 39.6473 23.5981 39.8057C23.6813 39.9642 23.8142 40.0909 23.9764 40.1666C24.1767 40.2333 25.9976 40.7052 27.4802 37.2659C27.5469 36.9966 28.0189 36.2576 28.5599 36.055L28.5714 36.0458ZM24.4598 25.9396C25.673 26.0064 27.2868 26.3425 27.761 27.4222C28.2215 28.6331 27.3582 30.3205 26.8172 30.9259C23.7853 34.363 23.6518 37.1922 23.6518 37.3281C23.6636 37.5031 23.7385 37.6678 23.8625 37.7918C23.9866 37.9159 24.1513 37.9907 24.3263 38.0026C24.4163 38.008 24.5064 37.9942 24.5906 37.9622C24.6749 37.9302 24.7514 37.8807 24.8152 37.8169C24.8789 37.7532 24.9284 37.6767 24.9604 37.5924C24.9924 37.5081 25.0062 37.418 25.0008 37.3281C25.0008 37.3281 25.1343 34.8349 27.8301 31.803C28.1386 31.4626 28.389 31.0737 28.5714 30.652C28.7136 30.6379 28.851 30.5931 28.9742 30.5208C29.3794 30.1824 30.4568 29.4411 31.3339 29.5769C31.5175 29.6024 31.6926 29.6704 31.8453 29.7755C31.998 29.8806 32.124 30.0199 32.2133 30.1824C32.2594 30.2594 32.3209 30.3263 32.3939 30.3787C32.4668 30.4311 32.5497 30.4681 32.6375 30.4873C32.7253 30.5065 32.816 30.5075 32.9042 30.4903C32.9924 30.4731 33.0761 30.438 33.1502 30.3873C33.2944 30.2825 33.3947 30.1281 33.4317 29.9538C33.4687 29.7795 33.4398 29.5976 33.3505 29.4434C33.1459 29.1281 32.879 28.8578 32.5663 28.6492C32.2536 28.4406 31.9016 28.298 31.5319 28.2302H31.1267C30.4425 28.2571 29.7736 28.4415 29.1722 28.7689C29.2413 28.1634 29.2413 27.4889 28.9719 26.9479C28.3665 25.5344 26.8839 24.7264 24.522 24.5929C24.4321 24.5875 24.3421 24.6012 24.2579 24.6333C24.1738 24.6653 24.0974 24.7148 24.0338 24.7786C23.9703 24.8424 23.921 24.9189 23.8893 25.0032C23.8575 25.0875 23.8441 25.1775 23.8498 25.2674C23.8425 25.3521 23.8527 25.4374 23.8799 25.518C23.907 25.5985 23.9504 25.6727 24.0074 25.7357C24.0644 25.7988 24.1338 25.8494 24.2113 25.8845C24.2887 25.9196 24.3725 25.9383 24.4575 25.9396H24.4598ZM30.4568 55.5883C30.3923 55.5883 29.2436 54.9805 29.041 53.9009C28.9052 52.9593 29.5014 51.8796 30.7261 50.8022C30.8508 50.6667 30.9255 50.4928 30.938 50.3091C30.9506 50.1254 30.9002 49.9429 30.7952 49.7916C30.6485 49.6571 30.4555 49.5845 30.2565 49.589C30.1776 49.5873 30.0995 49.6049 30.0289 49.6402C29.9583 49.6755 29.8973 49.7275 29.8513 49.7916C29.5648 50.0448 29.2941 50.3154 29.041 50.602C29.0683 50.4975 29.0702 50.3881 29.0466 50.2828C29.0229 50.1774 28.9745 50.0793 28.9052 49.9965C28.9052 49.9965 26.4143 46.8933 28.233 43.9305L28.302 43.7279C28.3688 43.4586 29.1101 40.6293 28.3688 39.0777C28.3274 38.9521 28.2449 38.844 28.1347 38.771C28.0245 38.6979 27.8928 38.664 27.761 38.6748L27.4917 38.7416C27.3316 38.8136 27.2063 38.9458 27.143 39.1095C27.0796 39.2732 27.0833 39.4553 27.1533 39.6164C27.5585 40.4267 27.2868 42.3144 27.0198 43.325C24.865 47.0959 27.761 50.7355 27.8969 50.8713C27.9931 50.9869 28.1277 51.064 28.276 51.0885C28.4244 51.113 28.5766 51.0833 28.7049 51.0048C27.8976 52.0791 27.5608 53.0898 27.6943 54.0367C27.9636 55.8576 29.7178 56.7992 29.8513 56.7992C29.9248 56.8453 30.0073 56.875 30.0933 56.8864C30.1793 56.8978 30.2667 56.8906 30.3497 56.8653C30.4326 56.84 30.5092 56.7971 30.5741 56.7396C30.6391 56.6822 30.6909 56.6114 30.7261 56.5322C30.7865 56.3665 30.793 56.1861 30.7446 56.0165C30.6963 55.847 30.5955 55.6971 30.4568 55.5883ZM17.4522 38.2144C16.4416 44.4139 19.0016 46.5019 19.8787 47.0406C19.5402 51.0831 21.8308 52.835 22.5744 53.3092C22.6337 54.0479 22.8639 54.7627 23.2466 55.3972C24.6601 57.8236 27.8969 58.6202 28.3688 58.7652C29.4439 59.8426 30.5903 60.4503 31.7391 60.4503H31.8035C33.8915 60.3836 35.846 58.2933 36.5896 57.2849V18.9988C35.648 16.9085 33.9606 15.1589 32.3468 14.756C31.9324 14.6224 31.4999 14.5533 31.0645 14.5511C28.7624 14.5511 26.8172 16.1027 26.7504 16.1626L26.6146 16.3652C25.1343 18.7225 23.516 20.6102 21.7641 21.9593C17.2497 25.3272 17.3187 28.9646 17.3901 29.7864C16.9659 30.3206 16.6663 30.9427 16.513 31.6074C15.6359 34.6392 17.1852 37.7378 17.4569 38.2098L17.4522 38.2144ZM22.5744 23.0528C24.6122 21.4106 26.3452 19.4228 27.6943 17.1801C28.0971 16.8417 30.0539 15.495 32.0084 16.0291C33.4242 16.4342 34.5706 17.85 35.3787 20.2074V56.4631C34.8377 57.3379 33.4242 59.023 31.8035 59.0921H31.7391C30.5282 59.0921 29.3794 58.1482 28.1662 56.3296C28.081 56.2069 27.9572 56.1162 27.8145 56.0719C27.6718 56.0277 27.5184 56.0324 27.3787 56.0853C27.239 56.1382 27.121 56.2363 27.0435 56.364C26.9659 56.4917 26.9333 56.6416 26.9507 56.79C26.0759 56.3848 25.0008 55.7126 24.3908 54.702C23.8521 53.6914 23.7853 52.4782 24.1882 51.1291C24.2207 51.0455 24.236 50.9562 24.2332 50.8666C24.2305 50.7769 24.2097 50.6888 24.1721 50.6073C24.1345 50.5259 24.0808 50.4529 24.0144 50.3926C23.9479 50.3324 23.87 50.2861 23.7853 50.2566H23.5827C23.4363 50.2522 23.2923 50.2944 23.1715 50.3772C23.0507 50.4599 22.9593 50.579 22.9105 50.7171C22.8438 50.9864 22.777 51.3225 22.7079 51.6609C21.6973 50.7838 20.2148 48.4932 22.1669 43.5069C22.2269 43.3373 22.2184 43.1511 22.1432 42.9877C22.0679 42.8243 21.9319 42.6968 21.7641 42.6321L21.5615 42.5653C21.4209 42.5542 21.2802 42.5872 21.1593 42.6598C21.0384 42.7325 20.9432 42.8411 20.887 42.9705C20.566 43.8005 20.3187 44.6571 20.148 45.5304C19.2709 44.7201 17.7884 42.4963 19.0683 36.9689C19.1023 36.7908 19.0648 36.6065 18.9641 36.4557C18.8633 36.305 18.7072 36.1999 18.5296 36.1632H18.3961L18.1268 36.23C17.7239 35.1526 17.3187 33.5365 17.7884 31.9826C18.1268 30.7717 18.9394 29.8301 20.148 29.1533C20.2989 29.0553 20.4093 28.906 20.4588 28.7329C20.5083 28.5599 20.4936 28.3748 20.4173 28.2118C20.3476 28.1144 20.2572 28.0337 20.1525 27.9756C20.0477 27.9174 19.9314 27.8833 19.8119 27.8757L19.4735 27.9447C19.2374 28.0811 19.012 28.235 18.799 28.4051C19.0683 27.1229 19.8119 25.0372 22.5744 23.0136V23.0528ZM44.3384 37.7309C44.5068 37.7711 44.6574 37.8653 44.7672 37.9992C44.877 38.1331 44.9398 38.2992 44.9462 38.4722C44.9139 38.6579 44.8117 38.8242 44.6605 38.9369C44.5093 39.0495 44.3207 39.0999 44.1335 39.0777C43.5949 39.0109 41.371 38.8774 41.173 39.8212C41.1509 39.9134 41.1093 39.9997 41.051 40.0745C40.9928 40.1492 40.9192 40.2107 40.8353 40.2547C40.7514 40.2987 40.6591 40.3243 40.5644 40.3298C40.4698 40.3352 40.3752 40.3204 40.2867 40.2863C40.1227 40.2331 39.9844 40.1204 39.8992 39.9705C39.814 39.8205 39.788 39.6441 39.8263 39.4759C40.2292 37.9266 42.0455 37.6573 43.2611 37.6573C43.7997 37.6573 44.2026 37.724 44.3384 37.724V37.7309ZM55.522 38.4055C55.6217 38.5422 55.6755 38.707 55.6755 38.8762C55.6755 39.0455 55.6217 39.2103 55.522 39.347C55.3852 39.4765 55.204 39.5487 55.0156 39.5487C54.8272 39.5487 54.6459 39.4765 54.5091 39.347C54.4446 39.2803 52.7595 37.5307 53.0979 32.8137C52.8953 31.8007 52.1517 29.105 50.7406 28.9001C50.6484 28.9023 50.557 28.8835 50.4731 28.8451C50.3893 28.8067 50.3153 28.7498 50.2568 28.6786C50.1982 28.6074 50.1566 28.5238 50.1352 28.4341C50.1137 28.3445 50.1129 28.2511 50.1328 28.1611C50.1584 27.9982 50.2391 27.849 50.3614 27.7383C50.4838 27.6277 50.6403 27.5624 50.805 27.5534H50.8764C53.7034 27.9608 54.3756 32.473 54.4446 32.6755V32.8114C54.1776 36.9206 55.4576 38.3364 55.522 38.4032V38.4055ZM50.3354 24.3212C50.1818 24.3909 50.0081 24.4019 49.847 24.3523C49.6858 24.3027 49.5484 24.1958 49.4606 24.0519C48.1783 21.9639 45.4849 18.6627 43.7307 19.0655C43.5529 19.0937 43.3711 19.054 43.2214 18.9541C43.0716 18.8543 42.965 18.7018 42.9226 18.5269C42.9112 18.3525 42.9578 18.1793 43.0553 18.0344C43.1528 17.8894 43.2956 17.7809 43.4613 17.7257H44C47.0319 17.7257 50.2019 22.7903 50.607 23.3866C50.6513 23.4662 50.6795 23.5537 50.6898 23.6442C50.7001 23.7347 50.6924 23.8264 50.6671 23.9139C50.6419 24.0014 50.5996 24.0831 50.5426 24.1541C50.4857 24.2252 50.4153 24.2844 50.3354 24.3281V24.3212ZM45.1442 23.6467C45.3231 23.6828 45.4805 23.7884 45.5819 23.9402C45.6833 24.0921 45.7204 24.2779 45.6852 24.4571C45.6542 24.6244 45.5604 24.7737 45.4231 24.8742C45.2857 24.9748 45.1151 25.0191 44.9462 24.998C44.8104 24.998 41.493 24.4571 40.6321 21.0845C40.6067 21.001 40.5986 20.9133 40.6082 20.8267C40.6179 20.74 40.6451 20.6562 40.6881 20.5804C40.7312 20.5046 40.7893 20.4383 40.8588 20.3857C40.9283 20.333 41.0078 20.2951 41.0925 20.2741L41.2283 20.2074C41.3867 20.2 41.5424 20.2506 41.6661 20.3498C41.7899 20.4489 41.8732 20.5899 41.9005 20.7461C42.5796 23.2392 45.0014 23.6421 45.1234 23.6421L45.1442 23.6467ZM43.5949 41.7734L43.8642 41.8402C44.0312 41.9067 44.1662 42.0348 44.2416 42.198C44.317 42.3611 44.3269 42.547 44.2694 42.7173C42.453 46.9623 44.0691 53.3645 44.1335 53.3645C44.1724 53.5515 44.1382 53.7463 44.0381 53.9089C43.9379 54.0716 43.7793 54.1898 43.5949 54.2393C43.4172 54.2669 43.2356 54.2269 43.086 54.1272C42.9364 54.0274 42.8296 53.8752 42.7868 53.7006C42.7224 53.4312 41.0372 46.8933 42.9917 42.2453C43.0388 42.1197 43.1203 42.0098 43.227 41.9283C43.3337 41.8469 43.4612 41.7972 43.5949 41.7849V41.7734ZM46.4287 36.0458C46.2504 36.0097 46.0661 36.0154 45.8903 36.0625C45.7146 36.1096 45.5521 36.1969 45.4158 36.3175C45.3411 36.3684 45.2569 36.4035 45.1682 36.4208C45.0795 36.4381 44.9881 36.4371 44.8998 36.418C44.8115 36.3988 44.728 36.3618 44.6544 36.3093C44.5809 36.2568 44.5188 36.1899 44.472 36.1126C44.3787 35.9652 44.3412 35.7893 44.3661 35.6167C44.391 35.4441 44.4767 35.286 44.6078 35.171C45.0642 34.861 45.6055 34.7002 46.1571 34.7106C46.3612 34.6919 46.567 34.7138 46.7625 34.775C48.0425 35.1135 48.717 36.5937 48.7861 36.7295C49.6632 38.951 50.538 38.8866 50.607 38.8866C50.686 38.8547 50.7709 38.8399 50.856 38.8433C50.9411 38.8467 51.0246 38.8682 51.1008 38.9063C51.177 38.9444 51.2442 38.9983 51.298 39.0643C51.3518 39.1304 51.3909 39.2071 51.4128 39.2895C51.4705 39.4594 51.4609 39.6451 51.3859 39.8082C51.311 39.9713 51.1765 40.0996 51.0099 40.1666C50.805 40.2333 48.9864 40.7052 47.5061 37.2659C47.3703 36.9966 46.9651 36.2576 46.4287 36.055V36.0458ZM50.538 25.9396C49.2557 26.0064 47.7087 26.3425 47.2345 27.4222C46.7625 28.6331 47.6396 30.3205 48.1783 30.9259C51.2102 34.363 51.3368 37.1922 51.3368 37.3281C51.3255 37.5029 51.2511 37.6676 51.1275 37.7917C51.0038 37.9157 50.8393 37.9907 50.6646 38.0026C50.5747 38.0076 50.4848 37.9936 50.4007 37.9614C50.3166 37.9293 50.2402 37.8798 50.1765 37.8161C50.1129 37.7525 50.0634 37.6761 50.0312 37.592C49.9991 37.5079 49.9851 37.418 49.9901 37.3281C49.9901 37.3281 49.8566 34.8349 47.1631 31.803C46.8515 31.465 46.6007 31.0755 46.4218 30.652C46.2768 30.6491 46.1359 30.6035 46.0167 30.5208C45.6138 30.1824 44.465 29.4411 43.5879 29.5769C43.4175 29.6135 43.257 29.6865 43.1175 29.791C42.978 29.8956 42.8629 30.0291 42.7799 30.1824C42.6715 30.3098 42.5205 30.3935 42.355 30.418C42.1894 30.4425 42.0207 30.4061 41.88 30.3155C41.7393 30.2249 41.6363 30.0863 41.5901 29.9255C41.5439 29.7646 41.5577 29.5925 41.6289 29.4411C41.8276 29.1201 42.0931 28.8456 42.4073 28.6362C42.7215 28.4269 43.077 28.2876 43.4498 28.2279H43.8527C44.5379 28.2652 45.2066 28.4522 45.8118 28.7758C45.7473 28.1703 45.7473 27.4958 46.0167 26.9548C46.5554 25.5413 48.107 24.7333 50.4643 24.5998C50.5543 24.5944 50.6444 24.6082 50.7286 24.6402C50.8129 24.6722 50.8894 24.7217 50.9532 24.7854C51.0169 24.8492 51.0664 24.9257 51.0984 25.01C51.1304 25.0942 51.1442 25.1843 51.1388 25.2743C51.1458 25.3589 51.1353 25.4441 51.108 25.5245C51.0808 25.6049 51.0373 25.6789 50.9804 25.7419C50.9235 25.8049 50.8542 25.8555 50.7769 25.8907C50.6996 25.9259 50.616 25.9449 50.5311 25.9465L50.538 25.9396ZM44.5364 55.5883C44.6078 55.5883 45.7542 54.9805 45.9545 53.9009C46.088 52.9593 45.4941 51.8796 44.2694 50.8022C44.1306 50.6746 44.0463 50.4984 44.0339 50.3103C44.0215 50.1222 44.0819 49.9364 44.2026 49.7916C44.349 49.6567 44.5422 49.584 44.7413 49.589C44.8185 49.5945 44.8939 49.6152 44.963 49.6499C45.0322 49.6847 45.0938 49.7329 45.1442 49.7916C45.4313 50.0442 45.702 50.3148 45.9545 50.602C45.928 50.4976 45.9263 50.3885 45.9495 50.2834C45.9727 50.1783 46.0201 50.08 46.088 49.9965C46.088 49.9965 48.5835 46.8933 46.7625 43.9305L46.6958 43.7279C46.6267 43.4586 45.8877 40.6293 46.5623 39.0777C46.625 38.9541 46.7214 38.8507 46.8403 38.7794C46.9593 38.7082 47.0959 38.6719 47.2345 38.6748L47.5061 38.7416C47.6662 38.8136 47.7915 38.9458 47.8548 39.1095C47.9182 39.2732 47.9145 39.4553 47.8445 39.6164C47.4394 40.4267 47.7087 42.3144 47.978 43.325C50.1328 47.0959 47.2345 50.7355 47.1009 50.8713C47.0047 50.9869 46.8702 51.064 46.7218 51.0885C46.5734 51.113 46.4212 51.0833 46.2929 51.0048C47.1002 52.0791 47.4378 53.0898 47.3058 54.0367C47.0319 55.8576 45.2155 56.7992 45.1442 56.7992C45.0712 56.8473 44.9886 56.8786 44.9021 56.8911C44.8157 56.9035 44.7275 56.8968 44.644 56.8713C44.5605 56.8458 44.4836 56.8022 44.4188 56.7435C44.3541 56.6849 44.303 56.6128 44.2694 56.5322C44.2245 56.4527 44.1959 56.3652 44.185 56.2747C44.1742 56.1841 44.1814 56.0923 44.2062 56.0046C44.231 55.9168 44.273 55.8349 44.3297 55.7634C44.3863 55.692 44.4566 55.6325 44.5364 55.5883ZM57.5525 38.2144C58.5585 44.4139 56.0009 46.5019 55.1238 47.0406C55.4622 51.0831 53.167 52.835 52.4303 53.3092C52.3685 54.0484 52.136 54.7631 51.7512 55.3972C50.34 57.8236 47.1056 58.6202 46.6313 58.7652C45.5539 59.8426 44.4075 60.4503 43.2657 60.4503H43.1943C41.1063 60.3836 39.1518 58.2933 38.4151 57.2849V18.9988C39.3567 16.9085 41.0418 15.1589 42.5934 14.756C43.0308 14.6262 43.484 14.5572 43.9402 14.5511C46.2262 14.5511 48.1829 16.1027 48.252 16.1626L48.3855 16.3652C49.8681 18.7225 51.4818 20.6102 53.2383 21.9593C57.7504 25.3272 57.6123 28.9646 57.5525 29.7864C57.9934 30.3187 58.3146 30.9398 58.494 31.6074C59.3665 34.6392 57.8195 37.7378 57.5525 38.2098V38.2144ZM52.4303 23.0528C50.3923 21.4153 48.6592 19.4312 47.3104 17.1916C46.9007 16.8532 44.9508 15.5065 42.9963 16.0406C41.5805 16.4458 40.4341 17.8615 39.626 20.2189V56.4631C40.1647 57.3379 41.5805 59.023 43.1943 59.0921H43.2657C44.4167 59.0921 45.6253 58.1482 46.7671 56.3296C46.8557 56.2025 46.9837 56.1082 47.1312 56.0612C47.2788 56.0142 47.4377 56.0172 47.5835 56.0696C47.7292 56.122 47.8536 56.221 47.9374 56.3512C48.0212 56.4814 48.0598 56.6356 48.0471 56.79C48.9265 56.3848 50.0016 55.7126 50.6116 54.702C51.1503 53.6914 51.2148 52.4782 50.8096 51.1291C50.7782 51.0453 50.7637 50.9561 50.7671 50.8666C50.7705 50.7771 50.7916 50.6892 50.8293 50.608C50.867 50.5268 50.9206 50.4539 50.9867 50.3935C51.0529 50.3332 51.1304 50.2867 51.2148 50.2566H51.4174C51.5642 50.2517 51.7087 50.2937 51.83 50.3765C51.9513 50.4593 52.043 50.5786 52.0919 50.7171C52.1563 50.9864 52.2277 51.3225 52.2945 51.6609C53.3028 50.7838 54.7899 48.4932 52.8355 43.5069C52.7994 43.4235 52.7813 43.3334 52.7824 43.2426C52.7835 43.1517 52.8037 43.0621 52.8417 42.9796C52.8797 42.8971 52.9346 42.8235 53.003 42.7636C53.0713 42.7037 53.1515 42.6589 53.2383 42.6321L53.4363 42.5653C53.5755 42.5622 53.7128 42.5986 53.8322 42.6703C53.9516 42.742 54.0482 42.8461 54.1108 42.9705C54.4346 43.7997 54.6827 44.6565 54.8521 45.5304C55.7315 44.7201 57.2141 42.4963 55.9295 36.9689C55.8931 36.7996 55.9217 36.6229 56.0095 36.4736C56.0974 36.3244 56.2381 36.2136 56.4037 36.1632H56.604L56.8733 36.23C57.2808 35.1526 57.6169 33.5365 57.2141 31.9826C56.8733 30.7717 56.063 29.8301 54.8521 29.1533C54.7712 29.1106 54.6999 29.0519 54.6423 28.9808C54.5848 28.9097 54.5422 28.8276 54.5173 28.7396C54.4923 28.6516 54.4855 28.5595 54.4971 28.4688C54.5088 28.378 54.5387 28.2906 54.5851 28.2118C54.6492 28.1085 54.7387 28.0233 54.8451 27.9645C54.9515 27.9057 55.0712 27.8751 55.1928 27.8757L55.5266 27.9447C55.7411 28.1129 55.9664 28.2667 56.2011 28.4051C55.9295 27.1229 55.1238 25.0372 52.4303 23.0136V23.0528ZM37.4667 9.71443C52.8309 9.71443 65.2944 22.1112 65.2944 37.4731C65.2895 44.8511 62.3558 51.9254 57.1379 57.1416C51.92 62.3578 44.8447 65.2892 37.4667 65.2916C22.1002 65.2916 9.70569 52.8235 9.70569 37.4616C9.70054 33.8146 10.4151 30.2025 11.8084 26.8322C13.2017 23.4619 15.2464 20.3996 17.8253 17.8209C20.4042 15.2423 23.4667 13.1978 26.8371 11.8048C30.2075 10.4117 33.8197 9.69746 37.4667 9.70292V9.71443Z" fill="#FF5561"/>
</svg>
