<svg width="25" height="25" viewBox="0 0 25 25" fill="none" xmlns="http://www.w3.org/2000/svg">
<path d="M2.03818 5.42791H0.240659V7.07626H2.03818V11.6758H0V13.3242H2.03818V17.9237H0V19.5721H2.03818V25H6.69197V0H2.03818V5.42791Z" fill="#FF5561"/>
<path d="M8.22021 0V25H24.9998V0H8.22021ZM16.0665 7.46494C17.3087 7.46494 18.3156 8.55071 18.3156 9.89011C18.3156 11.2295 17.3087 12.3153 16.0665 12.3153C14.8244 12.3153 13.8175 11.2295 13.8175 9.89011C13.8175 8.55071 14.8244 7.46494 16.0665 7.46494ZM11.9902 17.5351C11.9902 15.1074 13.8152 13.1395 16.0665 13.1395C18.3179 13.1395 20.1429 15.1074 20.1429 17.5351H11.9902Z" fill="#FF5561"/>
</svg>
