<svg width="25" height="25" viewBox="0 0 25 25" fill="none" xmlns="http://www.w3.org/2000/svg">
<path d="M23.3967 21.1103L22.961 23.5292C22.8068 24.3852 22.1422 25 21.3709 25H2.54894C1.52222 25 0.753601 23.9337 0.958818 22.794L2.76892 12.7439C2.89526 12.0428 3.34659 11.4965 3.92261 11.2861C3.96363 11.2711 4.0054 11.2578 4.04756 11.2462C4.04971 11.2457 4.05185 11.2452 4.054 11.2447C4.09363 11.2339 4.13364 11.2247 4.17415 11.2171C4.1869 11.2148 4.19977 11.2134 4.21264 11.2114C4.24382 11.2064 4.27512 11.2013 4.3068 11.1983C4.35324 11.1941 4.40006 11.1913 4.44739 11.1913H5.18471H20.0441H21.3062H23.3966H24.1836C24.4095 11.1913 24.6106 11.294 24.7566 11.4574C24.9027 11.6208 24.9938 11.8452 24.9997 12.0885C25.0013 12.158 24.9962 12.2291 24.9833 12.3007L23.3967 21.1103ZM23.3886 9.76155C23.3129 8.94472 22.7014 8.30589 21.9607 8.30589H21.3062V9.76155H23.3886ZM1.53244 12.4581C1.77817 11.0937 2.74444 10.0562 3.92274 9.81503V5.87683H1.68491C0.755873 5.87683 0 6.73313 0 7.78545V20.9659L1.53244 12.4581Z" fill="#FF5561"/>
<path d="M20.0433 0.80268V9.76156H5.18408V0.80268C5.18408 0.360162 5.50201 0 5.89263 0H19.3349C19.7255 0 20.0433 0.360019 20.0433 0.80268ZM18.2271 7.13333C18.2271 6.73857 17.9447 6.41844 17.5961 6.41844H7.6313C7.28283 6.41844 7.00025 6.73857 7.00025 7.13333C7.00025 7.5281 7.28283 7.84823 7.6313 7.84823H17.5961C17.9447 7.84823 18.2271 7.5281 18.2271 7.13333ZM18.2271 3.44206C18.2271 3.0473 17.9447 2.72717 17.5961 2.72717H7.6313C7.28283 2.72717 7.00025 3.0473 7.00025 3.44206C7.00025 3.83682 7.28283 4.15695 7.6313 4.15695H17.5961C17.9447 4.15695 18.2271 3.83682 18.2271 3.44206Z" fill="#FF5561"/>
</svg>
