<svg width="25" height="25" viewBox="0 0 25 25" fill="none" xmlns="http://www.w3.org/2000/svg">
<path d="M12.5005 25C14.4101 25 16.2461 24.5129 17.915 23.7043L13.9078 17.4076C13.4539 17.5369 12.9866 17.6269 12.5005 17.6269C12.0145 17.6269 11.5474 17.537 11.0936 17.4077L7.08618 23.7045C8.75502 24.513 10.5911 25 12.5005 25Z" fill="#FF5561"/>
<path d="M1.29526 17.9146L7.59326 13.907C7.46401 13.453 7.37397 12.9859 7.37397 12.4998C7.37397 12.0137 7.46391 11.5464 7.59321 11.0926L1.29624 7.08562C0.487717 8.75438 0.000689983 10.5904 0.000689983 12.4998C0.000689983 14.5215 0.492648 16.2532 1.29526 17.9146Z" fill="#FF5561"/>
<path d="M5.80287 22.9911L9.73438 16.8135C9.05149 16.3786 8.61384 15.9367 8.18633 15.2655L2.00682 19.1978C3.02482 20.7832 4.27553 22.011 5.80287 22.9911Z" fill="#FF5561"/>
<path d="M17.4079 13.9075L23.7049 17.9141C24.5135 16.2452 25.0005 14.4093 25.0005 12.5C25.0005 10.5905 24.5135 8.75446 23.7048 7.0856L17.408 11.093C17.5373 11.5468 17.6272 12.0139 17.6272 12.5C17.6272 12.9861 17.5372 13.4536 17.4079 13.9075Z" fill="#FF5561"/>
<path d="M11.1157 7.62781C12.0217 7.39026 12.9793 7.39036 13.8853 7.62771L17.915 1.2955C16.2462 0.487054 14.4102 -5.67436e-05 12.5006 -5.67436e-05C10.5911 -5.67436e-05 8.75504 0.487054 7.08624 1.29555L11.1157 7.62781Z" fill="#FF5561"/>
<path d="M8.18589 9.73438C8.63478 9.02983 9.08109 8.59711 9.73877 8.19496L5.80233 2.00892C4.2851 2.98261 3.03668 4.20015 2.00799 5.80319L8.18589 9.73438Z" fill="#FF5561"/>
<path d="M19.1981 22.9908C20.7184 22.0151 21.9656 20.7964 22.9922 19.1967L16.8142 15.2658C16.3864 15.9369 15.949 16.3787 15.2666 16.8133L19.1981 22.9908Z" fill="#FF5561"/>
<path d="M16.814 9.73438L22.9917 5.80294C22.0178 4.2855 20.8006 3.03759 19.1977 2.00892L15.2609 8.19486C15.9201 8.59784 16.3661 9.03105 16.814 9.73438Z" fill="#FF5561"/>
</svg>
