<svg width="25" height="25" viewBox="0 0 25 25" fill="none" xmlns="http://www.w3.org/2000/svg">
<path d="M23.4587 0H14.8615C14.0117 0 13.3204 0.691313 13.3204 1.54095C13.3204 2.39058 14.0117 3.08189 14.8615 3.08189H19.7382L11.6034 11.2158C11.3121 11.5068 11.1519 11.8937 11.1519 12.3055C11.1519 12.7172 11.312 13.104 11.6032 13.3948C11.8943 13.6862 12.2812 13.8465 12.693 13.8465C13.1046 13.8465 13.4916 13.6863 13.7828 13.3951L21.9176 5.26106V10.1372C21.9176 10.9869 22.609 11.6782 23.4587 11.6782C24.3084 11.6782 24.9998 10.9869 24.9998 10.1372V1.54095C24.9998 0.691313 24.3084 0 23.4587 0Z" fill="#FF5561"/>
<path d="M17.7128 22.3583H2.6419V7.28908H12.8401L15.482 4.64746H1.32095C0.591432 4.64746 0 5.23883 0 5.96827V23.6792C0 24.4086 0.591432 25 1.32095 25H19.0337C19.7632 25 20.3547 24.4086 20.3547 23.6792V9.51958L17.7128 12.1612V22.3583Z" fill="#FF5561"/>
</svg>
