<svg width="25" height="25" viewBox="0 0 25 25" fill="none" xmlns="http://www.w3.org/2000/svg">
<path d="M12.5 15.1351C15 15.1351 20 16.3514 20 18.7838V20H5V18.7838C5 16.3514 10 15.1351 12.5 15.1351Z" fill="#FF5561"/>
<path d="M16.25 8.64865C16.25 10.6595 14.5667 12.2973 12.5 12.2973C10.4333 12.2973 8.75 10.6595 8.75 8.64865C8.75 6.63784 10.4333 5 12.5 5C14.5667 5 16.25 6.63784 16.25 8.64865Z" fill="#FF5561"/>
<path fill-rule="evenodd" clip-rule="evenodd" d="M20 2.5H5C3.61929 2.5 2.5 3.61929 2.5 5V20C2.5 21.3807 3.61929 22.5 5 22.5H20C21.3807 22.5 22.5 21.3807 22.5 20V5C22.5 3.61929 21.3807 2.5 20 2.5ZM5 0C2.23858 0 0 2.23858 0 5V20C0 22.7614 2.23858 25 5 25H20C22.7614 25 25 22.7614 25 20V5C25 2.23858 22.7614 0 20 0H5Z" fill="#FF5561"/>
</svg>
