<svg width="65" height="41" viewBox="0 0 65 41" fill="none" xmlns="http://www.w3.org/2000/svg">
<path d="M31.5174 41C26.3814 40.9927 21.4312 39.0982 17.627 35.684C13.8228 32.2698 11.4359 27.5793 10.9292 22.5224C10.4226 17.4654 11.8322 12.4026 14.8848 8.3158C17.9374 4.22905 22.4153 1.40978 27.4499 0.404873C32.4845 -0.600036 37.7169 0.281053 42.132 2.87723C46.5472 5.4734 49.8304 9.59959 51.3448 14.4554C52.8592 19.3112 52.4969 24.5504 50.328 29.1568C48.1591 33.7632 44.3384 37.4084 39.607 39.3853C37.0476 40.4564 34.2962 41.0056 31.5174 41Z" fill="#FF5561"/>
<path d="M31.7779 2.6509C31.85 2.71099 31.9025 2.79089 31.9287 2.8805C31.9549 2.97011 31.9537 3.0654 31.9252 3.15432C31.8967 3.24324 31.8422 3.3218 31.7685 3.38006C31.6949 3.43832 31.6054 3.47366 31.5115 3.48162C31.4175 3.48957 31.3233 3.46978 31.2407 3.42475C31.1582 3.37972 31.0909 3.31148 31.0476 3.22865C31.0042 3.14581 30.9866 3.05211 30.9971 2.9594C31.0075 2.86668 31.0455 2.77912 31.1063 2.70778C31.1877 2.61214 31.3042 2.55242 31.4302 2.54176C31.5561 2.53109 31.6812 2.57035 31.7779 2.6509Z" fill="white"/>
<path d="M31.7781 37.5027C31.8504 37.5627 31.903 37.6425 31.9294 37.732C31.9558 37.8216 31.9548 37.9169 31.9264 38.0058C31.8981 38.0948 31.8437 38.1735 31.7702 38.2319C31.6967 38.2903 31.6073 38.3258 31.5134 38.3339C31.4195 38.3421 31.3253 38.3225 31.2426 38.2776C31.1599 38.2328 31.0926 38.1647 31.049 38.082C31.0055 37.9992 30.9877 37.9056 30.9979 37.8128C31.0082 37.7201 31.046 37.6325 31.1066 37.561C31.1882 37.4658 31.3045 37.4063 31.4303 37.3954C31.556 37.3845 31.681 37.423 31.7781 37.5027Z" fill="white"/>
<path d="M14.1598 19.6051C14.2319 19.6652 14.2843 19.745 14.3105 19.8345C14.3367 19.924 14.3355 20.0192 14.3071 20.1081C14.2787 20.1969 14.2243 20.2755 14.1508 20.3338C14.0773 20.3921 13.988 20.4275 13.8942 20.4356C13.8004 20.4438 13.7062 20.4242 13.6236 20.3794C13.541 20.3346 13.4736 20.2666 13.4301 20.184C13.3865 20.1014 13.3686 20.0078 13.3787 19.9152C13.3888 19.8225 13.4265 19.7349 13.4869 19.6634C13.5271 19.6157 13.5765 19.5764 13.6321 19.5477C13.6878 19.5189 13.7486 19.5013 13.8111 19.4959C13.8736 19.4905 13.9366 19.4974 13.9965 19.5161C14.0563 19.5349 14.1118 19.5651 14.1598 19.6051Z" fill="white"/>
<path d="M14.6424 16.4203C14.7146 16.4803 14.7673 16.5601 14.7937 16.6496C14.8201 16.7392 14.819 16.8345 14.7907 16.9234C14.7624 17.0124 14.708 17.0911 14.6345 17.1495C14.561 17.2079 14.4716 17.2434 14.3777 17.2515C14.2838 17.2597 14.1895 17.2401 14.1069 17.1953C14.0242 17.1504 13.9568 17.0823 13.9133 16.9996C13.8697 16.9168 13.852 16.8232 13.8622 16.7305C13.8724 16.6377 13.9103 16.5501 13.9708 16.4786C14.0111 16.4312 14.0603 16.392 14.1159 16.3634C14.1714 16.3348 14.2321 16.3173 14.2944 16.3119C14.3568 16.3065 14.4196 16.3132 14.4793 16.3319C14.539 16.3505 14.5944 16.3805 14.6424 16.4203Z" fill="white"/>
<path d="M14.8006 23.8002C14.8209 23.8913 14.8134 23.9863 14.7791 24.0732C14.7448 24.1601 14.6852 24.235 14.6079 24.2884C14.5305 24.3418 14.4389 24.3713 14.3447 24.3732C14.2504 24.375 14.1577 24.3492 14.0783 24.2989C13.9988 24.2487 13.9362 24.1762 13.8984 24.0908C13.8606 24.0053 13.8492 23.9107 13.8658 23.8188C13.8823 23.727 13.926 23.6421 13.9914 23.5748C14.0567 23.5075 14.1407 23.4609 14.2328 23.4409C14.3563 23.4141 14.4854 23.4369 14.5919 23.5042C14.6984 23.5716 14.7735 23.6781 14.8006 23.8002Z" fill="white"/>
<path d="M22.4474 34.8325C22.4674 34.9237 22.4596 35.0186 22.4251 35.1054C22.3906 35.1921 22.3308 35.2668 22.2534 35.32C22.176 35.3732 22.0844 35.4025 21.9902 35.4042C21.896 35.4059 21.8034 35.3799 21.724 35.3295C21.6447 35.2791 21.5823 35.2066 21.5446 35.1212C21.507 35.0357 21.4957 34.9411 21.5124 34.8493C21.529 34.7575 21.5728 34.6727 21.6382 34.6055C21.7035 34.5383 21.7875 34.4918 21.8796 34.4719C21.9408 34.4584 22.0041 34.4571 22.0659 34.468C22.1276 34.4788 22.1866 34.5017 22.2394 34.5352C22.2922 34.5688 22.3377 34.6123 22.3734 34.6633C22.4091 34.7143 22.4343 34.7719 22.4474 34.8325Z" fill="white"/>
<path d="M26.8416 36.8883C26.8619 36.9795 26.8544 37.0745 26.8201 37.1614C26.7858 37.2483 26.7262 37.3231 26.6489 37.3765C26.5715 37.4299 26.48 37.4594 26.3857 37.4613C26.2914 37.4632 26.1987 37.4373 26.1193 37.3871C26.0398 37.3368 25.9773 37.2644 25.9394 37.1789C25.9016 37.0934 25.8903 36.9988 25.9068 36.907C25.9234 36.8151 25.967 36.7302 26.0324 36.6629C26.0977 36.5957 26.1817 36.5491 26.2738 36.5291C26.3973 36.5022 26.5264 36.525 26.6329 36.5924C26.7394 36.6597 26.8145 36.7662 26.8416 36.8883Z" fill="white"/>
<path d="M15.6424 13.0522C15.7146 13.1121 15.7673 13.1919 15.7937 13.2815C15.8201 13.371 15.819 13.4663 15.7907 13.5553C15.7624 13.6443 15.708 13.7229 15.6345 13.7813C15.561 13.8397 15.4716 13.8752 15.3777 13.8834C15.2838 13.8915 15.1895 13.872 15.1069 13.8271C15.0242 13.7822 14.9568 13.7141 14.9133 13.6314C14.8697 13.5487 14.852 13.455 14.8622 13.3623C14.8724 13.2696 14.9103 13.1819 14.9708 13.1105C15.0111 13.063 15.0603 13.0238 15.1159 12.9952C15.1714 12.9666 15.2321 12.9491 15.2944 12.9437C15.3568 12.9383 15.4196 12.9451 15.4793 12.9637C15.539 12.9823 15.5944 13.0124 15.6424 13.0522Z" fill="white"/>
<path d="M17.3853 10.0073C17.4574 10.0674 17.5099 10.1473 17.5361 10.237C17.5623 10.3266 17.5611 10.4218 17.5326 10.5108C17.5041 10.5997 17.4496 10.6783 17.3759 10.7365C17.3023 10.7948 17.2128 10.8301 17.1189 10.8381C17.025 10.846 16.9307 10.8262 16.8482 10.7812C16.7656 10.7362 16.6984 10.6679 16.655 10.5851C16.6116 10.5023 16.594 10.4086 16.6045 10.3159C16.615 10.2231 16.653 10.1356 16.7137 10.0642C16.7952 9.96859 16.9117 9.90887 17.0376 9.8982C17.1635 9.88754 17.2886 9.9268 17.3853 10.0073Z" fill="white"/>
<path d="M19.4881 7.52679C19.5603 7.58674 19.613 7.66653 19.6394 7.75609C19.6658 7.84564 19.6647 7.94092 19.6364 8.02989C19.6081 8.11886 19.5537 8.19753 19.4802 8.25593C19.4067 8.31433 19.3173 8.34985 19.2234 8.358C19.1295 8.36614 19.0352 8.34656 18.9526 8.3017C18.8699 8.25685 18.8025 8.18875 18.759 8.10602C18.7154 8.02328 18.6977 7.92963 18.7079 7.8369C18.7181 7.74417 18.756 7.65653 18.8165 7.58506C18.8568 7.5376 18.9061 7.49845 18.9616 7.46984C19.0171 7.44122 19.0778 7.42372 19.1401 7.41831C19.2025 7.4129 19.2653 7.41969 19.325 7.43831C19.3847 7.45692 19.4401 7.48699 19.4881 7.52679Z" fill="white"/>
<path d="M22.2915 5.22415C22.3636 5.28423 22.4161 5.36414 22.4424 5.45374C22.4686 5.54335 22.4674 5.63864 22.4388 5.72756C22.4103 5.81649 22.3558 5.89504 22.2822 5.9533C22.2085 6.01156 22.1191 6.0469 22.0251 6.05486C21.9312 6.06282 21.837 6.04303 21.7544 5.998C21.6718 5.95297 21.6046 5.88472 21.5612 5.80189C21.5179 5.71906 21.5003 5.62536 21.5108 5.53264C21.5212 5.43993 21.5592 5.35236 21.62 5.28102C21.7014 5.18538 21.8179 5.12567 21.9438 5.115C22.0698 5.10434 22.1948 5.14359 22.2915 5.22415Z" fill="white"/>
<path d="M25.3875 3.76354C25.4597 3.82348 25.5124 3.90328 25.5388 3.99283C25.5652 4.08238 25.5642 4.17766 25.5358 4.26663C25.5075 4.3556 25.4531 4.43427 25.3796 4.49267C25.3061 4.55107 25.2167 4.58659 25.1228 4.59474C25.0289 4.60289 24.9346 4.58329 24.852 4.53844C24.7693 4.49359 24.7019 4.42549 24.6584 4.34276C24.6148 4.26002 24.5971 4.16637 24.6073 4.07364C24.6176 3.98091 24.6554 3.89327 24.7159 3.8218C24.7974 3.72628 24.9138 3.66653 25.0396 3.65562C25.1654 3.6447 25.2905 3.6835 25.3875 3.76354Z" fill="white"/>
<path d="M28.5825 2.92288C28.6547 2.98296 28.7072 3.06287 28.7334 3.15247C28.7596 3.24208 28.7584 3.33737 28.7299 3.42629C28.7014 3.51521 28.6468 3.59377 28.5732 3.65203C28.4996 3.71029 28.4101 3.74563 28.3162 3.75359C28.2222 3.76154 28.128 3.74175 28.0454 3.69673C27.9629 3.6517 27.8956 3.58345 27.8523 3.50062C27.8089 3.41779 27.7913 3.32409 27.8018 3.23137C27.8122 3.13866 27.8502 3.05109 27.911 2.97975C27.9924 2.88411 28.1089 2.8244 28.2349 2.81373C28.3608 2.80307 28.4859 2.84233 28.5825 2.92288Z" fill="white"/>
<path d="M46.7573 27.8118C46.7369 27.9032 46.7445 27.9986 46.7791 28.0857C46.8137 28.1728 46.8736 28.2478 46.9514 28.3011C47.0292 28.3543 47.1212 28.3835 47.2158 28.3849C47.3104 28.3863 47.4032 28.3598 47.4826 28.3087C47.5619 28.2577 47.624 28.1845 47.6612 28.0985C47.6983 28.0124 47.7087 27.9173 47.6911 27.8253C47.6735 27.7334 47.6286 27.6487 47.5621 27.5821C47.4957 27.5155 47.4107 27.4699 47.3181 27.4512C47.1955 27.4268 47.0681 27.4509 46.9633 27.5183C46.8585 27.5857 46.7845 27.6911 46.7573 27.8118Z" fill="white"/>
<path d="M44.2221 31.85C44.2018 31.9411 44.2093 32.0361 44.2436 32.123C44.2779 32.2099 44.3375 32.2848 44.4149 32.3382C44.4922 32.3916 44.5838 32.421 44.678 32.4229C44.7723 32.4248 44.865 32.399 44.9445 32.3487C45.0239 32.2985 45.0865 32.226 45.1243 32.1406C45.1621 32.0551 45.1735 31.9605 45.1569 31.8686C45.1404 31.7768 45.0967 31.6919 45.0314 31.6246C44.966 31.5573 44.882 31.5107 44.7899 31.4907C44.6665 31.4639 44.5373 31.4867 44.4308 31.554C44.3243 31.6214 44.2492 31.7279 44.2221 31.85Z" fill="white"/>
<path d="M40.5864 34.8326C40.566 34.924 40.5736 35.0193 40.6082 35.1064C40.6428 35.1936 40.7027 35.2685 40.7805 35.3218C40.8583 35.3751 40.9503 35.4043 41.0449 35.4056C41.1395 35.407 41.2324 35.3805 41.3117 35.3295C41.391 35.2785 41.4532 35.2053 41.4903 35.1192C41.5274 35.0331 41.5378 34.9381 41.5202 34.8461C41.5026 34.7542 41.4577 34.6695 41.3912 34.6028C41.3248 34.5362 41.2398 34.4906 41.1472 34.4719C41.0245 34.4468 40.8968 34.4706 40.7918 34.5381C40.6868 34.6057 40.6129 34.7115 40.5864 34.8326Z" fill="white"/>
<path d="M36.1928 36.8883C36.1725 36.9795 36.18 37.0745 36.2143 37.1614C36.2486 37.2483 36.3082 37.3231 36.3855 37.3765C36.4629 37.4299 36.5544 37.4594 36.6487 37.4613C36.743 37.4632 36.8357 37.4373 36.9151 37.3871C36.9946 37.3368 37.0571 37.2644 37.095 37.1789C37.1328 37.0934 37.1441 36.9988 37.1276 36.907C37.1111 36.8151 37.0674 36.7302 37.002 36.6629C36.9367 36.5957 36.8527 36.5491 36.7606 36.5291C36.6371 36.5022 36.508 36.525 36.4015 36.5924C36.295 36.6597 36.22 36.7662 36.1928 36.8883Z" fill="white"/>
<path d="M47.3883 13.0521C47.3162 13.1122 47.2638 13.192 47.2376 13.2815C47.2114 13.3711 47.2125 13.4662 47.241 13.5551C47.2694 13.644 47.3238 13.7225 47.3973 13.7808C47.4707 13.8391 47.56 13.8745 47.6539 13.8827C47.7477 13.8908 47.8419 13.8712 47.9245 13.8264C48.0071 13.7817 48.0744 13.7137 48.118 13.631C48.1616 13.5484 48.1794 13.4549 48.1693 13.3622C48.1592 13.2695 48.1216 13.1819 48.0612 13.1104C48.021 13.0627 47.9716 13.0234 47.916 12.9947C47.8603 12.966 47.7995 12.9484 47.737 12.943C47.6744 12.9375 47.6115 12.9444 47.5516 12.9631C47.4918 12.9819 47.4363 13.0121 47.3883 13.0521Z" fill="white"/>
<path d="M45.654 10.0073C45.5819 10.0674 45.5294 10.1473 45.5032 10.237C45.477 10.3266 45.4782 10.4218 45.5067 10.5108C45.5352 10.5997 45.5897 10.6783 45.6634 10.7365C45.737 10.7948 45.8265 10.8301 45.9204 10.8381C46.0144 10.846 46.1086 10.8262 46.1912 10.7812C46.2737 10.7362 46.341 10.6679 46.3843 10.5851C46.4277 10.5023 46.4453 10.4086 46.4348 10.3159C46.4244 10.2231 46.3864 10.1356 46.3256 10.0642C46.2442 9.96859 46.1277 9.90887 46.0017 9.8982C45.8758 9.88754 45.7507 9.9268 45.654 10.0073Z" fill="white"/>
<path d="M43.5483 7.52696C43.476 7.58691 43.4234 7.6667 43.397 7.75625C43.3706 7.84581 43.3716 7.94109 43.4 8.03006C43.4283 8.11903 43.4827 8.19769 43.5562 8.25609C43.6297 8.31449 43.7191 8.35001 43.813 8.35816C43.9069 8.36631 44.0012 8.34672 44.0838 8.30187C44.1665 8.25702 44.2339 8.18892 44.2774 8.10618C44.321 8.02345 44.3387 7.9298 44.3285 7.83707C44.3182 7.74434 44.2804 7.6567 44.2198 7.58523C44.1384 7.48971 44.022 7.42996 43.8962 7.41905C43.7704 7.40813 43.6453 7.44693 43.5483 7.52696Z" fill="white"/>
<path d="M40.7468 5.22415C40.6747 5.28423 40.6222 5.36414 40.596 5.45374C40.5697 5.54335 40.571 5.63864 40.5995 5.72756C40.628 5.81649 40.6825 5.89504 40.7561 5.9533C40.8298 6.01156 40.9192 6.0469 41.0132 6.05486C41.1071 6.06282 41.2013 6.04303 41.2839 5.998C41.3665 5.95297 41.4337 5.88472 41.4771 5.80189C41.5204 5.71906 41.538 5.62536 41.5276 5.53264C41.5171 5.43993 41.4791 5.35236 41.4183 5.28102C41.3369 5.18538 41.2204 5.12567 41.0945 5.115C40.9685 5.10434 40.8435 5.14359 40.7468 5.22415Z" fill="white"/>
<path d="M37.6469 3.76354C37.5747 3.82348 37.522 3.90328 37.4956 3.99283C37.4692 4.08238 37.4703 4.17766 37.4986 4.26663C37.5269 4.3556 37.5813 4.43427 37.6548 4.49267C37.7283 4.55107 37.8177 4.58659 37.9116 4.59474C38.0055 4.60289 38.0998 4.58329 38.1825 4.53844C38.2651 4.49359 38.3325 4.42549 38.376 4.34276C38.4196 4.26002 38.4374 4.16637 38.4271 4.07364C38.4169 3.98091 38.3791 3.89327 38.3185 3.8218C38.237 3.72628 38.1207 3.66653 37.9948 3.65562C37.869 3.6447 37.7439 3.6835 37.6469 3.76354Z" fill="white"/>
<path d="M34.4519 2.9228C34.3798 2.98289 34.3273 3.06279 34.301 3.1524C34.2748 3.242 34.276 3.33729 34.3045 3.42621C34.3331 3.51514 34.3876 3.59369 34.4612 3.65195C34.5349 3.71021 34.6243 3.74555 34.7183 3.75351C34.8122 3.76147 34.9064 3.74168 34.989 3.69665C35.0716 3.65162 35.1388 3.58337 35.1822 3.50054C35.2256 3.41771 35.2431 3.32401 35.2327 3.23129C35.2222 3.13858 35.1842 3.05101 35.1235 2.97967C35.0418 2.88436 34.9253 2.82488 34.7995 2.81422C34.6737 2.80357 34.5487 2.8426 34.4519 2.9228Z" fill="white"/>
<path d="M14.5304 35.8783C10.2613 35.1071 6.27399 39.2409 2.04133 39.1147C3.22322 37.45 4.38268 35.4081 5.53373 33.2247C3.42463 32.0696 1.54873 30.5399 0 28.7121C4.48643 29.98 8.63077 25.473 13.0471 25.6062C13.6874 28.83 14.3304 32.1066 14.9763 35.4358C14.9878 35.4963 14.9842 35.5586 14.9659 35.6175C14.9476 35.6763 14.9151 35.7298 14.8712 35.7733C14.8273 35.8169 14.7733 35.8493 14.7139 35.8676C14.6546 35.8859 14.5916 35.8896 14.5304 35.8783Z" fill="#003865"/>
<path d="M53.0707 27.7841C57.0454 27.7092 61.0299 22.7402 65.0004 24.9251C63.2997 22.4045 61.5963 21.2005 59.8915 20.3612C61.0832 18.2582 62.2749 16.3383 63.4638 14.9068C59.2578 14.3519 55.0517 20.0394 50.8457 17.7283C51.3252 20.966 51.8047 24.0969 52.2856 27.1418C52.3149 27.3251 52.4108 27.4916 52.5554 27.6098C52.7 27.7281 52.8832 27.7901 53.0707 27.7841Z" fill="#003865"/>
<path d="M55.2253 25.6728C40.4425 24.1469 26.3831 35.1945 11.6494 34.5064C11.4414 34.4975 11.2427 34.4189 11.0858 34.2836C10.9289 34.1482 10.8231 33.9641 10.7858 33.7615C10.2437 30.8373 9.70062 27.9052 9.15664 24.9653C9.13304 24.8392 9.1392 24.7094 9.17466 24.5861C9.21011 24.4627 9.27389 24.3491 9.36102 24.2542C9.44816 24.1593 9.55628 24.0855 9.67696 24.0387C9.79764 23.992 9.92761 23.9734 10.0567 23.9845C24.6376 25.1928 38.526 14.4282 53.0732 15.0982C53.2853 15.1082 53.4877 15.1889 53.6476 15.3272C53.8074 15.4654 53.9153 15.6531 53.9537 15.8597C54.5285 18.9597 55.1042 22.0693 55.6809 25.1886C55.6918 25.2517 55.6878 25.3164 55.6693 25.3778C55.6508 25.4391 55.6182 25.4954 55.5741 25.5422C55.53 25.589 55.4756 25.6252 55.4151 25.6478C55.3546 25.6705 55.2897 25.679 55.2253 25.6728Z" fill="#003865"/>
</svg>
