<svg width="45" height="40" viewBox="0 0 45 40" fill="none" xmlns="http://www.w3.org/2000/svg">
<path d="M22.5005 0L28.9836 13.1667L43.4785 15.2783L32.9895 25.5275L35.4656 40L22.5005 33.1672L9.53534 40L12.0115 25.5275L1.52246 15.2783L16.0185 13.1667L22.5005 0Z" fill="#FF5561"/>
<path d="M9.61057 33.8035L2.12542 36.0557L2.8324 31.9753L0 28.9596L7.48626 26.7073L9.61057 33.8035Z" fill="#003865"/>
<path d="M35.4551 33.7566L42.9692 35.9085L42.2087 31.8381L45 28.7844L37.4859 26.6326L35.4551 33.7566Z" fill="#003865"/>
<path d="M38.5847 32.8112C28.1366 29.4082 16.8821 29.4082 6.43404 32.8112L4.14941 25.7652C16.0822 21.8778 28.9365 21.8778 40.8693 25.7652L38.5847 32.8112Z" fill="#003865"/>
</svg>
