<svg width="45" height="38" viewBox="0 0 45 38" fill="none" xmlns="http://www.w3.org/2000/svg">
<path d="M30.4814 10.8437C29.1729 10.5462 27.9282 10.0125 26.8072 9.26839C24.9635 8.05428 23.3191 6.43058 21.8628 4.76074C20.4343 6.39907 18.8266 7.99239 17.0241 9.19413C15.8778 9.96053 14.6041 10.5117 13.2643 10.8212C12.3357 11.0339 11.3882 11.0991 10.4497 11.2499C10.4408 12.3459 10.355 13.4396 10.3606 14.5367C10.3562 16.5551 10.5475 18.5692 10.9318 20.5499C11.3404 22.5888 12.0084 24.5906 13.055 26.3909C14.2574 28.4614 15.9041 29.9534 17.8536 31.2857C18.879 31.9878 19.9222 32.6652 20.971 33.3291C21.2349 33.4956 21.5967 33.6441 21.8227 33.8591C21.8348 33.8701 21.8483 33.8796 21.8628 33.8872C21.8769 33.8801 21.8897 33.8705 21.9006 33.8591C22.1233 33.6239 22.5464 33.4585 22.8169 33.2875C23.2801 32.9949 23.7403 32.6993 24.1975 32.4008C25.2975 31.684 26.4242 30.9717 27.4508 30.1503C30.8176 27.4858 32.4275 23.2943 33.0376 19.1321C33.4262 16.4867 33.2781 13.8953 33.2737 11.2454C32.344 11.1036 31.4032 11.0508 30.4814 10.8437Z" fill="#FF5561"/>
<path d="M36.7387 8.48645C34.728 8.12412 31.4758 8.35367 27.4833 5.35157C24.6019 3.18439 21.863 0 21.863 0C21.863 0 19.093 3.22264 16.2394 5.35157C12.3271 8.27716 8.99477 8.12412 6.98403 8.48645C6.99739 10.7583 5.21935 26.3877 15.0815 33.5362C17.7714 35.4862 21.8397 38.0067 21.8597 38C21.8798 37.9932 25.948 35.4862 28.6368 33.5362C38.5067 26.3877 36.7254 10.7583 36.7387 8.48645ZM33.785 14.7877C33.7772 16.8976 33.5534 19.001 33.1169 21.0642C32.6616 23.1358 31.9379 25.1702 30.8134 26.9773C29.5575 29.0027 27.8552 30.4542 25.9146 31.7764C24.9048 32.4628 23.8794 33.1266 22.8473 33.7781C22.5277 33.9784 22.0913 34.4161 21.7072 34.2845C21.4277 34.1888 21.1382 33.9334 20.89 33.7781C20.4491 33.5006 20.0097 33.2193 19.5717 32.9342C18.4461 32.2051 17.3127 31.4714 16.2428 30.6613C12.7535 28.0159 11.0044 23.8098 10.3319 19.5632C10.0589 17.7823 9.929 15.9821 9.94336 14.1801C9.94336 13.1426 10.0358 12.1074 10.0347 11.0711C10.0348 11.0244 10.05 10.9791 10.078 10.942C10.1059 10.9048 10.145 10.8779 10.1894 10.8652C11.118 10.7054 12.0588 10.648 12.9806 10.4511C14.3485 10.1581 15.6496 9.60767 16.8162 8.82852C18.6499 7.6054 20.2787 5.95919 21.715 4.28936C21.7546 4.24951 21.8082 4.22713 21.8642 4.22713C21.9201 4.22713 21.9737 4.24951 22.0134 4.28936C23.4808 5.9907 25.1475 7.66503 27.0235 8.90278C28.1885 9.67306 29.4885 10.2112 30.8535 10.4882C31.7442 10.6671 32.6516 10.7133 33.5456 10.8652C33.588 10.8694 33.6272 10.8898 33.6553 10.9222C33.6835 10.9546 33.6983 10.9965 33.697 11.0396C33.6976 11.0501 33.6976 11.0606 33.697 11.0711C33.6959 12.3088 33.7994 13.5443 33.785 14.7855V14.7877Z" fill="#FF5561"/>
<path d="M9.61057 32.6561L2.1243 34.9268L2.8324 30.813L0 27.7727L7.48516 25.502L9.61057 32.6561Z" fill="#003865"/>
<path d="M35.4541 32.6078L42.9693 34.7784L42.2078 30.6747L45.0001 27.5961L37.4849 25.4255L35.4541 32.6078Z" fill="#003865"/>
<path d="M38.5847 31.6557C28.1362 28.2249 16.8814 28.2249 6.43293 31.6557C5.67138 29.2867 4.91021 26.9189 4.14941 24.5522C16.0819 20.633 28.9358 20.633 40.8682 24.5522C40.1104 26.9189 39.3492 29.2867 38.5847 31.6557Z" fill="#003865"/>
</svg>
