<svg width="25" height="25" viewBox="0 0 25 25" fill="none" xmlns="http://www.w3.org/2000/svg">
<path d="M5.67656 25C7.19271 25 8.61823 24.4094 9.69063 23.3375L14.4828 18.5453C15.5552 17.4729 16.1458 16.0474 16.1458 14.5307C16.1458 12.0177 14.5323 9.83594 12.1312 9.10156L11.8271 10.0974C13.7875 10.6974 15.1042 12.4786 15.1042 14.5307C15.1042 15.7687 14.6219 16.9328 13.7469 17.8083L8.95469 22.6005C8.07917 23.476 6.91458 23.9583 5.67656 23.9583C3.12083 23.9583 1.04167 21.8792 1.04167 19.3234C1.04167 18.0854 1.52396 16.9214 2.39896 16.0458L7.19115 11.2536C7.34271 11.1021 7.50573 10.9604 7.67552 10.8323L7.04792 10.0005C6.84062 10.1573 6.64062 10.3307 6.45469 10.5167L1.6625 15.3089C0.590625 16.3812 0 17.8068 0 19.3234C0 22.4531 2.54688 25 5.67656 25Z" fill="#FF5561"/>
<path d="M19.3238 0C17.8076 0 16.3821 0.590625 15.3097 1.6625L10.5175 6.45469C9.44512 7.52708 8.85449 8.9526 8.85449 10.4693C8.85449 13.1818 10.7842 15.525 13.443 16.0417L13.6415 15.0193C11.4717 14.5974 9.89668 12.6844 9.89668 10.4693C9.89668 9.23125 10.379 8.06719 11.254 7.19167L16.0462 2.39948C16.9212 1.52396 18.0857 1.04167 19.3238 1.04167C21.8795 1.04167 23.9587 3.12083 23.9587 5.67656C23.9587 6.91458 23.4764 8.07865 22.6014 8.95417L17.8097 13.7464C17.6748 13.8807 17.5337 14.0062 17.3883 14.1193L18.029 14.9401C18.2071 14.801 18.3811 14.6474 18.5451 14.4833L23.3373 9.69115C24.4097 8.61875 25.0003 7.19323 25.0003 5.67656C25.0003 2.54688 22.4535 0 19.3238 0Z" fill="#FF5561"/>
</svg>
