<svg width="25" height="20" viewBox="0 0 25 20" fill="none" xmlns="http://www.w3.org/2000/svg">
<path fill-rule="evenodd" clip-rule="evenodd" d="M12.037 10L9.02778 12.9545L8.33333 12.2727L12.5 8.18182L16.6667 12.2727L15.9722 12.9545L12.963 10V20H12.037V10ZM11.1111 14.5455H4.63224C2.59068 14.5455 0.925926 12.9174 0.925926 10.9091C0.925926 9.18601 2.15242 7.73794 3.79723 7.3656C3.73581 7.0408 3.7037 6.7059 3.7037 6.36364C3.7037 3.35117 6.19101 0.909091 9.25926 0.909091C11.681 0.909091 13.7408 2.43042 14.5013 4.55276C15.2183 3.97983 16.1331 3.63636 17.1296 3.63636C19.3133 3.63636 21.1046 5.28561 21.2819 7.38461C22.8838 7.78463 24.0741 9.21092 24.0741 10.9091C24.0741 12.9133 22.4147 14.5455 20.3678 14.5455H13.8889V15.4545H20.3709C22.9275 15.4545 25 13.4144 25 10.9091C25 9.00326 23.8086 7.37137 22.1138 6.69592C21.6297 4.42932 19.5821 2.72727 17.1296 2.72727C16.3307 2.72727 15.5746 2.90792 14.9017 3.22989C13.7881 1.30132 11.6785 0 9.25926 0C5.67964 0 2.77778 2.8491 2.77778 6.36364C2.77778 6.48923 2.78148 6.61397 2.78879 6.73776C1.14783 7.43783 0 9.04466 0 10.9091C0 13.4195 2.06712 15.4545 4.62911 15.4545H11.1111V14.5455Z" fill="#FF5561"/>
</svg>
