<svg width="168" height="275" viewBox="0 0 168 275" fill="none" xmlns="http://www.w3.org/2000/svg">
<path d="M0 10C0 4.47716 4.47715 0 10 0H158C163.523 0 168 4.47715 168 10V265C168 270.523 163.523 275 158 275H10C4.47715 275 0 270.523 0 265V10Z" fill="#FF5561"/>
<path d="M23.3207 189.624H27.0807V199H29.0167V189.624H32.7767V187.8H23.3207V189.624ZM31.6527 202.2H33.4767V198.456C33.8447 198.904 34.7247 199.144 35.6527 199.144C38.1487 199.144 39.8127 197.24 39.8127 194.696C39.8127 192.232 38.2767 190.488 35.7807 190.488C34.9487 190.488 34.0047 190.776 33.4767 191.432V190.68H31.6527V202.2ZM35.5887 192.184C37.0287 192.184 37.9247 193.16 37.9247 194.84C37.9247 196.392 36.9327 197.448 35.4447 197.448C34.6287 197.448 33.8767 197.096 33.4767 196.424V193.544C33.8127 192.824 34.5327 192.184 35.5887 192.184ZM47.4574 196.344C46.9614 197.016 46.1294 197.448 45.2334 197.448C43.8574 197.448 42.7854 196.776 42.6414 195.464H48.8174C48.8814 194.968 48.9134 194.568 48.9134 194.296C48.9134 191.992 47.2494 190.488 45.0094 190.488C42.2254 190.488 40.7374 192.392 40.7374 194.824C40.7374 197.448 42.5294 199.144 45.2014 199.144C46.5614 199.144 47.7294 198.584 48.5774 197.448L47.4574 196.344ZM44.9294 192.136C46.0974 192.136 46.8814 192.728 47.0254 193.88H42.6574C42.8974 192.808 43.6974 192.136 44.9294 192.136ZM50.2308 199H52.0548V196.168L52.6628 195.576L55.8468 199H58.1828L53.9908 194.44L58.0388 190.68H55.6548L52.0548 194.056V190.68H50.2308V199ZM60.5336 199L64.9496 193.592V199H66.7736V190.68H65.1896L60.7736 196.104V190.68H58.9496V199H60.5336ZM71.8781 194.824C71.8781 197.32 73.7341 199.144 76.3261 199.144C78.9501 199.144 80.7901 197.32 80.7901 194.824C80.7901 192.312 78.9501 190.488 76.3261 190.488C73.6861 190.488 71.8781 192.312 71.8781 194.824ZM73.7661 194.824C73.7661 193.192 74.8701 192.184 76.3261 192.184C77.7661 192.184 78.9021 193.208 78.9021 194.824C78.9021 196.424 77.8461 197.448 76.3261 197.448C74.8061 197.448 73.7661 196.328 73.7661 194.824ZM89.3858 187.112C87.8498 187.576 85.9618 187.192 84.4738 187.944C82.2818 189.048 81.7698 191.144 81.7698 194.168C81.7698 197.4 83.5618 199.16 86.2338 199.16C88.7938 199.16 90.4578 197.336 90.4578 194.904C90.4578 192.376 88.7618 191.048 86.6178 191.048C85.3218 191.048 84.2178 191.416 83.5778 192.328C83.6578 191.048 84.0738 190.04 85.1298 189.544C86.3618 189 88.2818 189.336 89.6898 188.76L89.3858 187.112ZM83.6578 194.472C84.0258 193.56 84.9058 192.744 86.2658 192.744C87.7698 192.744 88.5698 193.656 88.5698 195.016C88.5698 196.424 87.7218 197.464 86.2178 197.464C84.6978 197.464 83.6578 196.232 83.6578 194.648V194.472ZM91.7703 202.104C92.0903 202.264 92.4743 202.344 92.9223 202.344C94.2663 202.344 95.1143 201.512 96.2343 198.76L99.4983 190.68H97.5463L95.3383 196.296L92.4743 190.68H90.3623L94.4583 198.504L94.1703 199.256C93.7543 200.28 93.3223 200.648 92.8583 200.648C92.7143 200.648 92.6023 200.616 92.4903 200.552L91.7703 202.104ZM107.224 190.68H105.4V193.896C105.032 194.392 104.312 194.808 103.56 194.808C102.216 194.808 101.64 194.216 101.64 192.568V190.68H99.8159V193.192C99.8159 195.448 100.984 196.504 103.16 196.504C104.04 196.504 104.872 196.216 105.4 195.736V199H107.224V190.68ZM115.254 196.344C114.758 197.016 113.926 197.448 113.03 197.448C111.654 197.448 110.582 196.776 110.438 195.464H116.614C116.678 194.968 116.71 194.568 116.71 194.296C116.71 191.992 115.046 190.488 112.806 190.488C110.022 190.488 108.534 192.392 108.534 194.824C108.534 197.448 110.326 199.144 112.998 199.144C114.358 199.144 115.526 198.584 116.374 197.448L115.254 196.344ZM112.726 192.136C113.894 192.136 114.678 192.728 114.822 193.88H110.454C110.694 192.808 111.494 192.136 112.726 192.136ZM123.852 199H125.676V190.68H123.852V193.944H119.852V190.68H118.028V199H119.852V195.624H123.852V199ZM128.971 199L133.387 193.592V199H135.211V190.68H133.627L129.211 196.104V190.68H127.387V199H128.971ZM140.422 190.68C137.702 190.68 136.726 191.96 136.726 193.432C136.726 194.712 137.446 195.688 138.63 195.96L136.23 199H138.358L140.47 196.264H142.022V199H143.846V190.68H140.422ZM138.614 193.496C138.614 192.824 139.078 192.376 140.262 192.376H142.022V194.568H140.214C139.174 194.568 138.614 194.12 138.614 193.496Z" fill="white"/>
<path fill-rule="evenodd" clip-rule="evenodd" d="M104.457 76.7455L77.7993 103.218L76.6959 90.6272L76.6273 80.6784L76.4927 72.1398L76.4187 72.0751L77.1103 46.9613L85.676 54.9514L83.6012 55.4921L85.8792 57.9942C91.7524 64.6284 97.9661 70.5848 104.388 76.6756L104.457 76.7455ZM66.4752 115.061L60.9505 108.02L63.2971 105.448L66.4752 115.061ZM114.678 52.0405L122 59.0783L111.919 61.6477L114.678 52.0405ZM74.3493 70.1785L63.1572 59.8908L49.4865 61.3786L47 58.7394L61.5734 59.1456L47.4118 45H75.1069L74.3493 70.1785ZM74.4153 73.0247L74.4865 80.6733L74.5552 88.1769L51.2815 63.2752L62.3996 62.0565L74.4153 73.0247ZM105.84 75.2551C99.0035 68.6882 93.9618 63.9505 87.4023 56.6254L112.954 50.3353L105.84 75.2551ZM75.8671 105.179L72.3405 108.157L74.7584 117.495L70.1338 110.931L70.3449 120L64.8862 103.699L73.3119 94.4204L52.662 72.7531L59.0869 74.6471L74.6264 91.2999L75.8671 105.179Z" fill="white"/>
</svg>
