<svg width="168" height="275" viewBox="0 0 168 275" fill="none" xmlns="http://www.w3.org/2000/svg">
<path d="M0 10C0 4.47716 4.47715 0 10 0H158C163.523 0 168 4.47715 168 10V265C168 270.523 163.523 275 158 275H10C4.47715 275 0 270.523 0 265V10Z" fill="#FF5561"/>
<path d="M13.6703 194.184H19.0943C18.8703 196.056 17.4463 197.32 15.3663 197.32C14.0863 197.32 12.6303 196.856 11.8303 195.768L10.5183 196.872C11.7343 198.6 13.6863 199.128 15.2863 199.128C18.9823 199.128 21.0943 196.68 21.0943 193.352C21.0943 189.88 18.9183 187.672 15.4143 187.672C13.6063 187.672 11.7023 188.36 10.6143 189.816L11.8943 191.064C12.7743 189.96 14.1983 189.48 15.3183 189.48C17.4143 189.48 18.7583 190.616 19.0623 192.376H13.6703V194.184ZM27.5611 199H29.3851V190.68H22.8251V193.048C22.8251 196.904 21.8491 197.448 20.9691 197.368L21.1131 199.064C23.1771 199.24 24.6171 198.088 24.6171 193.672V192.376H27.5611V199ZM37.4184 196.344C36.9224 197.016 36.0904 197.448 35.1944 197.448C33.8184 197.448 32.7464 196.776 32.6024 195.464H38.7784C38.8424 194.968 38.8744 194.568 38.8744 194.296C38.8744 191.992 37.2104 190.488 34.9704 190.488C32.1864 190.488 30.6984 192.392 30.6984 194.824C30.6984 197.448 32.4904 199.144 35.1624 199.144C36.5224 199.144 37.6904 198.584 38.5384 197.448L37.4184 196.344ZM34.8904 192.136C36.0584 192.136 36.8424 192.728 36.9864 193.88H32.6184C32.8584 192.808 33.6584 192.136 34.8904 192.136ZM40.1918 199H42.0158V196.168L42.6238 195.576L45.8078 199H48.1438L43.9518 194.44L47.9998 190.68H45.6158L42.0158 194.056V190.68H40.1918V199ZM48.1105 192.376H51.1185V199H52.9425V192.376H55.9505V190.68H48.1105V192.376ZM56.848 202.2H58.672V198.456C59.04 198.904 59.92 199.144 60.848 199.144C63.344 199.144 65.008 197.24 65.008 194.696C65.008 192.232 63.472 190.488 60.976 190.488C60.144 190.488 59.2 190.776 58.672 191.432V190.68H56.848V202.2ZM60.784 192.184C62.224 192.184 63.12 193.16 63.12 194.84C63.12 196.392 62.128 197.448 60.64 197.448C59.824 197.448 59.072 197.096 58.672 196.424V193.544C59.008 192.824 59.728 192.184 60.784 192.184ZM65.9328 194.824C65.9328 197.32 67.7888 199.144 70.3808 199.144C73.0048 199.144 74.8448 197.32 74.8448 194.824C74.8448 192.312 73.0048 190.488 70.3808 190.488C67.7408 190.488 65.9328 192.312 65.9328 194.824ZM67.8207 194.824C67.8207 193.192 68.9248 192.184 70.3808 192.184C71.8208 192.184 72.9568 193.208 72.9568 194.824C72.9568 196.424 71.9008 197.448 70.3808 197.448C68.8608 197.448 67.8207 196.328 67.8207 194.824ZM81.9845 199H83.8085V190.68H81.9845V193.944H77.9845V190.68H76.1605V199H77.9845V195.624H81.9845V199ZM91.3439 199H93.1679V190.68H91.3439V193.944H87.3439V190.68H85.5199V199H87.3439V195.624H91.3439V199ZM94.8793 199H98.0153C100.719 199 101.663 197.56 101.663 196.024C101.663 194.456 100.831 193.096 98.1432 193.096H96.7033V190.68H94.8793V199ZM97.9993 194.792C99.2793 194.792 99.7753 195.224 99.7753 196.04C99.7753 196.856 99.3113 197.304 97.9833 197.304H96.7033V194.792H97.9993ZM102.495 199H104.319V190.68H102.495V199ZM107.604 199L112.02 193.592V199H113.844V190.68H112.26L107.844 196.104V190.68H106.02V199H107.604ZM107.284 187.144C107.316 188.808 108.548 189.64 110.116 189.64C111.572 189.64 112.836 188.776 112.868 187.144H111.204C111.204 187.8 110.836 188.232 110.116 188.232C109.364 188.232 108.98 187.784 108.964 187.144H107.284ZM119.332 199H121.156V196.168L121.764 195.576L124.948 199H127.284L123.092 194.44L127.14 190.68H124.756L121.156 194.056V190.68H119.332V199ZM128.169 202.104C128.489 202.264 128.873 202.344 129.321 202.344C130.665 202.344 131.513 201.512 132.633 198.76L135.897 190.68H133.945L131.737 196.296L128.873 190.68H126.761L130.857 198.504L130.569 199.256C130.153 200.28 129.721 200.648 129.257 200.648C129.113 200.648 129.001 200.616 128.889 200.552L128.169 202.104ZM136.582 202.2H138.406V198.456C138.774 198.904 139.654 199.144 140.582 199.144C143.078 199.144 144.742 197.24 144.742 194.696C144.742 192.232 143.206 190.488 140.71 190.488C139.878 190.488 138.934 190.776 138.406 191.432V190.68H136.582V202.2ZM140.518 192.184C141.958 192.184 142.854 193.16 142.854 194.84C142.854 196.392 141.862 197.448 140.374 197.448C139.558 197.448 138.806 197.096 138.406 196.424V193.544C138.742 192.824 139.462 192.184 140.518 192.184ZM152.419 196.264C151.955 196.968 151.267 197.448 150.323 197.448C148.643 197.448 147.555 196.328 147.555 194.824C147.555 193.256 148.627 192.184 150.131 192.184C151.075 192.184 151.699 192.52 152.259 193.272L153.619 192.376C153.075 191.272 151.763 190.488 150.051 190.488C147.427 190.488 145.667 192.36 145.667 194.824C145.667 197.448 147.475 199.144 150.147 199.144C151.587 199.144 153.027 198.44 153.715 197.096L152.419 196.264ZM16.7523 224L21.1683 218.592V224H22.9923V215.68H21.4083L16.9923 221.104V215.68H15.1683V224H16.7523ZM30.4596 224H32.2836V215.68H25.7236V218.048C25.7236 221.904 24.7476 222.448 23.8676 222.368L24.0116 224.064C26.0756 224.24 27.5156 223.088 27.5156 218.672V217.376H30.4596V224ZM35.5648 224L39.9808 218.592V224H41.8048V215.68H40.2208L35.8048 221.104V215.68H33.9808V224H35.5648ZM46.4933 217.376H49.5013V224H51.3253V217.376H54.3333V215.68H46.4933V217.376ZM61.2699 221.344C60.7739 222.016 59.9419 222.448 59.0459 222.448C57.6699 222.448 56.5979 221.776 56.4539 220.464H62.6299C62.6939 219.968 62.7259 219.568 62.7259 219.296C62.7259 216.992 61.0619 215.488 58.8219 215.488C56.0379 215.488 54.5499 217.392 54.5499 219.824C54.5499 222.448 56.3419 224.144 59.0139 224.144C60.3739 224.144 61.5419 223.584 62.3899 222.448L61.2699 221.344ZM58.7419 217.136C59.9099 217.136 60.6939 217.728 60.8379 218.88H56.4699C56.7099 217.808 57.5099 217.136 58.7419 217.136ZM70.2551 221.264C69.7911 221.968 69.1031 222.448 68.1591 222.448C66.4791 222.448 65.3911 221.328 65.3911 219.824C65.3911 218.256 66.4631 217.184 67.9671 217.184C68.9111 217.184 69.5351 217.52 70.0951 218.272L71.4551 217.376C70.9111 216.272 69.5991 215.488 67.8871 215.488C65.2631 215.488 63.5031 217.36 63.5031 219.824C63.5031 222.448 65.3111 224.144 67.9831 224.144C69.4231 224.144 70.8631 223.44 71.5511 222.096L70.2551 221.264ZM71.8214 217.376H74.8294V224H76.6534V217.376H79.6614V215.68H71.8214V217.376ZM82.1429 224L86.5589 218.592V224H88.3829V215.68H86.7989L82.3829 221.104V215.68H80.5589V224H82.1429ZM90.0902 227.2H91.9142V223.456C92.2822 223.904 93.1622 224.144 94.0902 224.144C96.5862 224.144 98.2502 222.24 98.2502 219.696C98.2502 217.232 96.7142 215.488 94.2182 215.488C93.3862 215.488 92.4422 215.776 91.9142 216.432V215.68H90.0902V227.2ZM94.0262 217.184C95.4662 217.184 96.3622 218.16 96.3622 219.84C96.3622 221.392 95.3702 222.448 93.8822 222.448C93.0662 222.448 92.3142 222.096 91.9142 221.424V218.544C92.2502 217.824 92.9702 217.184 94.0262 217.184ZM99.1749 219.824C99.1749 222.32 101.031 224.144 103.623 224.144C106.247 224.144 108.087 222.32 108.087 219.824C108.087 217.312 106.247 215.488 103.623 215.488C100.983 215.488 99.1749 217.312 99.1749 219.824ZM101.063 219.824C101.063 218.192 102.167 217.184 103.623 217.184C105.063 217.184 106.199 218.208 106.199 219.824C106.199 221.424 105.143 222.448 103.623 222.448C102.103 222.448 101.063 221.328 101.063 219.824ZM109.403 224H113.339C115.451 224 116.699 223.152 116.699 221.52C116.699 220.624 116.315 219.888 115.531 219.584C116.091 219.168 116.459 218.656 116.459 217.888C116.459 216.272 115.259 215.68 112.955 215.68H109.403V224ZM113.211 220.56C114.299 220.56 114.811 220.816 114.811 221.472C114.811 222.096 114.251 222.352 113.163 222.352H111.227V220.56H113.211ZM112.907 217.328C113.963 217.328 114.571 217.456 114.571 218.128C114.571 218.704 114.123 218.976 113.371 218.976H111.227V217.328H112.907ZM118.877 218.064C119.677 217.456 120.349 217.184 121.261 217.184C122.605 217.184 123.069 217.856 123.053 219.056C122.669 218.928 121.933 218.832 121.341 218.832C119.133 218.832 117.453 219.616 117.453 221.472C117.453 223.072 118.653 224.096 120.477 224.096C121.709 224.096 122.557 223.632 123.053 223.088V224H124.877V218.912C124.877 216.736 123.661 215.488 121.469 215.488C120.109 215.488 118.765 215.952 117.981 216.72L118.877 218.064ZM120.877 222.512C119.949 222.512 119.341 222.112 119.341 221.456C119.341 220.624 120.221 220.352 121.533 220.352C122.125 220.352 122.717 220.464 123.053 220.576V221.376C122.685 221.936 121.981 222.512 120.877 222.512ZM132.352 224H134.176V215.68H132.352V218.944H128.352V215.68H126.528V224H128.352V220.624H132.352V224ZM137.471 224L141.887 218.592V224H143.711V215.68H142.127L137.711 221.104V215.68H135.887V224H137.471ZM151.754 221.344C151.258 222.016 150.426 222.448 149.53 222.448C148.154 222.448 147.082 221.776 146.938 220.464H153.114C153.178 219.968 153.21 219.568 153.21 219.296C153.21 216.992 151.546 215.488 149.306 215.488C146.522 215.488 145.034 217.392 145.034 219.824C145.034 222.448 146.826 224.144 149.498 224.144C150.858 224.144 152.026 223.584 152.874 222.448L151.754 221.344ZM149.226 217.136C150.394 217.136 151.178 217.728 151.322 218.88H146.954C147.194 217.808 147.994 217.136 149.226 217.136Z" fill="white"/>
<g clip-path="url(#clip0_1739_705)">
<path fill-rule="evenodd" clip-rule="evenodd" d="M55.2876 90.6824C55.9703 92.9762 56.8964 95.1904 58.0501 97.2872L54.7512 101.463C54.2085 102.115 53.9283 102.945 53.9653 103.792C54.0024 104.64 54.354 105.443 54.9515 106.044L60.6791 111.772C61.2811 112.369 62.0837 112.72 62.9306 112.758C63.7775 112.795 64.608 112.516 65.2603 111.975L69.4386 108.673C71.5709 109.927 73.8557 110.9 76.2367 111.569L76.8444 116.961C76.9421 117.802 77.3471 118.576 77.9816 119.137C78.616 119.697 79.4352 120.002 80.2815 119.995H88.3641C89.2107 120.002 90.0301 119.697 90.6649 119.137C91.2998 118.577 91.7053 117.802 91.8035 116.961L92.4089 111.772C94.9512 111.096 97.3973 110.1 99.6881 108.807L103.728 112.041C104.383 112.558 105.205 112.816 106.038 112.766C106.871 112.717 107.656 112.363 108.245 111.772L113.97 106.044C114.576 105.451 114.94 104.653 114.99 103.806C115.039 102.959 114.772 102.124 114.24 101.463L111.15 97.4874C112.439 95.2454 113.434 92.8469 114.111 90.3509L118.961 89.7432C119.796 89.6612 120.571 89.2705 121.133 88.6475C121.695 88.0246 122.004 87.2142 122 86.3752V78.2166C121.994 77.3805 121.681 76.5757 121.121 75.9549C120.561 75.3342 119.792 74.9405 118.961 74.8486L114.18 74.3099C113.548 71.8187 112.597 69.4199 111.348 67.1734L114.247 63.4694C114.764 62.8153 115.023 61.9935 114.974 61.1607C114.924 60.328 114.569 59.5427 113.977 58.9549L108.252 53.2204C107.671 52.6151 106.884 52.2511 106.046 52.2012C105.209 52.1513 104.384 52.4191 103.735 52.9511L100.098 55.7804C97.7835 54.407 95.2884 53.364 92.6852 52.6817L92.1442 48.0315C92.0465 47.1914 91.6417 46.4171 91.0077 45.8575C90.3737 45.2978 89.5551 44.9923 88.7094 44.9996H80.6222C79.7768 44.9933 78.9588 45.2992 78.3249 45.8587C77.6911 46.4181 77.2861 47.1919 77.1874 48.0315L76.6488 52.6817C73.976 53.4061 71.4142 54.4904 69.0334 55.9047L65.2603 52.9511C64.5925 52.436 63.7612 52.1797 62.9193 52.2292C62.0775 52.2786 61.2819 52.6307 60.6791 53.2204L54.9515 58.9457C54.3526 59.5467 53.9999 60.3498 53.9629 61.1975C53.9258 62.0451 54.207 62.876 54.7512 63.5269L57.8498 67.4405C56.5837 69.6785 55.631 72.0797 55.0183 74.577L50.0319 75.1824C49.2013 75.276 48.4339 75.671 47.8751 76.2926C47.3163 76.9142 47.0049 77.7192 47.0001 78.555V86.7044C46.9952 87.543 47.3032 88.3533 47.8639 88.9769C48.4245 89.6006 49.1975 89.9928 50.0319 90.077L55.2876 90.6824ZM77.6617 82.731C77.4875 82.7595 77.3297 82.8504 77.2179 82.9869C77.106 83.1234 77.0477 83.2959 77.0539 83.4723C77.0642 83.5662 77.0935 83.657 77.1403 83.7391C77.187 83.8212 77.2501 83.8928 77.3256 83.9496C77.4011 84.0063 77.4875 84.047 77.5793 84.069C77.6712 84.0911 77.7666 84.094 77.8597 84.0777C78.4007 84.011 80.5577 83.8774 80.8271 84.8213C80.848 84.9133 80.8884 84.9998 80.9455 85.0749C81.0026 85.15 81.0752 85.212 81.1583 85.2567C81.2414 85.3015 81.3331 85.3278 81.4273 85.3341C81.5214 85.3404 81.6158 85.3265 81.7042 85.2932C81.8682 85.24 82.0065 85.1274 82.0917 84.9774C82.1769 84.8275 82.2029 84.6511 82.1646 84.4829C81.7042 82.9336 79.9384 82.6642 78.7299 82.6642C78.1889 82.6642 77.786 82.731 77.6525 82.731H77.6617ZM66.4735 83.4055C66.3598 83.5328 66.2991 83.6988 66.304 83.8695C66.3089 84.0401 66.379 84.2024 66.4999 84.3229C66.6207 84.4435 66.7832 84.5132 66.9538 84.5177C67.1244 84.5221 67.2903 84.4611 67.4173 84.3471C67.5509 84.2803 69.1669 82.5307 68.8976 77.8137C69.0334 76.8008 69.777 74.105 71.2572 73.9002C71.3493 73.9019 71.4405 73.8828 71.5241 73.8443C71.6077 73.8057 71.6815 73.7488 71.7399 73.6777C71.7984 73.6066 71.84 73.5232 71.8617 73.4338C71.8833 73.3443 71.8845 73.2511 71.865 73.1612C71.8384 72.9979 71.7568 72.8485 71.6337 72.738C71.5106 72.6274 71.3534 72.5623 71.1882 72.5534H71.1214C68.2921 72.9632 67.5509 77.4753 67.5509 77.6894V77.8252C67.8202 81.9345 66.5402 83.3503 66.4735 83.417V83.4055ZM71.5957 69.3213C71.7589 69.3982 71.9446 69.4133 72.1181 69.3637C72.2917 69.3142 72.4414 69.2034 72.5395 69.0519C73.8172 66.9639 76.5129 63.6627 78.1981 64.0656C78.2863 64.0867 78.378 64.0893 78.4672 64.0732C78.5565 64.057 78.6415 64.0226 78.7168 63.972C78.7921 63.9213 78.856 63.8556 78.9046 63.779C78.9533 63.7024 78.9854 63.6166 78.9992 63.5269C79.1327 63.1908 78.8634 62.8547 78.525 62.7189H77.9218C74.8877 62.7189 71.7223 67.7835 71.3816 68.3797C71.294 68.5344 71.2664 68.7159 71.3042 68.8896C71.342 69.0633 71.4425 69.217 71.5864 69.3213H71.5957ZM76.8513 68.6468C76.6724 68.6829 76.515 68.7884 76.4136 68.9403C76.3122 69.0921 76.2751 69.278 76.3103 69.4571C76.3429 69.6246 76.4377 69.7736 76.5757 69.874C76.7136 69.9743 76.8845 70.0187 77.0539 69.9981C77.1874 69.9981 80.4887 69.4571 81.3657 66.0845C81.4034 65.9146 81.3754 65.7366 81.2875 65.5864C81.1996 65.4361 81.0581 65.3246 80.8915 65.2742L80.6935 65.2074C80.5454 65.2134 80.4039 65.2702 80.2927 65.3683C80.1816 65.4665 80.1077 65.5999 80.0835 65.7461C79.4113 68.2393 76.9872 68.6422 76.8605 68.6422L76.8513 68.6468ZM78.4006 86.7735L78.129 86.8402C77.9625 86.9072 77.8279 87.0355 77.753 87.1986C77.678 87.3617 77.6684 87.5474 77.7261 87.7173C79.5448 91.9624 77.8597 98.3645 77.8597 98.3645C77.8232 98.5428 77.8507 98.7283 77.9374 98.8883C78.0242 99.0483 78.1646 99.1726 78.3339 99.2393C78.5214 99.2772 78.7163 99.2427 78.8794 99.1428C79.0426 99.0429 79.1618 98.8849 79.2133 98.7006C79.2754 98.4313 80.9606 91.8933 79.0084 87.2454C78.9598 87.1198 78.8773 87.0102 78.7699 86.9289C78.6626 86.8476 78.5347 86.7977 78.4006 86.785V86.7735ZM75.5714 81.0459C75.9052 80.9791 76.1745 81.0459 76.5843 81.3175C76.6595 81.3668 76.7437 81.4007 76.8321 81.4171C76.9205 81.4335 77.0113 81.4321 77.0992 81.4131C77.1871 81.394 77.2703 81.3576 77.3439 81.306C77.4176 81.2544 77.4802 81.1887 77.5282 81.1126C77.6234 80.9599 77.6553 80.7761 77.617 80.6002C77.5788 80.4243 77.4734 80.2704 77.3233 80.1711C76.8949 79.8553 76.3726 79.6931 75.8407 79.7107C75.6139 79.6967 75.3863 79.7185 75.1662 79.7751C73.8862 80.1135 73.2785 81.5938 73.2094 81.7296C72.2679 83.9511 71.4598 83.8867 71.3908 83.8867C71.307 83.8544 71.2176 83.8393 71.1279 83.8422C71.0381 83.8451 70.9499 83.866 70.8684 83.9035C70.7868 83.9411 70.7136 83.9946 70.6531 84.0609C70.5926 84.1272 70.546 84.2049 70.516 84.2895C70.4861 84.466 70.515 84.6473 70.5981 84.8058C70.6813 84.9642 70.8142 85.091 70.9764 85.1666C71.1767 85.2334 72.9976 85.7053 74.4802 82.266C74.5469 81.9966 75.0189 81.2577 75.5599 81.0551L75.5714 81.0459ZM71.4598 70.9397C72.673 71.0064 74.2868 71.3425 74.761 72.4222C75.2215 73.6331 74.3582 75.3206 73.8172 75.926C70.7853 79.363 70.6518 82.1923 70.6518 82.3281C70.6636 82.5031 70.7385 82.6679 70.8625 82.7919C70.9866 82.9159 71.1513 82.9908 71.3263 83.0026C71.4163 83.008 71.5064 82.9942 71.5906 82.9622C71.6749 82.9302 71.7514 82.8807 71.8152 82.817C71.8789 82.7533 71.9284 82.6767 71.9604 82.5925C71.9924 82.5082 72.0062 82.4181 72.0008 82.3281C72.0008 82.3281 72.1343 79.835 74.8301 76.8031C75.1386 76.4626 75.389 76.0738 75.5714 75.6521C75.7136 75.638 75.851 75.5932 75.9742 75.5208C76.3794 75.1824 77.4568 74.4412 78.3339 74.577C78.5175 74.6024 78.6926 74.6704 78.8453 74.7756C78.998 74.8807 79.124 75.02 79.2133 75.1824C79.2594 75.2595 79.3209 75.3263 79.3939 75.3788C79.4668 75.4312 79.5497 75.4682 79.6375 75.4873C79.7253 75.5065 79.816 75.5076 79.9042 75.4904C79.9924 75.4732 80.0761 75.4381 80.1502 75.3873C80.2944 75.2826 80.3947 75.1282 80.4317 74.9539C80.4687 74.7795 80.4398 74.5977 80.3505 74.4435C80.1459 74.1281 79.879 73.8579 79.5663 73.6493C79.2536 73.4407 78.9016 73.2981 78.5319 73.2302H78.1267C77.4425 73.2572 76.7736 73.4415 76.1722 73.7689C76.2413 73.1635 76.2413 72.489 75.9719 71.948C75.3665 70.5345 73.8839 69.7265 71.522 69.5929C71.4321 69.5875 71.3421 69.6013 71.2579 69.6333C71.1738 69.6653 71.0974 69.7149 71.0338 69.7787C70.9703 69.8424 70.921 69.919 70.8893 70.0033C70.8575 70.0875 70.8441 70.1776 70.8498 70.2675C70.8425 70.3522 70.8527 70.4374 70.8799 70.518C70.907 70.5986 70.9504 70.6727 71.0074 70.7358C71.0644 70.7988 71.1338 70.8495 71.2113 70.8846C71.2887 70.9196 71.3725 70.9384 71.4575 70.9397H71.4598ZM77.4568 100.588C77.3923 100.588 76.2436 99.9806 76.041 98.9009C75.9052 97.9594 76.5014 96.8797 77.7261 95.8023C77.8508 95.6668 77.9255 95.4928 77.938 95.3091C77.9506 95.1254 77.9002 94.9429 77.7952 94.7917C77.6485 94.6572 77.4555 94.5846 77.2565 94.5891C77.1776 94.5874 77.0995 94.605 77.0289 94.6403C76.9583 94.6756 76.8973 94.7275 76.8513 94.7917C76.5648 95.0448 76.2941 95.3155 76.041 95.602C76.0683 95.4976 76.0702 95.3881 76.0466 95.2828C76.0229 95.1775 75.9745 95.0793 75.9052 94.9966C75.9052 94.9966 73.4143 91.8933 75.233 88.9305L75.302 88.728C75.3688 88.4586 76.1101 85.6293 75.3688 84.0777C75.3274 83.9521 75.2449 83.8441 75.1347 83.771C75.0245 83.6979 74.8928 83.6641 74.761 83.6749L74.4917 83.7416C74.3316 83.8137 74.2063 83.9458 74.143 84.1096C74.0796 84.2733 74.0833 84.4554 74.1533 84.6164C74.5585 85.4268 74.2868 87.3145 74.0198 88.3251C71.865 92.0959 74.761 95.7355 74.8969 95.8714C74.9931 95.9869 75.1277 96.064 75.276 96.0885C75.4244 96.1131 75.5766 96.0834 75.7049 96.0049C74.8976 97.0792 74.5608 98.0898 74.6943 99.0367C74.9636 100.858 76.7178 101.799 76.8513 101.799C76.9248 101.845 77.0073 101.875 77.0933 101.886C77.1793 101.898 77.2667 101.891 77.3497 101.865C77.4326 101.84 77.5092 101.797 77.5741 101.74C77.6391 101.682 77.6909 101.611 77.7261 101.532C77.7865 101.367 77.793 101.186 77.7446 101.017C77.6963 100.847 77.5955 100.697 77.4568 100.588ZM64.4522 83.2144C63.4416 89.414 66.0016 91.502 66.8787 92.0407C66.5402 96.0832 68.8308 97.8351 69.5744 98.3093C69.6337 99.048 69.8639 99.7627 70.2466 100.397C71.6601 102.824 74.8969 103.62 75.3688 103.765C76.4439 104.843 77.5903 105.45 78.7391 105.45H78.8035C80.8915 105.384 82.846 103.293 83.5896 102.285V63.9988C82.648 61.9085 80.9606 60.1589 79.3468 59.7561C78.9324 59.6225 78.4999 59.5534 78.0645 59.5512C75.7624 59.5512 73.8172 61.1028 73.7504 61.1627L73.6146 61.3652C72.1343 63.7226 70.516 65.6103 68.7641 66.9593C64.2497 70.3273 64.3187 73.9646 64.3901 74.7865C63.9659 75.3207 63.6663 75.9428 63.513 76.6074C62.6359 79.6393 64.1852 82.7379 64.4569 83.2098L64.4522 83.2144ZM69.5744 68.0528C71.6122 66.4107 73.3452 64.4228 74.6943 62.1802C75.0971 61.8418 77.0539 60.4951 79.0084 61.0291C80.4242 61.4343 81.5706 62.8501 82.3787 65.2074V101.463C81.8377 102.338 80.4242 104.023 78.8035 104.092H78.7391C77.5282 104.092 76.3794 103.148 75.1662 101.33C75.081 101.207 74.9572 101.116 74.8145 101.072C74.6718 101.028 74.5184 101.032 74.3787 101.085C74.239 101.138 74.121 101.236 74.0435 101.364C73.9659 101.492 73.9333 101.642 73.9507 101.79C73.0759 101.385 72.0008 100.713 71.3908 99.7021C70.8521 98.6914 70.7853 97.4782 71.1882 96.1292C71.2207 96.0456 71.236 95.9563 71.2332 95.8666C71.2305 95.777 71.2097 95.6888 71.1721 95.6074C71.1345 95.5259 71.0808 95.4529 71.0144 95.3927C70.9479 95.3324 70.87 95.2862 70.7853 95.2567H70.5827C70.4363 95.2523 70.2923 95.2945 70.1715 95.3772C70.0507 95.46 69.9593 95.579 69.9105 95.7171C69.8438 95.9865 69.777 96.3226 69.7079 96.661C68.6973 95.7839 67.2148 93.4933 69.1669 88.507C69.2269 88.3374 69.2184 88.1511 69.1432 87.9878C69.0679 87.8244 68.9319 87.6968 68.7641 87.6322L68.5615 87.5654C68.4209 87.5542 68.2802 87.5873 68.1593 87.6599C68.0384 87.7325 67.9432 87.8412 67.887 87.9706C67.566 88.8005 67.3187 89.6572 67.148 90.5305C66.2709 89.7202 64.7884 87.4963 66.0683 81.969C66.1023 81.7909 66.0648 81.6065 65.9641 81.4558C65.8633 81.305 65.7072 81.2 65.5296 81.1633H65.3961L65.1268 81.23C64.7239 80.1527 64.3187 78.5366 64.7884 76.9827C65.1268 75.7718 65.9394 74.8302 67.148 74.1534C67.2989 74.0554 67.4093 73.906 67.4588 73.733C67.5083 73.56 67.4936 73.3749 67.4173 73.2118C67.3476 73.1144 67.2572 73.0338 67.1525 72.9756C67.0477 72.9175 66.9314 72.8834 66.8119 72.8757L66.4735 72.9448C66.2374 73.0811 66.012 73.2351 65.799 73.4052C66.0683 72.1229 66.8119 70.0372 69.5744 68.0137V68.0528ZM91.3384 82.731C91.5068 82.7711 91.6574 82.8654 91.7672 82.9992C91.877 83.1331 91.9398 83.2993 91.9462 83.4723C91.9139 83.658 91.8117 83.8243 91.6605 83.9369C91.5093 84.0496 91.3207 84.0999 91.1335 84.0777C90.5949 84.011 88.371 83.8774 88.173 84.8213C88.1509 84.9134 88.1093 84.9998 88.051 85.0745C87.9928 85.1493 87.9192 85.2107 87.8353 85.2548C87.7514 85.2988 87.6591 85.3244 87.5644 85.3298C87.4698 85.3353 87.3752 85.3204 87.2867 85.2863C87.1227 85.2331 86.9844 85.1205 86.8992 84.9705C86.814 84.8206 86.788 84.6442 86.8263 84.476C87.2292 82.9267 89.0455 82.6573 90.2611 82.6573C90.7997 82.6573 91.2026 82.7241 91.3384 82.7241V82.731ZM102.522 83.4055C102.622 83.5422 102.675 83.7071 102.675 83.8763C102.675 84.0455 102.622 84.2104 102.522 84.3471C102.385 84.4766 102.204 84.5488 102.016 84.5488C101.827 84.5488 101.646 84.4766 101.509 84.3471C101.445 84.2803 99.7595 82.5307 100.098 77.8137C99.8953 76.8008 99.1517 74.105 97.7406 73.9002C97.6484 73.9023 97.557 73.8835 97.4731 73.8451C97.3893 73.8068 97.3153 73.7498 97.2568 73.6786C97.1982 73.6074 97.1566 73.5238 97.1352 73.4342C97.1137 73.3445 97.1129 73.2512 97.1328 73.1612C97.1584 72.9983 97.2391 72.849 97.3614 72.7384C97.4838 72.6278 97.6403 72.5625 97.805 72.5534H97.8764C100.703 72.9609 101.376 77.473 101.445 77.6756V77.8114C101.178 81.9207 102.458 83.3365 102.522 83.4032V83.4055ZM97.3354 69.3213C97.1818 69.3909 97.0081 69.402 96.847 69.3524C96.6858 69.3027 96.5484 69.1959 96.4606 69.0519C95.1783 66.9639 92.4849 63.6627 90.7307 64.0656C90.5529 64.0938 90.3711 64.054 90.2214 63.9542C90.0716 63.8544 89.965 63.7018 89.9226 63.5269C89.9112 63.3526 89.9578 63.1794 90.0553 63.0344C90.1528 62.8895 90.2956 62.7809 90.4613 62.7258H91C94.0319 62.7258 97.2019 67.7904 97.607 68.3866C97.6513 68.4662 97.6795 68.5538 97.6898 68.6443C97.7001 68.7348 97.6924 68.8264 97.6671 68.9139C97.6419 69.0015 97.5996 69.0831 97.5426 69.1542C97.4857 69.2253 97.4153 69.2844 97.3354 69.3282V69.3213ZM92.1442 68.6468C92.3231 68.6829 92.4805 68.7884 92.5819 68.9403C92.6833 69.0921 92.7204 69.278 92.6852 69.4571C92.6542 69.6245 92.5604 69.7737 92.4231 69.8743C92.2857 69.9749 92.1151 70.0191 91.9462 69.9981C91.8104 69.9981 88.493 69.4571 87.6321 66.0845C87.6067 66.0011 87.5986 65.9134 87.6082 65.8267C87.6179 65.74 87.6451 65.6563 87.6881 65.5804C87.7312 65.5046 87.7893 65.4384 87.8588 65.3857C87.9283 65.3331 88.0078 65.2951 88.0925 65.2742L88.2283 65.2074C88.3867 65.2 88.5424 65.2507 88.6661 65.3498C88.7899 65.449 88.8732 65.5899 88.9005 65.7461C89.5796 68.2393 92.0014 68.6422 92.1234 68.6422L92.1442 68.6468ZM90.5949 86.7735L90.8642 86.8402C91.0312 86.9068 91.1662 87.0349 91.2416 87.198C91.317 87.3612 91.3269 87.5471 91.2694 87.7173C89.453 91.9624 91.0691 98.3645 91.1335 98.3645C91.1724 98.5516 91.1382 98.7464 91.0381 98.909C90.9379 99.0717 90.7793 99.1898 90.5949 99.2393C90.4172 99.267 90.2356 99.227 90.086 99.1272C89.9364 99.0275 89.8296 98.8753 89.7868 98.7006C89.7224 98.4313 88.0372 91.8933 89.9917 87.2454C90.0388 87.1197 90.1203 87.0098 90.227 86.9284C90.3337 86.847 90.4612 86.7973 90.5949 86.785V86.7735ZM93.4287 81.0459C93.2504 81.0097 93.0661 81.0154 92.8903 81.0626C92.7146 81.1097 92.5521 81.197 92.4158 81.3175C92.3411 81.3684 92.2569 81.4036 92.1682 81.4209C92.0795 81.4382 91.9881 81.4372 91.8998 81.418C91.8115 81.3989 91.728 81.3619 91.6544 81.3094C91.5809 81.2569 91.5188 81.1899 91.472 81.1126C91.3787 80.9652 91.3412 80.7894 91.3661 80.6168C91.391 80.4442 91.4767 80.2861 91.6078 80.1711C92.0642 79.8611 92.6055 79.7002 93.1571 79.7107C93.3612 79.6919 93.567 79.7138 93.7625 79.7751C95.0425 80.1135 95.717 81.5938 95.7861 81.7296C96.6632 83.9511 97.538 83.8867 97.607 83.8867C97.686 83.8547 97.7709 83.84 97.856 83.8434C97.9411 83.8468 98.0246 83.8683 98.1008 83.9064C98.177 83.9445 98.2442 83.9983 98.298 84.0644C98.3518 84.1304 98.3909 84.2072 98.4128 84.2895C98.4705 84.4595 98.4609 84.6451 98.3859 84.8083C98.311 84.9714 98.1765 85.0996 98.0099 85.1666C97.805 85.2334 95.9864 85.7053 94.5061 82.266C94.3703 81.9966 93.9651 81.2577 93.4287 81.0551V81.0459ZM97.538 70.9397C96.2557 71.0064 94.7087 71.3425 94.2345 72.4222C93.7625 73.6331 94.6396 75.3206 95.1783 75.926C98.2102 79.363 98.3368 82.1923 98.3368 82.3281C98.3255 82.5029 98.2511 82.6677 98.1275 82.7917C98.0038 82.9158 97.8393 82.9907 97.6646 83.0026C97.5747 83.0076 97.4848 82.9936 97.4007 82.9615C97.3166 82.9294 97.2402 82.8798 97.1765 82.8162C97.1129 82.7525 97.0634 82.6762 97.0312 82.5921C96.9991 82.508 96.9851 82.418 96.9901 82.3281C96.9901 82.3281 96.8566 79.835 94.1631 76.8031C93.8515 76.465 93.6007 76.0756 93.4218 75.6521C93.2768 75.6492 93.1359 75.6035 93.0167 75.5208C92.6138 75.1824 91.465 74.4412 90.5879 74.577C90.4175 74.6135 90.257 74.6866 90.1175 74.7911C89.978 74.8956 89.8629 75.0291 89.7799 75.1824C89.6715 75.3099 89.5205 75.3936 89.355 75.4181C89.1894 75.4426 89.0207 75.4061 88.88 75.3155C88.7393 75.2249 88.6363 75.0863 88.5901 74.9255C88.5439 74.7647 88.5577 74.5926 88.6289 74.4412C88.8276 74.1201 89.0931 73.8456 89.4073 73.6363C89.7215 73.427 90.077 73.2877 90.4498 73.2279H90.8527C91.5379 73.2653 92.2066 73.4523 92.8118 73.7758C92.7473 73.1704 92.7473 72.4959 93.0167 71.9549C93.5554 70.5414 95.107 69.7334 97.4643 69.5998C97.5543 69.5945 97.6444 69.6082 97.7286 69.6402C97.8129 69.6722 97.8894 69.7217 97.9532 69.7855C98.0169 69.8492 98.0664 69.9257 98.0984 70.01C98.1304 70.0943 98.1442 70.1844 98.1388 70.2744C98.1458 70.359 98.1353 70.4441 98.108 70.5246C98.0808 70.605 98.0373 70.679 97.9804 70.742C97.9235 70.805 97.8542 70.8556 97.7769 70.8908C97.6996 70.926 97.616 70.945 97.5311 70.9466L97.538 70.9397ZM91.5364 100.588C91.6078 100.588 92.7542 99.9806 92.9545 98.9009C93.088 97.9594 92.4941 96.8797 91.2694 95.8023C91.1306 95.6746 91.0463 95.4985 91.0339 95.3103C91.0215 95.1222 91.0819 94.9365 91.2026 94.7917C91.349 94.6568 91.5422 94.5841 91.7413 94.5891C91.8185 94.5945 91.8939 94.6152 91.963 94.65C92.0322 94.6848 92.0938 94.7329 92.1442 94.7917C92.4313 95.0442 92.702 95.3149 92.9545 95.602C92.928 95.4977 92.9263 95.3886 92.9495 95.2835C92.9727 95.1783 93.0201 95.0801 93.088 94.9966C93.088 94.9966 95.5835 91.8933 93.7625 88.9305L93.6958 88.728C93.6267 88.4586 92.8877 85.6293 93.5623 84.0777C93.625 83.9541 93.7214 83.8508 93.8403 83.7795C93.9593 83.7082 94.0959 83.672 94.2345 83.6749L94.5061 83.7416C94.6662 83.8137 94.7915 83.9458 94.8548 84.1096C94.9182 84.2733 94.9145 84.4554 94.8445 84.6164C94.4394 85.4268 94.7087 87.3145 94.978 88.3251C97.1328 92.0959 94.2345 95.7355 94.1009 95.8714C94.0047 95.9869 93.8702 96.064 93.7218 96.0885C93.5734 96.1131 93.4212 96.0834 93.2929 96.0049C94.1002 97.0792 94.4378 98.0898 94.3058 99.0367C94.0319 100.858 92.2155 101.799 92.1442 101.799C92.0712 101.847 91.9886 101.879 91.9021 101.891C91.8157 101.904 91.7275 101.897 91.644 101.871C91.5605 101.846 91.4836 101.802 91.4188 101.744C91.3541 101.685 91.303 101.613 91.2694 101.532C91.2245 101.453 91.1959 101.365 91.185 101.275C91.1742 101.184 91.1814 101.092 91.2062 101.005C91.231 100.917 91.273 100.835 91.3297 100.763C91.3863 100.692 91.4566 100.633 91.5364 100.588ZM104.552 83.2144C105.558 89.414 103.001 91.502 102.124 92.0407C102.462 96.0832 100.167 97.8351 99.4303 98.3093C99.3685 99.0484 99.136 99.7632 98.7512 100.397C97.34 102.824 94.1056 103.62 93.6313 103.765C92.5539 104.843 91.4075 105.45 90.2657 105.45H90.1943C88.1063 105.384 86.1518 103.293 85.4151 102.285V63.9988C86.3567 61.9085 88.0418 60.1589 89.5934 59.7561C90.0308 59.6262 90.484 59.5573 90.9402 59.5512C93.2262 59.5512 95.1829 61.1028 95.252 61.1627L95.3855 61.3652C96.8681 63.7226 98.4818 65.6103 100.238 66.9593C104.75 70.3273 104.612 73.9646 104.552 74.7865C104.993 75.3188 105.315 75.9399 105.494 76.6074C106.367 79.6393 104.82 82.7379 104.552 83.2098V83.2144ZM99.4303 68.0528C97.3923 66.4154 95.6592 64.4312 94.3104 62.1917C93.9007 61.8533 91.9508 60.5066 89.9963 61.0406C88.5805 61.4458 87.4341 62.8616 86.626 65.219V101.463C87.1647 102.338 88.5805 104.023 90.1943 104.092H90.2657C91.4167 104.092 92.6253 103.148 93.7671 101.33C93.8557 101.203 93.9837 101.108 94.1312 101.061C94.2788 101.014 94.4377 101.017 94.5835 101.07C94.7292 101.122 94.8536 101.221 94.9374 101.351C95.0212 101.481 95.0598 101.636 95.0471 101.79C95.9265 101.385 97.0016 100.713 97.6116 99.7021C98.1503 98.6914 98.2148 97.4782 97.8096 96.1292C97.7782 96.0454 97.7637 95.9561 97.7671 95.8666C97.7705 95.7772 97.7916 95.6892 97.8293 95.608C97.867 95.5268 97.9206 95.4539 97.9867 95.3936C98.0529 95.3333 98.1304 95.2868 98.2148 95.2567H98.4174C98.5642 95.2518 98.7087 95.2937 98.83 95.3765C98.9513 95.4593 99.043 95.5786 99.0919 95.7171C99.1563 95.9865 99.2277 96.3226 99.2945 96.661C100.303 95.7839 101.79 93.4933 99.8355 88.507C99.7994 88.4236 99.7813 88.3335 99.7824 88.2426C99.7835 88.1518 99.8037 88.0622 99.8417 87.9796C99.8797 87.8971 99.9346 87.8235 100.003 87.7636C100.071 87.7038 100.152 87.659 100.238 87.6322L100.436 87.5654C100.576 87.5623 100.713 87.5987 100.832 87.6704C100.952 87.7421 101.048 87.8462 101.111 87.9706C101.435 88.7998 101.683 89.6566 101.852 90.5305C102.732 89.7202 104.214 87.4963 102.929 81.969C102.893 81.7997 102.922 81.6229 103.01 81.4737C103.097 81.3245 103.238 81.2137 103.404 81.1633H103.604L103.873 81.23C104.281 80.1527 104.617 78.5366 104.214 76.9827C103.873 75.7718 103.063 74.8302 101.852 74.1534C101.771 74.1106 101.7 74.0519 101.642 73.9808C101.585 73.9097 101.542 73.8277 101.517 73.7397C101.492 73.6517 101.485 73.5596 101.497 73.4688C101.509 73.3781 101.539 73.2907 101.585 73.2118C101.649 73.1085 101.739 73.0234 101.845 72.9646C101.952 72.9057 102.071 72.8751 102.193 72.8757L102.527 72.9448C102.741 73.1129 102.966 73.2667 103.201 73.4052C102.929 72.1229 102.124 70.0372 99.4303 68.0137V68.0528ZM84.4667 54.7145C99.8309 54.7145 112.294 67.1113 112.294 82.4732C112.29 89.8512 109.356 96.9255 104.138 102.142C98.92 107.358 91.8447 110.289 84.4667 110.292C69.1002 110.292 56.7057 97.8235 56.7057 82.4617C56.7005 78.8147 57.4151 75.2026 58.8084 71.8322C60.2017 68.4619 62.2464 65.3997 64.8253 62.821C67.4042 60.2423 70.4667 58.1979 73.8371 56.8048C77.2075 55.4118 80.8197 54.6975 84.4667 54.703V54.7145Z" fill="white"/>
</g>
<defs>
<clipPath id="clip0_1739_705">
<rect width="75" height="74.9954" fill="white" transform="translate(47 45)"/>
</clipPath>
</defs>
</svg>
