<svg width="168" height="275" viewBox="0 0 168 275" fill="none" xmlns="http://www.w3.org/2000/svg">
<path d="M0 10C0 4.47716 4.47715 0 10 0H158C163.523 0 168 4.47715 168 10V265C168 270.523 163.523 275 158 275H10C4.47715 275 0 270.523 0 265V10Z" fill="#FF5561"/>
<path d="M20.9733 193.4C20.9733 196.728 23.5333 199.128 26.7013 199.128C29.8853 199.128 32.4293 196.696 32.4293 193.4C32.4293 190.072 29.8853 187.672 26.7013 187.672C23.4853 187.672 20.9733 190.168 20.9733 193.4ZM22.9893 193.4C22.9893 191.064 24.7013 189.528 26.7013 189.528C28.6533 189.528 30.4133 191.064 30.4133 193.4C30.4133 195.72 28.7813 197.272 26.7013 197.272C24.7173 197.272 22.9893 195.72 22.9893 193.4ZM40.8489 190.68H39.0249V193.896C38.6569 194.392 37.9369 194.808 37.1849 194.808C35.8409 194.808 35.2649 194.216 35.2649 192.568V190.68H33.4409V193.192C33.4409 195.448 34.6089 196.504 36.7849 196.504C37.6649 196.504 38.4969 196.216 39.0249 195.736V199H40.8489V190.68ZM48.3673 199H50.1913V190.68H48.3673V193.944H44.3673V190.68H42.5433V199H44.3673V195.624H48.3673V199ZM51.5187 194.824C51.5187 197.32 53.3747 199.144 55.9667 199.144C58.5907 199.144 60.4307 197.32 60.4307 194.824C60.4307 192.312 58.5907 190.488 55.9667 190.488C53.3267 190.488 51.5187 192.312 51.5187 194.824ZM53.4067 194.824C53.4067 193.192 54.5107 192.184 55.9667 192.184C57.4067 192.184 58.5427 193.208 58.5427 194.824C58.5427 196.424 57.4867 197.448 55.9667 197.448C54.4467 197.448 53.4067 196.328 53.4067 194.824ZM68.0824 196.344C67.5864 197.016 66.7544 197.448 65.8584 197.448C64.4824 197.448 63.4104 196.776 63.2664 195.464H69.4424C69.5064 194.968 69.5384 194.568 69.5384 194.296C69.5384 191.992 67.8744 190.488 65.6344 190.488C62.8504 190.488 61.3624 192.392 61.3624 194.824C61.3624 197.448 63.1544 199.144 65.8264 199.144C67.1864 199.144 68.3544 198.584 69.2024 197.448L68.0824 196.344ZM65.5544 192.136C66.7224 192.136 67.5064 192.728 67.6504 193.88H63.2824C63.5224 192.808 64.3224 192.136 65.5544 192.136ZM74.2531 194.824C74.2531 197.32 76.1091 199.144 78.7011 199.144C81.3251 199.144 83.1651 197.32 83.1651 194.824C83.1651 192.312 81.3251 190.488 78.7011 190.488C76.0611 190.488 74.2531 192.312 74.2531 194.824ZM76.1411 194.824C76.1411 193.192 77.2451 192.184 78.7011 192.184C80.1411 192.184 81.2771 193.208 81.2771 194.824C81.2771 196.424 80.2211 197.448 78.7011 197.448C77.1811 197.448 76.1411 196.328 76.1411 194.824ZM91.7608 187.112C90.2248 187.576 88.3368 187.192 86.8488 187.944C84.6568 189.048 84.1448 191.144 84.1448 194.168C84.1448 197.4 85.9368 199.16 88.6088 199.16C91.1688 199.16 92.8328 197.336 92.8328 194.904C92.8328 192.376 91.1368 191.048 88.9928 191.048C87.6968 191.048 86.5928 191.416 85.9528 192.328C86.0328 191.048 86.4488 190.04 87.5048 189.544C88.7368 189 90.6568 189.336 92.0648 188.76L91.7608 187.112ZM86.0328 194.472C86.4008 193.56 87.2808 192.744 88.6408 192.744C90.1448 192.744 90.9448 193.656 90.9448 195.016C90.9448 196.424 90.0968 197.464 88.5928 197.464C87.0728 197.464 86.0328 196.232 86.0328 194.648V194.472ZM94.1453 202.104C94.4653 202.264 94.8493 202.344 95.2973 202.344C96.6413 202.344 97.4893 201.512 98.6093 198.76L101.873 190.68H99.9213L97.7133 196.296L94.8493 190.68H92.7373L96.8333 198.504L96.5453 199.256C96.1293 200.28 95.6973 200.648 95.2333 200.648C95.0893 200.648 94.9773 200.616 94.8653 200.552L94.1453 202.104ZM109.599 190.68H107.775V193.896C107.407 194.392 106.687 194.808 105.935 194.808C104.591 194.808 104.015 194.216 104.015 192.568V190.68H102.191V193.192C102.191 195.448 103.359 196.504 105.535 196.504C106.415 196.504 107.247 196.216 107.775 195.736V199H109.599V190.68ZM117.629 196.344C117.133 197.016 116.301 197.448 115.405 197.448C114.029 197.448 112.957 196.776 112.813 195.464H118.989C119.053 194.968 119.085 194.568 119.085 194.296C119.085 191.992 117.421 190.488 115.181 190.488C112.397 190.488 110.909 192.392 110.909 194.824C110.909 197.448 112.701 199.144 115.373 199.144C116.733 199.144 117.901 198.584 118.749 197.448L117.629 196.344ZM115.101 192.136C116.269 192.136 117.053 192.728 117.197 193.88H112.829C113.069 192.808 113.869 192.136 115.101 192.136ZM126.227 199H128.051V190.68H126.227V193.944H122.227V190.68H120.403V199H122.227V195.624H126.227V199ZM131.346 199L135.762 193.592V199H137.586V190.68H136.002L131.586 196.104V190.68H129.762V199H131.346ZM145.629 196.344C145.133 197.016 144.301 197.448 143.405 197.448C142.029 197.448 140.957 196.776 140.813 195.464H146.989C147.053 194.968 147.085 194.568 147.085 194.296C147.085 191.992 145.421 190.488 143.181 190.488C140.397 190.488 138.909 192.392 138.909 194.824C138.909 197.448 140.701 199.144 143.373 199.144C144.733 199.144 145.901 198.584 146.749 197.448L145.629 196.344ZM143.101 192.136C144.269 192.136 145.053 192.728 145.197 193.88H140.829C141.069 192.808 141.869 192.136 143.101 192.136Z" fill="white"/>
<g clip-path="url(#clip0_1433_67)">
<path fill-rule="evenodd" clip-rule="evenodd" d="M84.8905 72.8299L68.7818 119.458L79.1088 65.5075C80.2005 66.5144 81.5509 67.2072 83.0134 67.5108H83.2516V67.5902H83.7173V67.6662H84.8204V67.7422H84.9745V67.6662H85.9901L86.0671 67.5902H86.5364V67.5108H86.6939C88.1865 67.2248 89.5675 66.5306 90.6791 65.5075L100.985 119.441L84.8905 72.8299ZM83.2516 40H86.4523C86.4932 40.0033 86.5315 40.0214 86.5599 40.0506C86.5883 40.0799 86.6048 40.1184 86.6064 40.1589V50.9421C86.0385 50.8539 85.4652 50.8031 84.8905 50.7902C84.3143 50.7995 83.7397 50.8503 83.171 50.9421V40.1589C83.171 40.0794 83.171 40 83.2516 40ZM84.8905 50.7902C86.5901 50.7902 88.2516 51.2873 89.6648 52.2186C91.0781 53.15 92.1795 54.4738 92.83 56.0226C93.4804 57.5714 93.6506 59.2756 93.319 60.9198C92.9874 62.564 92.1689 64.0742 90.9671 65.2596C89.7652 66.445 88.234 67.2523 86.567 67.5793C84.9 67.9064 83.1721 67.7385 81.6018 67.097C80.0315 66.4555 78.6894 65.3691 77.7451 63.9752C76.8008 62.5813 76.2968 60.9426 76.2968 59.2662C76.2941 58.1523 76.5144 57.0489 76.9453 56.0193C77.3762 54.9897 78.0091 54.0543 78.8077 53.2666C79.6062 52.479 80.5547 51.8548 81.5985 51.4298C82.6424 51.0048 83.7612 50.7874 84.8905 50.7902ZM84.8905 56.6619C85.2401 56.6591 85.5868 56.7251 85.9104 56.8559C86.2339 56.9867 86.5278 57.1798 86.7749 57.4238C87.022 57.6678 87.2174 57.9579 87.3496 58.2772C87.4818 58.5965 87.5482 58.9386 87.5449 59.2835C87.5579 59.6355 87.4987 59.9865 87.3711 60.3155C87.2435 60.6445 87.0499 60.9448 86.802 61.1984C86.554 61.452 86.2568 61.6536 85.9281 61.7914C85.5994 61.9292 85.2459 62.0002 84.8887 62.0002C84.5315 62.0002 84.178 61.9292 83.8493 61.7914C83.5206 61.6536 83.2234 61.452 82.9755 61.1984C82.7275 60.9448 82.534 60.6445 82.4063 60.3155C82.2787 59.9865 82.2196 59.6355 82.2325 59.2835C82.2297 58.9384 82.2966 58.5963 82.4291 58.277C82.5617 57.9577 82.7574 57.6676 83.0048 57.4236C83.2522 57.1796 83.5463 56.9866 83.87 56.8558C84.1938 56.7251 84.5406 56.6591 84.8905 56.6619ZM122.011 110.544C117.457 116.012 111.731 120.416 105.244 123.439C98.757 126.461 91.6713 128.027 84.497 128.024C77.3227 128.021 70.2384 126.448 63.7544 123.42C57.2705 120.391 51.5483 115.982 47 110.509C49.1011 110.509 48.7965 110.122 50.2042 111.663C54.6228 116.31 59.9655 120.009 65.8985 122.528C71.8316 125.047 78.2276 126.332 84.687 126.303C91.1463 126.274 97.5303 124.932 103.44 122.36C109.35 119.788 114.658 116.042 119.034 111.355C120.204 110.122 120.281 110.509 122 110.509L122.011 110.544Z" fill="white"/>
</g>
<defs>
<clipPath id="clip0_1433_67">
<rect width="75" height="88" fill="white" transform="translate(47 40)"/>
</clipPath>
</defs>
</svg>
